<svg width="128" height="128" viewBox="0 0 128 128" fill="none" xmlns="http://www.w3.org/2000/svg">
<path fill-rule="evenodd" clip-rule="evenodd" d="M63.25 0.00953424C97.01 -0.0605153 111.32 0.249704 114.75 1.13033C117.53 1.84083 120.76 3.60207 122.53 5.38333C124.31 7.15458 126.07 10.3869 126.78 13.1688C127.65 16.5612 128 31.0615 128 63.9547C128 96.848 127.65 111.348 126.78 114.741C126.07 117.523 124.31 120.755 122.53 122.526C120.76 124.307 117.53 126.069 114.75 126.779C111.36 127.65 96.87 128 64 128C31.13 128 16.64 127.65 13.25 126.779C10.47 126.069 7.24 124.307 5.47 122.526C3.69 120.755 1.93 117.523 1.22 114.741C0.35 111.348 0 96.848 0 63.9547C0 31.0615 0.35 16.5612 1.22 13.1688C1.93 10.3969 3.7 7.14458 5.47 5.36332C7.14 3.68213 10.3 1.82081 12.5 1.21038C15.11 0.499881 32.71 0.0795837 63.25 0.00953424V0.00953424ZM27.52 27.9993C25.74 30.0708 25 32.1022 25 34.9342C25 38.0464 25.67 39.6075 28 41.9392C30.38 44.3209 31.88 44.9413 35.25 44.9613C38.6 44.9813 40.07 44.4009 42.18 42.2094C43.65 40.6883 45.15 38.3166 45.51 36.9356C45.89 35.4746 45.5 32.8728 44.58 30.6812C43.49 28.0794 41.93 26.4682 39.5 25.4275C37.58 24.6069 35.66 23.9865 35.25 24.0665C34.84 24.1366 33.49 24.3968 32.27 24.6269C31.04 24.8671 28.9 26.3782 27.52 27.9993ZM70.07 54.8783L68.5 57.1699C67.49 51.4759 67.4 51.4459 59.74 51.1957L52 50.9455L52.5 103.483C63.17 103.893 65.96 103.543 66.79 102.732C67.74 101.811 68.08 97.5385 68.04 86.7208C68.01 75.5329 68.36 71.2299 69.5 68.9583C70.33 67.3071 71.9 65.5058 73 64.9554C74.1 64.4051 76.13 63.9547 77.5 63.9547C78.88 63.9547 80.9 64.4051 82 64.9554C83.1 65.5058 84.56 66.9669 85.25 68.2077C86.04 69.6287 86.68 76.5236 87 86.971L87.5 103.483H102.5C103.02 75.4729 102.69 67.5172 101.89 63.9547C101.09 60.3722 99.58 57.29 97.58 55.1285C95.88 53.3072 92.92 51.3959 91 50.8855C89.08 50.3751 85.47 49.9748 83 49.9849C80.53 50.0049 76.96 50.5953 75.07 51.3058C73.19 52.0063 70.94 53.6174 70.07 54.8783ZM26.83 77.6344L27 102.982C30.49 103.843 33.98 103.953 37 103.783L42.5 103.483L43 50.9455C31.63 50.9455 27.96 51.2457 27.5 51.616C27.04 51.9763 26.74 63.6845 26.83 77.6344Z" fill="white" fill-opacity="0.91"/>
<path d="M68.66 54.9484C68.38 55.779 68.16 55.3286 68.16 53.9477C68.16 52.5767 68.38 51.8962 68.66 52.4466C68.94 52.997 68.94 54.1178 68.66 54.9484Z" fill="white" fill-opacity="0.91"/>
<path d="M68.74 94.9767C68.55 99.1096 68.4 96.1775 68.39 88.4721C68.39 80.7666 68.55 77.3842 68.74 80.9668C68.93 84.5493 68.93 90.8437 68.74 94.9767Z" fill="white" fill-opacity="0.91"/>
<path d="M42.29 42.9399C40.65 44.3209 40.61 44.3008 41.86 42.6897C42.61 41.729 43.4 40.9385 43.61 40.9385C43.83 40.9385 44.02 41.0485 44.04 41.1886C44.07 41.3287 43.28 42.1093 42.29 42.9399Z" fill="white" fill-opacity="0.91"/>
<path d="M51.75 90.4735C51.57 97.0781 51.43 91.224 51.43 77.4643C51.43 63.7046 51.58 58.3007 51.75 65.4558C51.92 72.6108 51.92 83.8688 51.75 90.4735Z" fill="white" fill-opacity="0.91"/>
<path d="M103.74 95.477C103.55 99.3297 103.4 95.9473 103.4 87.9717C103.4 79.9961 103.55 76.8338 103.74 80.9668C103.93 85.0897 103.93 91.6243 103.74 95.477Z" fill="white" fill-opacity="0.91"/>
<path d="M38 50.6653C36.08 50.8955 33.15 50.8955 31.5 50.6653C29.85 50.4452 31.42 50.2651 35 50.2651C38.58 50.2651 39.92 50.4452 38 50.6653Z" fill="white" fill-opacity="0.91"/>
<path d="M62.5 50.6753C60.3 50.8855 57.15 50.8855 55.5 50.6653C53.85 50.4452 55.65 50.2651 59.5 50.2751C63.35 50.2751 64.7 50.4552 62.5 50.6753Z" fill="white" fill-opacity="0.91"/>
<path d="M43.75 90.4735C43.57 97.0781 43.43 91.224 43.43 77.4643C43.43 63.7046 43.58 58.3007 43.75 65.4558C43.92 72.6108 43.92 83.8688 43.75 90.4735Z" fill="white" fill-opacity="0.91"/>
<path d="M97.71 54.9484C96.72 54.1178 95.93 53.3372 95.96 53.1971C95.98 53.057 96.32 52.9469 96.72 52.9469C97.11 52.9469 97.9 53.7375 98.47 54.6982C99.41 56.2893 99.34 56.3093 97.71 54.9484Z" fill="white" fill-opacity="0.91"/>
<path d="M103.4 73.1512C103.27 73.8717 103.11 73.5615 103.05 72.4607C102.99 71.36 103.1 70.7695 103.29 71.1498C103.48 71.5301 103.53 72.4307 103.4 73.1512Z" fill="white" fill-opacity="0.91"/>
<path d="M86.74 95.477C86.55 99.3297 86.4 95.9473 86.4 87.9717C86.4 79.9961 86.55 76.8338 86.74 80.9668C86.93 85.0897 86.93 91.6243 86.74 95.477Z" fill="white" fill-opacity="0.91"/>
<path d="M82.92 49.5245C82.69 49.8348 81.83 49.8748 81 49.6046C79.93 49.2443 80.04 49.0842 81.42 49.0242C82.47 48.9842 83.15 49.2043 82.92 49.5245Z" fill="white" fill-opacity="0.91"/>
<path d="M26.75 90.4735C26.57 97.0781 26.43 91.224 26.43 77.4643C26.43 63.7046 26.58 58.3007 26.75 65.4558C26.92 72.6108 26.92 83.8688 26.75 90.4735Z" fill="white" fill-opacity="0.91"/>
</svg>
