<svg width="1600" height="1286" viewBox="0 0 1600 1286" fill="none" xmlns="http://www.w3.org/2000/svg">
<path fill-rule="evenodd" clip-rule="evenodd" d="M737.241 121.007C988.593 120.969 1132.94 121.084 1137.13 121.313C1140.7 121.505 1146.16 121.964 1149.24 122.27C1152.32 122.615 1157.51 123.304 1160.78 123.84C1164.04 124.376 1169.35 125.409 1172.5 126.098C1175.7 126.826 1180.5 128.012 1183.27 128.778C1186.04 129.543 1190.88 130.998 1194.04 132.07C1197.23 133.142 1202.42 135.056 1205.57 136.319C1208.76 137.582 1214.95 140.376 1219.41 142.558C1223.87 144.74 1229.91 147.917 1232.87 149.64C1235.83 151.401 1240.6 154.348 1243.45 156.224C1246.29 158.138 1250.87 161.353 1253.63 163.42C1256.4 165.487 1260.29 168.55 1262.29 170.234C1264.29 171.88 1268.36 175.478 1271.32 178.234C1274.28 180.952 1278.97 185.66 1281.78 188.722C1284.55 191.746 1288.01 195.613 1289.39 197.297C1290.82 198.981 1293.78 202.771 1296.01 205.718C1298.24 208.666 1301.51 213.221 1303.24 215.862C1304.97 218.503 1307.85 223.059 1309.58 226.006C1311.31 228.953 1314.5 235.002 1316.69 239.404C1318.89 243.844 1321.54 249.701 1322.65 252.418C1323.77 255.136 1325.35 259.309 1326.19 261.605C1327.04 263.902 1328.61 268.917 1329.77 272.706C1330.88 276.496 1332.5 282.773 1333.34 286.678C1334.19 290.582 1335.27 296.018 1335.69 298.736C1336.11 301.454 1336.73 305.97 1337.03 308.688C1337.34 311.406 1337.8 317.11 1338.03 321.32C1338.34 326.832 1338.42 435.008 1338.34 708.51C1338.23 1066.15 1338.15 1088.39 1337.53 1093.98C1337.15 1097.23 1336.5 1102.32 1336.07 1105.27C1335.65 1108.22 1334.77 1113.23 1334.15 1116.37C1333.5 1119.55 1332.38 1124.33 1331.69 1127.09C1330.96 1129.85 1329.61 1134.55 1328.65 1137.62C1327.73 1140.68 1326.08 1145.39 1325.04 1148.14C1324 1150.9 1322.31 1155.11 1321.31 1157.52C1320.27 1159.93 1317.69 1165.37 1315.54 1169.58C1313.39 1173.79 1310.47 1179.22 1309 1181.64C1307.54 1184.05 1304.81 1188.37 1302.93 1191.21C1301.01 1194.04 1297.97 1198.36 1296.16 1200.78C1294.35 1203.19 1291.51 1206.82 1289.86 1208.81C1288.16 1210.8 1284.55 1214.94 1281.78 1217.96C1278.97 1220.99 1274.71 1225.27 1272.28 1227.53C1269.86 1229.79 1265.79 1233.43 1263.25 1235.57C1260.71 1237.75 1256.4 1241.2 1253.63 1243.27C1250.87 1245.29 1245.87 1248.82 1242.48 1251C1239.1 1253.22 1234.52 1256.05 1232.29 1257.31C1230.06 1258.58 1226.26 1260.68 1223.84 1261.95C1221.41 1263.21 1217.26 1265.24 1214.61 1266.46C1211.95 1267.65 1207.65 1269.49 1204.99 1270.56C1202.34 1271.59 1198.19 1273.12 1195.77 1273.97C1193.34 1274.81 1189.35 1276.07 1186.92 1276.8C1184.5 1277.52 1180.5 1278.63 1178.08 1279.25C1175.66 1279.86 1171.04 1280.89 1167.89 1281.51C1164.7 1282.16 1159.7 1283 1156.74 1283.46C1153.78 1283.88 1148.51 1284.53 1145.01 1284.87C1139.05 1285.49 1114.1 1285.53 744.546 1285.68C470.815 1285.75 347.773 1285.68 341.774 1285.37C337.006 1285.18 330.008 1284.64 326.202 1284.19C322.395 1283.76 316.089 1282.85 312.167 1282.12C308.245 1281.39 302.016 1280.05 298.325 1279.09C294.634 1278.18 288.828 1276.49 285.444 1275.42C282.06 1274.31 276.446 1272.32 272.947 1270.94C269.448 1269.56 264.104 1267.27 261.028 1265.85C257.952 1264.47 252.761 1261.83 249.492 1260.03C246.224 1258.27 241.187 1255.36 238.342 1253.6C235.496 1251.8 230.728 1248.62 227.768 1246.52C224.807 1244.41 220.654 1241.31 218.539 1239.63C216.425 1237.94 212.695 1234.84 210.273 1232.7C207.85 1230.56 203.121 1226.08 199.814 1222.75C196.507 1219.38 192.278 1214.94 190.432 1212.83C188.625 1210.73 185.433 1206.86 183.357 1204.22C181.319 1201.58 178.128 1197.29 176.282 1194.65C174.436 1192.01 171.476 1187.53 169.745 1184.7C167.977 1181.87 165.208 1177.04 163.555 1173.98C161.901 1170.92 159.479 1166.1 158.172 1163.26C156.864 1160.43 154.634 1155.26 153.25 1151.78C151.866 1148.3 149.866 1142.71 148.751 1139.34C147.675 1135.97 146.098 1130.65 145.291 1127.47C144.483 1124.33 143.291 1119.17 142.638 1115.99C142.022 1112.85 141.138 1107.76 140.715 1104.7C140.292 1101.63 139.754 1097.42 139.523 1095.32C139.331 1093.21 138.985 1088.04 138.754 1083.83C138.523 1078.9 138.37 942.968 138.37 703.343C138.37 469.306 138.523 327.675 138.754 322.851C138.946 318.641 139.292 313.473 139.523 311.368C139.754 309.262 140.292 305.052 140.715 301.989C141.138 298.927 142.022 293.874 142.638 290.697C143.253 287.558 144.483 282.276 145.329 279.022C146.175 275.768 148.059 269.567 149.52 265.242C150.943 260.916 153.288 254.639 154.711 251.27C156.095 247.902 158.71 242.236 160.479 238.638C162.248 235.04 165.131 229.719 166.862 226.772C168.592 223.824 171.476 219.154 173.283 216.436C175.052 213.719 178.205 209.202 180.242 206.484C182.319 203.766 185.433 199.785 187.164 197.68C188.932 195.574 192.701 191.287 195.584 188.187C198.507 185.086 203.275 180.301 206.235 177.583C209.196 174.904 213.349 171.267 215.463 169.507C217.578 167.784 221.577 164.683 224.307 162.616C227.037 160.588 231.805 157.296 234.881 155.267C237.957 153.276 242.802 150.329 245.647 148.683C248.493 147.075 253.76 144.319 257.375 142.558C260.989 140.797 265.988 138.501 268.526 137.429C271.063 136.395 275.562 134.635 278.523 133.563C281.483 132.529 286.482 130.883 289.673 129.926C292.826 129.008 297.517 127.744 300.055 127.094C302.593 126.481 306.938 125.524 309.668 124.988C312.398 124.452 317.012 123.648 319.857 123.266C322.703 122.845 327.97 122.232 331.585 121.926C335.199 121.581 339.429 121.275 341.005 121.199C342.582 121.122 520.878 121.046 737.241 121.007V121.007ZM457.127 423.64C456.588 436.004 456.127 442.166 455.781 445.344C455.435 448.482 454.82 452.885 454.435 455.105C454.012 457.478 452.205 463.603 450.09 470.033C448.091 476.043 410.678 582.994 366.96 707.745C301.632 894.239 287.482 934.93 287.443 936.652C287.405 938.145 287.559 939.102 288.02 939.829C288.405 940.403 289.327 941.131 290.058 941.437C291.25 941.935 297.594 942.011 340.928 941.896L390.415 941.82C392.798 940.557 393.952 939.638 394.529 938.911C395.375 937.877 399.797 924.594 414.985 877.703L434.364 817.796H620.735C652.687 910.929 662.223 938.413 662.531 938.949C662.8 939.485 663.723 940.403 664.569 941.054L666.03 942.203H777.037C778.998 940.212 779.152 939.791 779.114 937.877C779.114 935.963 767.194 902.469 687.716 680.184C637.461 539.663 596.126 424.252 595.857 423.754C595.588 423.257 594.857 422.491 594.281 422.032L593.204 421.228L459.818 421.037L457.127 423.64ZM970.637 540.658C967.253 541.002 961.486 541.768 957.756 542.38C954.065 542.993 947.836 544.294 943.914 545.251C940.03 546.247 934.301 547.854 931.225 548.85C928.187 549.883 923.458 551.567 920.766 552.677C918.075 553.749 913.768 555.625 911.23 556.888C908.693 558.151 904.694 560.333 902.31 561.749C899.926 563.166 895.889 565.654 893.351 567.338C890.813 569.022 887.006 571.702 884.892 573.31C882.777 574.917 879.432 577.597 877.394 579.243C875.394 580.927 871.78 584.143 869.319 586.401C866.897 588.659 862.821 592.794 860.283 595.55C857.745 598.344 853.708 603.052 851.324 606.038C848.94 609.024 845.326 613.847 843.249 616.794C841.212 619.742 837.905 624.833 835.944 628.087C833.983 631.379 830.599 637.656 828.407 642.058C826.216 646.499 823.37 652.7 822.102 655.839C820.833 659.016 818.949 664.107 817.872 667.131C816.795 670.193 815.411 674.404 814.757 676.509C814.142 678.615 812.912 683.093 812.066 686.462C811.182 689.83 809.913 695.61 809.182 699.285C808.452 702.998 807.413 709.008 806.875 712.683C806.337 716.396 805.606 722.061 805.299 725.315C804.914 728.99 804.568 736.684 804.453 745.22C804.337 754.024 804.414 761.756 804.683 766.082C804.953 769.871 805.491 775.996 805.914 779.671C806.337 783.384 807.183 789.317 807.798 792.877C808.413 796.475 809.528 802.255 810.297 805.7C811.105 809.184 812.796 815.806 814.142 820.438C815.488 825.069 817.487 831.271 818.564 834.218C819.679 837.166 821.371 841.414 822.332 843.596C823.255 845.817 825.178 849.874 826.562 852.592C827.946 855.348 830.176 859.559 831.56 861.97C832.945 864.42 835.367 868.363 836.944 870.774C838.52 873.224 841.481 877.435 843.557 880.153C845.595 882.909 848.902 887.043 850.901 889.34C852.901 891.675 855.9 895.005 857.592 896.766C859.283 898.565 862.667 901.818 865.09 904.039C867.55 906.259 871.511 909.627 873.933 911.579C876.394 913.493 880.355 916.479 882.777 918.163C885.238 919.886 889.544 922.68 892.39 924.403C895.273 926.087 901.233 929.303 905.655 931.446C910.115 933.628 916.614 936.461 920.074 937.724C923.573 938.987 928.764 940.71 931.609 941.59C934.493 942.471 939.415 943.849 942.568 944.652C945.759 945.495 950.95 946.681 954.103 947.332C957.295 947.944 962.139 948.825 964.869 949.246C967.638 949.667 972.137 950.279 974.867 950.586C977.635 950.892 982.826 951.351 986.402 951.581C990.824 951.887 999.898 951.964 1014.28 951.811C1026.04 951.734 1037.7 951.428 1040.23 951.198C1042.77 950.968 1047.46 950.509 1050.61 950.203C1053.81 949.897 1058.8 949.284 1061.77 948.863C1064.73 948.442 1071.57 947.294 1076.95 946.337C1082.37 945.38 1090.22 943.734 1094.45 942.7C1098.68 941.628 1105.1 939.829 1108.68 938.643C1112.29 937.494 1117.75 935.542 1120.79 934.355C1123.86 933.13 1127.05 931.791 1127.9 931.37C1128.75 930.949 1130.05 929.915 1130.82 929.111C1131.94 927.925 1132.28 927.159 1132.67 924.939C1133.05 922.91 1133.13 912.766 1133.01 882.181C1132.94 847.195 1132.82 842.027 1132.32 841.491C1131.78 840.917 1131.59 840.917 1129.63 841.797C1128.48 842.333 1125.02 843.635 1121.94 844.668C1118.9 845.74 1114.14 847.195 1111.37 847.96C1108.64 848.726 1104.48 849.759 1102.14 850.295C1099.83 850.831 1092.3 852.171 1085.41 853.357C1078.57 854.506 1070.26 855.807 1066.96 856.228C1063.69 856.649 1058.15 857.262 1054.65 857.568C1051.19 857.913 1044 858.334 1038.69 858.563C1031.66 858.87 1027.16 858.87 1021.78 858.563C1017.78 858.334 1012.39 857.874 1009.86 857.568C1007.32 857.224 1002.32 856.381 998.706 855.654C995.13 854.927 989.785 853.664 986.902 852.822C983.979 851.979 979.481 850.525 976.904 849.568C974.29 848.649 970.214 847.003 967.753 845.931C965.331 844.86 961.793 843.099 959.871 842.065C957.987 840.993 954.872 839.041 952.95 837.663C951.066 836.323 947.913 833.835 945.952 832.151C943.991 830.467 940.991 827.481 939.3 825.529C937.608 823.577 935.108 820.438 933.724 818.524C932.302 816.61 929.648 811.94 927.611 807.806C925.496 803.633 923.189 798.351 922.189 795.365C921.228 792.532 919.92 788.245 919.305 785.795C918.728 783.384 917.921 779.786 917.613 777.757C917.267 775.766 916.921 773.584 916.806 772.895L916.614 771.632C1076.45 771.9 1086.34 771.977 1092.33 772.551C1096.06 772.895 1102.18 773.355 1105.98 773.584C1110.75 773.852 1115.87 773.852 1122.33 773.584C1127.52 773.355 1134.28 772.934 1137.32 772.627C1140.4 772.321 1146.28 771.9 1150.39 771.632C1154.59 771.403 1158.62 770.943 1159.55 770.675C1160.55 770.331 1161.62 769.565 1162.31 768.685C1163.01 767.843 1163.66 766.426 1163.85 765.316C1164.08 764.283 1164.7 758.694 1165.2 752.876C1165.74 747.095 1166.35 738.33 1166.54 733.353C1166.77 728.415 1166.93 719.726 1166.93 714.023C1166.93 708.357 1166.77 701.276 1166.54 698.328C1166.31 695.381 1165.81 690.137 1165.35 686.653C1164.93 683.208 1163.89 677.007 1163.08 672.873C1162.28 668.777 1161.05 663.533 1160.39 661.198C1159.74 658.901 1158.51 654.767 1157.66 652.011C1156.78 649.293 1154.85 643.934 1153.36 640.144C1151.89 636.355 1148.97 629.924 1146.9 625.79C1144.86 621.694 1141.7 615.991 1139.97 613.081C1138.21 610.172 1135.32 605.808 1133.59 603.32C1131.86 600.832 1128.94 596.928 1127.05 594.631C1125.21 592.296 1121.71 588.353 1119.25 585.865C1116.83 583.339 1113.1 579.817 1110.98 577.98C1108.87 576.181 1105.18 573.195 1102.72 571.357C1100.29 569.558 1096.06 566.649 1093.29 564.927C1090.56 563.242 1085.45 560.41 1081.95 558.649C1078.49 556.888 1073.53 554.591 1070.99 553.52C1068.46 552.448 1063.38 550.572 1059.65 549.309C1055.96 548.084 1050.15 546.361 1046.77 545.481C1043.39 544.639 1038.39 543.49 1035.62 542.993C1032.89 542.457 1027.77 541.653 1024.28 541.232C1020.82 540.811 1014.82 540.275 1011.01 540.084C1007.2 539.854 998.821 539.739 992.362 539.739C985.94 539.777 979.788 539.892 978.712 539.931C977.673 540.007 974.021 540.352 970.637 540.658V540.658ZM526.03 510.953C526.415 510.953 526.723 511.068 526.723 511.145C526.723 511.26 527.915 515.547 529.376 520.638C530.837 525.729 533.874 536.447 536.143 544.447C538.412 552.448 541.526 563.242 543.064 568.372C544.641 573.539 547.909 583.951 550.331 591.53C552.754 599.11 557.022 612.545 559.79 621.388C562.597 630.23 567.019 644.47 569.672 652.968C572.287 661.504 577.208 676.739 580.554 686.845C583.937 696.95 587.552 708.128 588.628 711.649C589.705 715.171 590.551 718.233 590.551 718.425C590.551 718.693 569.095 718.807 526.915 718.807C476.198 718.807 463.317 718.731 463.433 718.348C463.509 718.08 465.009 713.831 466.739 708.855C468.47 703.917 471.007 696.529 472.392 692.395C473.737 688.299 476.121 680.797 477.698 675.744C479.236 670.691 481.658 662.346 483.081 657.179C484.504 652.049 486.734 644.355 488.08 640.144C489.425 635.934 494.193 620.699 498.653 606.268C503.114 591.875 507.651 577.482 508.728 574.305C509.766 571.166 511.957 564.084 513.534 558.611C515.11 553.137 517.687 543.605 519.225 537.366C520.763 531.165 522.762 522.705 523.647 518.533C525.069 511.987 525.377 510.953 526.03 510.953ZM992.169 625.484C996.399 625.445 1001.44 625.599 1003.32 625.828C1005.24 626.02 1008.16 626.479 1009.86 626.823C1011.55 627.13 1014.78 628.01 1016.97 628.737C1019.2 629.426 1023.28 631.149 1026.01 632.527C1028.77 633.905 1032.66 636.163 1034.66 637.58C1036.7 638.996 1040.39 642.212 1042.92 644.738C1045.46 647.264 1048.73 650.977 1050.15 652.968C1051.58 654.997 1053.96 659.016 1055.42 661.963C1056.88 664.911 1058.61 668.892 1059.27 670.768C1059.88 672.681 1060.8 675.935 1061.27 678.041C1061.92 681.103 1062.07 683.246 1062.15 695.266L1059.46 696.606C1057.96 697.371 1055.81 698.175 1054.65 698.481C1053.46 698.788 1048.46 699.132 1042.92 699.324C1037.66 699.515 1007.05 699.668 916.614 699.668L916.844 697.678C916.96 696.567 917.575 693.122 918.19 690.022C918.805 686.921 920.151 681.83 921.189 678.729C922.227 675.629 923.996 670.997 925.15 668.471C926.303 665.944 928.187 662.27 929.379 660.241C930.571 658.25 932.609 655.15 933.993 653.389C935.339 651.59 937.8 648.681 939.492 646.92C941.184 645.159 943.875 642.671 945.452 641.369C947.067 640.106 949.989 638.001 951.988 636.661C954.026 635.36 957.641 633.331 960.063 632.182C962.524 631.034 966.138 629.58 968.138 628.929C970.176 628.278 973.021 627.474 974.482 627.13C975.982 626.785 978.827 626.288 980.826 626.02C982.864 625.713 987.94 625.484 992.169 625.484V625.484Z" fill="white"/>
</svg>
