<svg width="1600" height="1303" viewBox="0 0 1600 1303" fill="none" xmlns="http://www.w3.org/2000/svg">
<path fill-rule="evenodd" clip-rule="evenodd" d="M736.806 103.053C1089.63 102.813 1146.36 103.293 1164.18 106.414C1175.43 108.334 1192.78 113.135 1202.63 117.215C1212.71 121.056 1227.71 128.497 1235.91 133.298C1244.12 138.339 1257.72 148.42 1266.39 155.861C1274.83 163.063 1287.72 177.225 1295.23 187.066C1302.49 196.908 1312.11 212.27 1316.56 221.632C1321.25 230.993 1326.87 244.915 1329.45 252.837C1332.27 260.758 1335.55 274.2 1336.96 282.841C1338.83 293.883 1339.3 416.782 1338.83 712.508C1338.13 1102.81 1337.89 1127.29 1333.91 1140.97C1331.56 1148.9 1324.53 1166.18 1318.44 1179.38C1312.11 1192.82 1301.09 1211.31 1293.12 1221.39C1285.38 1231.23 1272.49 1244.91 1264.75 1251.39C1256.78 1257.87 1243.65 1267.47 1235.68 1272.52C1227.47 1277.56 1212.71 1284.76 1202.63 1288.6C1192.78 1292.68 1175.43 1297.48 1163.94 1299.4C1146.36 1302.52 1089.16 1303 739.15 1303C389.141 1303 331.939 1302.52 314.122 1299.4C302.869 1297.48 285.521 1292.68 275.44 1288.6C265.594 1284.76 250.825 1277.56 242.62 1272.52C234.649 1267.47 221.521 1257.87 213.55 1251.39C205.579 1244.67 193.623 1232.43 186.824 1223.79C180.026 1215.15 171.117 1201.7 166.663 1193.78C162.209 1185.86 155.879 1172.42 152.597 1163.78C149.315 1155.14 144.861 1139.77 142.751 1129.45C139.469 1112.89 139 1067.28 139 702.907C139 338.53 139.469 292.923 142.751 276.12C144.861 266.039 149.315 250.676 152.597 242.035C155.879 233.393 162.209 219.951 166.663 212.03C171.117 204.109 180.026 190.667 186.824 182.025C193.623 173.384 205.579 160.902 213.55 154.421C221.521 147.7 234.649 138.339 242.62 133.298C250.825 128.257 265.594 121.056 275.44 117.215C285.521 113.135 301.931 108.574 311.778 106.654C327.016 103.773 397.58 103.293 736.806 103.053V103.053ZM459.471 435.265C458.533 449.667 446.108 487.593 374.606 696.906C328.657 831.567 291.616 943.184 292.32 944.864C293.492 947.025 306.151 947.745 343.426 947.745C381.404 947.985 394.064 947.265 396.174 944.864C397.815 943.184 407.426 915.1 417.976 882.455C428.291 849.569 436.731 822.445 436.731 821.725C436.731 821.005 479.163 820.525 530.973 820.525H625.45C656.395 912.699 667.179 941.264 669.289 943.424C673.04 947.265 679.135 947.745 723.912 947.745C751.575 947.745 775.956 947.265 777.831 946.545C779.707 945.824 781.348 943.904 781.348 942.464C781.348 940.784 741.26 823.885 692.263 682.503C643.267 541.361 601.772 422.543 600.131 418.942L597.318 412.221C477.991 412.461 462.284 413.181 461.581 415.342C460.877 417.022 459.94 426.144 459.471 435.265ZM977.569 551.923C969.598 556.004 958.111 563.205 951.781 567.526C942.169 574.487 940.528 575.207 939.825 571.366C939.356 569.206 937.481 562.005 935.84 555.524C933.495 547.362 930.917 543.282 927.166 541.842C924.352 540.641 903.488 539.921 880.513 540.161L839.253 540.881C840.191 890.616 841.128 942.464 843.004 944.864C845.114 947.265 857.773 947.985 895.517 947.745C937.715 947.745 945.686 947.265 946.624 944.144C947.327 942.224 947.796 877.174 947.796 799.402L947.561 658.5C956.001 650.578 962.8 646.018 968.192 643.137C973.818 640.497 984.367 636.416 991.635 634.496C999.137 632.576 1011.09 630.895 1018.13 630.895C1025.86 630.895 1035.24 632.816 1041.57 635.936C1047.43 638.577 1055.17 643.617 1058.68 647.218C1062.43 650.818 1067.36 657.54 1069.7 662.1C1072.05 666.661 1075.33 674.822 1076.97 680.103C1079.31 687.304 1080.25 721.39 1081.42 818.125L1082.6 946.545C1155.27 947.505 1178.71 947.265 1181.53 946.545L1186.92 945.344L1185.75 644.097C1175.9 614.333 1168.63 598.73 1163.01 590.329C1157.38 581.688 1148.24 570.646 1142.38 565.365C1136.51 560.324 1125.5 552.883 1117.76 549.043C1110.02 545.202 1097.36 540.641 1089.63 538.481C1081.19 536.321 1065.95 534.88 1052.12 535.12C1037.35 535.12 1021.88 537.041 1010.39 539.921C1000.54 542.322 985.774 547.842 977.569 551.923V551.923ZM530.504 508.476C531.911 508.476 535.427 517.358 538.709 528.159C541.991 539.201 555.823 586.248 569.654 632.816C583.72 679.383 594.504 718.029 594.036 718.509C593.567 719.229 564.731 719.709 530.035 719.709C495.573 719.709 467.207 718.989 467.207 717.789C467.207 716.829 480.57 670.262 496.746 614.093C513.156 557.924 526.753 511.357 527.456 510.157C527.925 509.196 529.332 508.476 530.504 508.476V508.476Z" fill="white"/>
</svg>
