<svg width="1600" height="1294" viewBox="0 0 1600 1294" fill="none" xmlns="http://www.w3.org/2000/svg">
<path fill-rule="evenodd" clip-rule="evenodd" d="M780.22 112.033C784.476 112.121 790.284 112.514 793.077 112.906C795.87 113.299 800.746 114.26 803.938 115.045C807.13 115.831 812.095 117.402 815.021 118.581C817.947 119.716 821.849 121.418 823.666 122.422C825.484 123.382 828.498 125.172 830.316 126.394C832.134 127.616 938.798 208.19 1067.27 305.394C1195.75 402.598 1303.88 484.482 1307.51 487.363C1311.19 490.287 1317.35 495.438 1321.26 498.799C1325.2 502.203 1331.81 508.183 1336.02 512.111C1340.23 516.04 1346.88 522.63 1350.83 526.69C1354.77 530.749 1360.45 536.86 1363.46 540.221C1366.43 543.581 1370.73 548.514 1372.95 551.133C1375.16 553.751 1379.24 558.771 1382.04 562.263C1384.78 565.755 1388.91 571.123 1391.21 574.266C1393.52 577.409 1397.91 583.563 1400.97 588.015C1404.03 592.467 1408.59 599.32 1411.07 603.292C1413.6 607.264 1417.81 614.204 1420.47 618.787C1423.13 623.37 1427.88 632.1 1430.98 638.21C1434.13 644.321 1438.25 652.789 1440.11 656.979C1442.02 661.169 1445.21 668.764 1447.21 673.783C1449.24 678.803 1452.44 687.358 1454.3 692.77C1456.16 698.183 1458.73 706.214 1460.06 710.666C1461.39 715.118 1463.16 721.403 1464.01 724.633C1464.85 727.863 1466.45 734.542 1467.55 739.474C1468.62 744.406 1470.13 751.782 1470.88 755.842C1471.63 759.901 1472.74 766.71 1473.32 770.9C1473.94 775.091 1474.74 781.201 1475.09 784.431C1475.49 787.661 1476.11 793.946 1476.51 798.399C1476.95 803.418 1477.31 813.719 1477.44 825.46C1477.57 837.333 1477.48 847.808 1477.17 853.395C1476.91 858.327 1476.38 865.573 1475.98 869.545C1475.62 873.517 1474.82 880.588 1474.2 885.258C1473.63 889.928 1472.52 897.305 1471.77 901.626C1471.01 905.947 1469.73 912.844 1468.88 916.903C1468.04 920.962 1466.31 928.251 1465.12 933.053C1463.87 937.854 1461.83 945.405 1460.5 949.857C1459.17 954.309 1456.74 961.948 1455.01 966.88C1453.32 971.812 1450.57 979.276 1448.93 983.466C1447.29 987.656 1444.55 994.465 1442.77 998.525C1441 1002.58 1438.12 1009 1436.39 1012.71C1434.61 1016.42 1431.11 1023.4 1428.59 1028.21C1426.1 1033.01 1422.33 1039.9 1420.3 1043.48C1418.21 1047.1 1414.75 1052.87 1412.63 1056.36C1410.45 1059.85 1407.04 1065.22 1404.96 1068.36C1402.92 1071.5 1399.41 1076.57 1397.2 1079.71C1394.98 1082.85 1390.81 1088.53 1387.89 1092.37C1384.96 1096.21 1380.22 1102.19 1377.38 1105.68C1374.5 1109.17 1369.71 1114.76 1366.74 1118.12C1363.77 1121.48 1357.39 1128.33 1352.55 1133.4C1347.72 1138.46 1339.52 1146.54 1334.29 1151.38C1329.1 1156.18 1321.97 1162.64 1318.42 1165.7C1314.87 1168.75 1309.02 1173.6 1305.38 1176.52C1301.79 1179.45 1295.9 1184.07 1292.31 1186.78C1288.76 1189.44 1282.95 1193.72 1279.41 1196.21C1275.86 1198.69 1269.87 1202.8 1266.11 1205.29C1262.34 1207.82 1255.56 1212.14 1251.03 1214.89C1246.51 1217.68 1239.33 1221.87 1235.07 1224.27C1230.82 1226.72 1223.5 1230.64 1218.89 1233.05C1214.28 1235.45 1206.48 1239.29 1201.6 1241.56C1196.73 1243.83 1189.54 1247.06 1185.64 1248.76C1181.74 1250.42 1174.25 1253.47 1169.02 1255.52C1163.79 1257.58 1155.9 1260.5 1151.51 1262.07C1147.12 1263.64 1140.02 1266 1135.77 1267.4C1131.51 1268.75 1123.53 1271.15 1118.04 1272.72C1112.54 1274.25 1102.87 1276.78 1096.53 1278.31C1090.19 1279.84 1080.62 1281.97 1075.25 1283.07C1069.89 1284.11 1061.2 1285.73 1055.97 1286.56C1050.74 1287.43 1042.76 1288.61 1038.24 1289.22C1033.71 1289.79 1026.13 1290.66 1021.39 1291.14C1016.65 1291.66 1008.44 1292.36 1003.21 1292.71C997.982 1293.11 986.5 1293.59 977.722 1293.8C967.703 1294.07 956.088 1294.07 946.468 1293.8C938.045 1293.59 928.203 1293.19 924.523 1292.93C920.888 1292.67 915.479 1292.28 912.553 1292.06C909.627 1291.8 903.554 1291.18 899.032 1290.7C894.51 1290.22 887.328 1289.35 883.072 1288.74C878.816 1288.17 871.324 1286.99 866.447 1286.17C861.571 1285.34 853.103 1283.76 847.606 1282.67C842.109 1281.54 832.932 1279.49 827.213 1278.09C821.494 1276.69 812.317 1274.25 806.82 1272.68C801.323 1271.15 793.343 1268.75 789.087 1267.4C784.831 1266 777.427 1263.51 772.684 1261.85C767.94 1260.15 759.65 1257.05 754.286 1254.96C748.921 1252.82 740.853 1249.5 736.331 1247.54C731.809 1245.57 722.721 1241.34 716.16 1238.15C709.598 1234.92 700.909 1230.47 696.875 1228.29C692.841 1226.11 685.348 1221.83 680.25 1218.77C675.152 1215.76 666.862 1210.61 661.852 1207.34C656.842 1204.11 650.193 1199.61 647.001 1197.34C643.809 1195.12 638.843 1191.49 635.917 1189.31C632.991 1187.17 628.115 1183.42 625.056 1181.02C621.997 1178.62 617.032 1174.6 613.973 1172.07C610.914 1169.54 605.461 1164.82 601.781 1161.59C598.146 1158.32 590.654 1151.38 585.201 1146.06C579.792 1140.77 571.679 1132.52 567.202 1127.72C562.724 1122.92 556.606 1116.11 553.592 1112.62C550.621 1109.13 545.833 1103.32 542.996 1099.74C540.159 1096.17 535.77 1090.49 533.287 1087.13C530.805 1083.77 525.928 1076.79 522.426 1071.64C518.924 1066.48 514.003 1058.8 511.476 1054.61C508.904 1050.42 505.092 1043.88 503.008 1040.08C500.88 1036.32 497.112 1029.25 494.674 1024.36C492.191 1019.52 488.777 1012.49 487.093 1008.78C485.408 1005.07 482.792 999.179 481.329 995.688C479.866 992.196 477.295 985.823 475.655 981.502C474.015 977.181 471.222 969.324 469.448 964.043C467.719 958.761 465.104 949.944 463.685 944.401C462.222 938.858 460.36 931.132 459.518 927.16C458.675 923.188 457.345 916.423 456.592 912.102C455.838 907.781 454.73 900.448 454.154 895.821C453.533 891.238 452.824 883.774 452.602 879.235C452.292 873.648 452.292 868.279 452.602 862.125C452.868 857.192 453.356 849.816 453.755 845.757C454.154 841.697 454.819 835.368 455.218 831.789C455.661 828.167 456.016 825.198 455.971 825.155C455.927 825.111 390.27 877.925 310.028 942.568C229.786 1007.21 162.533 1061.16 160.627 1062.56C158.721 1063.91 155.13 1066.27 152.691 1067.75C150.253 1069.28 145.864 1071.72 142.938 1073.21C140.012 1074.73 135.535 1076.83 132.963 1077.88C130.392 1078.92 126.136 1080.54 123.432 1081.41C120.772 1082.33 115.851 1083.68 112.57 1084.51C109.29 1085.3 104.192 1086.3 101.266 1086.74C97.054 1087.39 93.5517 1087.57 84.4192 1087.57C75.464 1087.52 71.9174 1087.35 68.4594 1086.78C66.0211 1086.34 62.1198 1085.52 59.8145 1084.95C57.5092 1084.38 53.8296 1083.29 51.613 1082.5C49.4407 1081.76 46.0271 1080.41 44.0764 1079.54C42.1258 1078.62 38.9339 1076.96 36.9832 1075.78C35.0326 1074.6 31.9736 1072.64 30.2447 1071.33C28.4713 1070.06 25.5011 1067.58 23.6391 1065.87C21.7771 1064.13 19.0285 1061.2 17.4768 1059.41C15.9695 1057.62 13.7529 1054.66 12.5116 1052.87C11.2703 1051.08 9.2753 1047.63 8.07832 1045.23C6.83701 1042.83 5.3297 1039.47 4.70904 1037.81C4.04405 1036.15 3.0244 1032.88 2.40374 1030.61C1.82742 1028.34 0.985096 1024.41 0.586102 1021.88C0.00977748 1018.25 -0.0788879 1015.15 0.0541101 1007.25C0.231441 1000.36 0.541769 995.906 1.07376 993.069C1.47276 990.799 2.49241 986.565 3.29039 983.684C4.08838 980.804 5.50703 976.482 6.39368 974.082C7.28033 971.681 9.5413 966.662 11.4033 962.952C13.2652 959.242 16.7232 953.349 19.0728 949.857C21.4668 946.365 24.7474 941.87 26.3877 939.818C28.028 937.767 32.5056 933.053 36.2739 929.299C40.0865 925.589 45.0961 921.049 47.4014 919.216C49.7067 917.427 170.824 825.94 316.501 715.904C462.178 605.911 581.699 515.647 582.053 515.341C582.585 514.817 557.404 514.774 431.987 514.992C313.53 515.21 280.104 515.123 275.936 514.686C273.01 514.425 269.109 513.901 267.291 513.552C265.474 513.202 262.37 512.504 260.42 512.024C258.469 511.544 254.967 510.409 252.662 509.58C250.356 508.707 246.854 507.266 244.903 506.306C242.953 505.346 239.672 503.469 237.588 502.159C235.505 500.806 232.269 498.449 230.362 496.834C228.456 495.263 225.929 492.862 224.776 491.553C223.624 490.244 221.762 487.974 220.698 486.533C219.634 485.093 217.816 482.169 216.663 479.986C215.511 477.804 214.004 474.312 213.25 472.13C212.541 469.947 211.565 466.324 211.166 464.055C210.59 460.825 210.501 458.337 210.679 452.706C210.856 447.905 211.225 444.268 211.787 441.794C212.275 439.743 213.206 436.513 213.826 434.592C214.491 432.672 216.176 428.743 217.639 425.863C219.057 422.982 221.407 418.879 222.87 416.697C224.333 414.514 227.126 410.891 229.077 408.622C230.983 406.352 234.175 403.035 236.081 401.245C237.987 399.456 241.179 396.749 243.13 395.178C245.081 393.65 248.893 390.944 251.553 389.198C254.213 387.452 258.514 384.965 261.085 383.611C263.656 382.302 267.823 380.338 270.395 379.247C272.966 378.155 277.532 376.497 280.591 375.537C283.65 374.576 288.438 373.31 291.231 372.699C294.024 372.045 298.635 371.215 301.428 370.779C306.082 370.124 313.131 370.037 381.67 369.906C422.988 369.819 557.271 369.6 903.332 369.12L807.086 292.082C750.916 247.124 709.199 213.384 706.85 211.114C704.677 208.932 701.84 205.702 700.554 203.913C699.313 202.123 697.363 198.762 696.254 196.492C695.146 194.223 693.727 190.6 693.062 188.417C692.131 185.231 691.865 183.267 691.688 177.942C691.511 173.01 691.644 170.478 692.176 167.685C692.53 165.633 693.284 162.709 693.816 161.137C694.304 159.566 695.545 156.642 696.52 154.59C697.451 152.539 699.402 149.222 700.776 147.17C702.15 145.119 705.298 141.409 707.736 138.921C710.175 136.433 713.766 133.159 715.716 131.675C717.667 130.147 720.859 127.965 722.809 126.743C724.76 125.564 728.129 123.731 730.346 122.64C732.563 121.549 736.242 119.934 738.548 119.017C740.853 118.144 745.064 116.747 747.857 115.962C750.65 115.176 755.438 114.085 758.497 113.605C761.556 113.081 765.945 112.47 768.25 112.252C770.556 112.033 775.964 111.946 780.22 112.033V112.033ZM937.601 515.559C934.055 515.821 927.671 516.432 923.415 516.912C919.159 517.393 912.154 518.353 907.898 519.051C903.642 519.75 897.125 520.928 893.49 521.67C889.811 522.412 884.047 523.722 880.634 524.551C877.22 525.424 871.634 526.864 868.221 527.868C864.807 528.828 858.733 530.705 854.699 532.015C850.665 533.324 843.084 536.074 837.853 538.125C832.621 540.177 824.509 543.625 819.898 545.72C815.243 547.859 808.283 551.307 804.382 553.402C800.48 555.454 794.274 558.902 790.638 561.084C786.959 563.223 780.708 567.195 776.674 569.858C772.639 572.52 766.566 576.798 763.197 579.286C759.783 581.817 753.887 586.4 750.118 589.543C746.306 592.642 739.257 599.058 734.38 603.728C729.548 608.399 723.43 614.597 720.859 617.478C718.243 620.358 714.608 624.461 712.835 626.644C711.017 628.826 707.426 633.322 704.855 636.683C702.283 640.044 698.382 645.456 696.166 648.686C693.949 651.916 690.092 657.939 687.609 661.999C685.082 666.058 681.225 673.041 678.92 677.494C676.659 681.946 673.512 688.537 671.916 692.116C670.364 695.738 667.926 701.718 666.551 705.428C665.133 709.138 663.049 715.336 661.852 719.177C660.699 723.018 658.926 729.391 657.906 733.363C656.931 737.335 655.557 743.708 654.803 747.549C654.094 751.39 653.074 757.675 652.587 761.516C652.099 765.357 651.478 770.857 651.212 773.737C650.946 776.618 650.636 783.689 650.459 789.451C650.326 795.692 650.414 803.331 650.725 808.438C650.991 813.108 651.523 819.612 651.922 822.841C652.276 826.071 652.986 831.266 653.473 834.408C653.961 837.551 654.848 842.527 655.468 845.538C656.089 848.55 657.463 854.53 658.571 858.851C659.724 863.172 661.985 870.723 663.625 875.656C665.266 880.588 667.748 887.266 669.078 890.496C670.408 893.726 672.758 899.051 674.265 902.281C675.772 905.511 678.388 910.836 680.117 914.066C681.846 917.296 684.949 922.795 687.033 926.287C689.117 929.779 693.195 936.152 696.166 940.473C699.091 944.794 703.613 950.992 706.14 954.222C708.667 957.452 712.879 962.559 715.45 965.57C718.022 968.582 723.829 974.737 728.351 979.276C732.873 983.815 738.769 989.49 741.429 991.934C744.133 994.335 748.744 998.306 751.626 1000.71C754.552 1003.11 760.138 1007.43 764.039 1010.31C767.94 1013.19 773.836 1017.34 777.117 1019.52C780.398 1021.7 785.452 1024.89 788.289 1026.59C791.17 1028.34 795.958 1031.09 798.929 1032.74C801.943 1034.36 807.795 1037.42 811.918 1039.42C816.041 1041.47 821.937 1044.22 824.996 1045.58C828.055 1046.89 833.508 1049.16 837.188 1050.6C840.823 1052.04 847.429 1054.44 851.817 1055.92C856.206 1057.41 863.477 1059.63 867.999 1060.94C872.521 1062.21 879.703 1064.04 883.959 1065C888.215 1065.96 894.997 1067.36 899.032 1068.1C903.066 1068.84 909.14 1069.8 912.553 1070.28C915.967 1070.76 921.464 1071.46 924.745 1071.81C928.025 1072.16 933.922 1072.73 937.823 1073.03C942.212 1073.38 951.876 1073.6 963.314 1073.56C976.703 1073.56 984.062 1073.34 990.357 1072.81C995.101 1072.38 1002.19 1071.68 1006.1 1071.15C1010 1070.67 1015.58 1069.89 1018.51 1069.41C1021.43 1068.93 1026.93 1067.97 1030.7 1067.23C1034.47 1066.48 1041.47 1064.96 1046.22 1063.78C1050.96 1062.6 1058.27 1060.64 1062.4 1059.41C1066.52 1058.15 1072.73 1056.18 1076.14 1054.96C1079.55 1053.78 1085.85 1051.38 1090.11 1049.72C1094.36 1048.02 1101.45 1044.97 1105.84 1042.96C1110.23 1040.95 1117.02 1037.59 1120.92 1035.54C1124.82 1033.44 1130.49 1030.3 1133.55 1028.51C1136.61 1026.72 1141.89 1023.45 1145.3 1021.27C1148.71 1019.04 1154.08 1015.42 1157.27 1013.15C1160.46 1010.88 1165.91 1006.73 1169.46 1003.94C1173.01 1001.14 1177.97 997.041 1180.54 994.815C1183.12 992.632 1189.37 986.74 1194.46 981.808C1199.56 976.832 1206.35 969.848 1209.49 966.225C1212.64 962.646 1217.83 956.23 1221.02 952.04C1224.26 947.849 1228.82 941.564 1231.13 938.072C1233.48 934.58 1237.07 928.906 1239.15 925.414C1241.24 921.922 1244.43 916.248 1246.29 912.756C1248.11 909.265 1250.81 903.896 1252.27 900.753C1253.74 897.611 1256.31 891.631 1257.99 887.441C1259.72 883.25 1262.16 876.659 1263.4 872.818C1264.69 868.977 1266.59 862.474 1267.7 858.415C1268.77 854.355 1270.23 848.157 1270.94 844.665C1271.65 841.174 1272.62 835.674 1273.16 832.444C1273.64 829.214 1274.35 823.802 1274.71 820.441C1275.11 817.08 1275.59 809.834 1275.86 804.291C1276.17 797.351 1276.17 791.24 1275.86 784.431C1275.59 779.019 1275.11 771.773 1274.71 768.281C1274.35 764.79 1273.55 758.723 1272.93 754.751C1272.31 750.779 1271.29 745.192 1270.72 742.311C1270.1 739.43 1268.81 733.93 1267.84 730.089C1266.82 726.248 1264.55 718.785 1262.78 713.503C1261.01 708.222 1258.44 701.238 1257.11 698.008C1255.78 694.778 1253.34 689.279 1251.7 685.787C1250.06 682.295 1247.13 676.533 1245.14 672.911C1243.19 669.331 1239.99 663.701 1238.04 660.471C1236.09 657.241 1232.9 652.221 1230.95 649.341C1229 646.46 1225.81 641.92 1223.86 639.302C1221.91 636.683 1218.71 632.536 1216.72 630.135C1214.77 627.735 1211.36 623.719 1209.18 621.188C1206.97 618.656 1201.47 612.894 1196.95 608.399C1192.43 603.859 1186.57 598.229 1183.87 595.872C1181.16 593.515 1176.82 589.761 1174.12 587.579C1171.41 585.353 1166.22 581.381 1162.59 578.674C1158.91 575.968 1153.77 572.258 1151.06 570.469C1148.36 568.635 1143.79 565.711 1140.87 563.921C1137.94 562.088 1132.84 559.12 1129.56 557.243C1126.28 555.366 1119.68 551.918 1114.93 549.561C1110.19 547.248 1103.41 544.062 1099.86 542.49C1096.31 540.963 1090.42 538.562 1086.78 537.165C1083.1 535.768 1076.63 533.455 1072.37 532.058C1068.12 530.662 1061.91 528.741 1058.63 527.781C1055.35 526.864 1049.76 525.38 1046.22 524.507C1042.67 523.634 1035.4 522.063 1030.03 521.015C1024.67 519.968 1016.69 518.615 1012.3 518.004C1007.91 517.393 1001.22 516.607 997.45 516.258C993.682 515.865 987.387 515.385 983.486 515.123C979.584 514.905 970.097 514.73 962.428 514.774C954.758 514.817 947.443 514.905 946.246 514.992C945.005 515.036 941.148 515.298 937.601 515.559V515.559ZM967.747 606.871C970.319 606.827 976.215 607.002 980.826 607.22C985.436 607.482 992.441 608.05 996.342 608.53C1000.24 609.01 1006.23 609.883 1009.64 610.494C1013.06 611.105 1017.93 612.109 1020.5 612.72C1023.07 613.331 1028.26 614.684 1032.03 615.775C1035.8 616.866 1041.47 618.743 1044.66 619.878C1047.86 621.057 1052.73 622.977 1055.53 624.156C1058.32 625.334 1063.82 627.866 1067.72 629.83C1071.62 631.794 1076.98 634.675 1079.69 636.246C1082.39 637.861 1086.47 640.393 1088.78 641.92C1091.08 643.404 1095.16 646.285 1097.86 648.249C1100.57 650.257 1104.51 653.356 1106.73 655.189C1108.9 657.023 1112.98 660.689 1115.77 663.308C1118.52 665.97 1123 670.554 1125.7 673.565C1128.36 676.577 1132.58 681.684 1135.06 684.914C1137.5 688.144 1141.27 693.556 1143.44 696.917C1145.57 700.278 1148.98 706.258 1151.02 710.23C1153.06 714.202 1155.76 719.788 1156.96 722.669C1158.16 725.55 1160.06 730.657 1161.17 734.018C1162.28 737.379 1163.79 742.485 1164.54 745.366C1165.25 748.247 1166.36 753.267 1166.98 756.496C1167.6 759.726 1168.4 765.27 1168.75 768.849C1169.19 772.69 1169.46 779.281 1169.46 785.217C1169.46 790.673 1169.24 797.395 1169.02 800.144C1168.75 802.894 1168.04 808.219 1167.42 811.929C1166.85 815.64 1165.74 821.139 1164.98 824.151C1164.23 827.163 1162.63 832.662 1161.39 836.372C1160.15 840.082 1158.2 845.407 1157.05 848.157C1155.9 850.907 1153.55 855.927 1151.82 859.288C1150.13 862.648 1147.69 867.188 1146.41 869.327C1145.08 871.465 1142.64 875.306 1140.96 877.838C1139.23 880.37 1136.34 884.385 1134.48 886.786C1132.62 889.186 1129.34 893.202 1127.12 895.734C1124.95 898.265 1120.87 902.586 1118.04 905.336C1115.24 908.086 1110.63 912.276 1107.84 914.677C1105.05 917.034 1100.35 920.744 1097.42 922.883C1094.49 925.065 1090.19 928.077 1087.89 929.561C1085.58 931.089 1081.51 933.62 1078.8 935.235C1076.1 936.85 1069.54 940.255 1064.17 942.874C1058.81 945.449 1052.02 948.504 1049.1 949.639C1046.17 950.774 1040.76 952.694 1037.13 953.873C1033.45 955.051 1026.98 956.928 1022.72 957.976C1018.46 959.023 1011.37 960.507 1006.98 961.206C1002.59 961.904 995.899 962.864 992.13 963.257C986.943 963.825 981.446 963.999 969.742 963.999C958.127 963.999 952.497 963.825 947.354 963.257C943.586 962.821 937.38 961.991 933.611 961.38C929.843 960.769 924.168 959.678 920.976 958.98C917.785 958.281 912.42 956.885 909.007 955.924C905.593 954.964 900.317 953.262 897.258 952.171C894.199 951.079 889.323 949.246 886.397 948.024C883.471 946.845 877.796 944.227 873.762 942.219C869.728 940.255 864.142 937.287 861.349 935.672C858.556 934.057 853.458 930.827 850.044 928.557C846.631 926.287 841.754 922.839 839.227 920.875C836.7 918.954 832.178 915.244 829.252 912.713C826.282 910.181 821.804 905.947 819.233 903.328C816.662 900.71 813.071 896.781 811.209 894.642C809.391 892.46 806.509 888.925 804.825 886.786C803.14 884.647 800.126 880.413 798.131 877.401C796.136 874.39 793.343 869.981 791.968 867.581C790.55 865.18 788.555 861.557 787.535 859.506C786.471 857.454 784.521 853.264 783.191 850.121C781.861 846.979 779.91 842.09 778.89 839.209C777.915 836.329 776.408 831.527 775.565 828.516C774.723 825.504 773.526 820.615 772.95 817.604C772.329 814.592 771.531 809.791 771.132 806.91C770.777 804.029 770.245 798.137 770.024 793.816C769.713 788.578 769.713 783.34 770.024 778.102C770.29 773.781 770.777 767.801 771.176 764.79C771.531 761.778 772.462 756.409 773.216 752.786C773.925 749.207 775.388 743.315 776.452 739.692C777.516 736.113 779.334 730.7 780.486 727.689C781.639 724.677 783.811 719.57 785.318 716.34C786.826 713.11 789.441 708.004 791.17 704.992C792.855 701.98 795.604 697.484 797.288 694.953C798.929 692.421 801.677 688.493 803.406 686.223C805.091 683.953 808.327 679.894 810.588 677.275C812.805 674.656 816.662 670.423 819.1 667.891C821.538 665.359 825.883 661.256 828.764 658.725C831.602 656.193 836.079 652.527 838.695 650.519C841.266 648.511 846.808 644.67 850.931 641.92C855.054 639.214 860.861 635.679 863.787 634.02C866.713 632.405 872.299 629.568 876.2 627.691C880.102 625.858 886.574 623.064 890.609 621.493C894.643 619.922 900.894 617.739 904.573 616.605C908.209 615.47 914.415 613.811 918.317 612.894C922.218 611.934 928.291 610.668 931.838 610.101C935.385 609.49 940.97 608.704 944.251 608.311C947.532 607.919 953.118 607.438 956.664 607.264C960.211 607.089 965.176 606.871 967.747 606.871V606.871Z" fill="white"/>
</svg>
