<svg width="1600" height="1268" viewBox="0 0 1600 1268" fill="none" xmlns="http://www.w3.org/2000/svg">
<path fill-rule="evenodd" clip-rule="evenodd" d="M740.702 139.044C748.61 139.126 751.838 139.329 755.631 140.02C758.294 140.468 762.288 141.322 764.507 141.891C766.726 142.501 770.277 143.599 772.375 144.413C774.473 145.226 777.499 146.528 779.072 147.341C780.646 148.154 875.018 202.977 988.798 269.187C1140.46 357.44 1196.83 390.423 1199.98 392.823C1202.36 394.572 1206.55 398.354 1209.34 401.16C1212.16 403.966 1215.91 408.277 1217.73 410.718C1219.54 413.158 1222.45 417.753 1224.22 420.885C1226 424.017 1228.3 428.49 1229.35 430.849C1230.36 433.208 1232.01 437.519 1232.94 440.406C1233.91 443.335 1235.04 447.605 1235.52 449.964C1235.97 452.323 1236.53 456.268 1236.77 458.708C1237.06 461.677 1237.18 544.073 1237.18 703.539C1237.18 863.005 1237.06 945.401 1236.77 948.37C1236.53 950.851 1235.97 954.756 1235.52 957.114C1235.04 959.473 1233.91 963.743 1232.94 966.672C1232.01 969.6 1230.32 973.952 1229.23 976.432C1228.14 978.913 1226.08 982.899 1224.71 985.38C1223.3 987.861 1220.96 991.602 1219.46 993.717C1218.01 995.832 1215.51 999.126 1213.94 1001.04C1212.36 1002.95 1209.34 1006.16 1207.28 1008.15C1205.18 1010.15 1202.11 1012.83 1200.46 1014.05C1198.81 1015.31 1196.55 1016.9 1195.42 1017.59C1194.33 1018.28 1100.64 1072.82 987.225 1138.83C873.808 1204.79 779.96 1259.33 778.629 1259.98C777.297 1260.67 774.473 1261.89 772.375 1262.67C770.277 1263.48 766.726 1264.58 764.507 1265.19C762.288 1265.76 758.213 1266.65 755.429 1267.14C751.071 1267.87 748.852 1267.99 739.088 1267.99C729.243 1268.03 727.145 1267.91 722.748 1267.14C719.964 1266.65 715.888 1265.76 713.669 1265.19C711.45 1264.58 707.9 1263.48 705.802 1262.67C703.704 1261.89 700.355 1260.39 698.337 1259.33C696.36 1258.27 601.826 1203.37 488.329 1137.32C374.832 1071.27 280.5 1016.21 278.765 1014.91C276.99 1013.65 273.48 1010.64 270.938 1008.15C268.396 1005.67 264.845 1001.85 263.07 999.614C261.295 997.377 258.793 994.002 257.542 992.09C256.251 990.179 254.113 986.641 252.781 984.16C251.45 981.679 249.433 977.571 248.343 975.009C247.254 972.447 245.721 968.339 244.914 965.858C244.147 963.377 243.138 959.473 242.654 957.114C242.21 954.756 241.646 950.851 241.403 948.37C241.121 945.401 241 863.005 241 703.539C241 544.073 241.121 461.677 241.403 458.708C241.646 456.268 242.21 452.323 242.654 449.964C243.138 447.605 244.268 443.335 245.236 440.406C246.164 437.519 247.94 432.923 249.11 430.239C250.32 427.555 252.741 422.919 254.516 419.909C256.292 416.94 259.197 412.548 260.932 410.148C262.707 407.789 266.701 403.275 269.808 400.143C272.955 397.012 276.95 393.433 278.725 392.172C280.5 390.871 374.832 335.804 488.329 269.757C601.826 203.709 696.32 148.805 698.337 147.748C700.355 146.69 703.784 145.145 706.003 144.331C708.222 143.518 712.136 142.298 714.678 141.688C717.22 141.037 721.214 140.224 723.554 139.898C725.895 139.532 728.437 139.166 729.203 139.085C729.97 139.004 735.175 138.963 740.702 139.044ZM711.652 370.495C707.416 370.821 700.637 371.553 696.522 372.081C692.406 372.651 686.354 373.546 683.005 374.115C679.697 374.684 673.968 375.823 670.296 376.596C666.624 377.368 661.46 378.589 658.797 379.239C656.134 379.931 650.606 381.435 646.491 382.656C642.376 383.876 635.839 385.95 631.966 387.292C628.093 388.634 622.363 390.708 619.257 391.928C616.15 393.148 610.905 395.344 607.556 396.809C604.247 398.273 598.881 400.713 595.653 402.258C592.426 403.804 586.979 406.61 583.549 408.481C580.12 410.352 574.673 413.402 571.445 415.313C568.217 417.184 561.963 421.17 557.525 424.098C553.087 427.067 546.994 431.256 544.009 433.452C541.023 435.689 535.576 439.918 531.904 442.847C528.233 445.816 522.786 450.411 519.8 453.055C516.815 455.698 510.077 462.165 504.831 467.411C499.627 472.698 493.211 479.49 490.589 482.5C487.966 485.509 483.407 490.999 480.462 494.7C477.557 498.401 473.36 503.892 471.141 506.901C468.963 509.911 464.807 516.052 461.861 520.526C458.956 524.999 455.002 531.303 453.146 534.557C451.25 537.81 448.224 543.301 446.368 546.758C444.512 550.214 441.728 555.705 440.195 558.958C438.662 562.212 436.241 567.58 434.788 570.956C433.336 574.291 431.157 579.619 429.947 582.75C428.736 585.882 426.679 591.657 425.347 595.561C424.016 599.465 421.958 606.054 420.748 610.202C419.537 614.351 418.044 619.922 417.358 622.606C416.713 625.291 415.502 630.496 414.736 634.197C413.969 637.898 412.839 643.633 412.275 647.008C411.71 650.343 410.822 656.484 410.257 660.633C409.733 664.781 408.966 671.735 408.563 676.087C407.998 682.472 407.836 687.881 407.836 703.946C407.836 719.766 407.998 725.419 408.563 731.398C408.966 735.546 409.652 741.85 410.096 745.429C410.54 749.008 411.508 755.678 412.315 760.273C413.082 764.869 414.292 771.091 414.937 774.101C415.623 777.11 416.793 782.154 417.56 785.285C418.327 788.417 419.618 793.175 420.384 795.859C421.151 798.543 422.886 804.115 424.258 808.263C425.589 812.412 427.929 819 429.422 822.904C430.915 826.809 433.457 833.153 435.071 836.936C436.725 840.718 440.155 848.038 442.737 853.203C445.319 858.368 449.233 865.77 451.452 869.675C453.711 873.579 457.222 879.476 459.32 882.77C461.418 886.105 465.251 891.84 467.833 895.581C470.415 899.363 474.692 905.179 477.315 908.555C479.937 911.971 484.537 917.624 487.522 921.162C490.508 924.741 498.053 932.753 504.267 939.057C510.48 945.32 518.186 952.763 521.414 955.569C524.642 958.334 529.887 962.727 533.115 965.33C536.343 967.892 541.709 971.999 545.017 974.44C548.366 976.839 553.894 980.703 557.323 982.94C560.753 985.217 566.482 988.837 570.033 990.952C573.583 993.066 579.756 996.564 583.751 998.719C587.745 1000.87 594.201 1004.13 598.074 1005.96C601.948 1007.79 607.959 1010.43 611.389 1011.9C614.818 1013.32 620.749 1015.68 624.502 1017.1C628.254 1018.53 634.548 1020.68 638.422 1021.94C642.295 1023.16 648.468 1025.03 652.14 1026.05C655.811 1027.03 661.984 1028.57 665.858 1029.47C669.731 1030.36 676.55 1031.74 680.988 1032.56C685.426 1033.33 692.406 1034.43 696.522 1035C700.637 1035.53 707.537 1036.3 711.854 1036.7C718.188 1037.31 723.433 1037.44 739.088 1037.44C754.38 1037.4 760.028 1037.27 765.919 1036.7C770.035 1036.3 776.288 1035.61 779.839 1035.16C783.39 1034.71 789.926 1033.74 794.364 1032.96C798.802 1032.19 805.782 1030.85 809.898 1029.91C814.013 1029.02 820.993 1027.27 825.432 1026.05C829.87 1024.83 836.85 1022.76 840.965 1021.41C845.081 1020.07 851.617 1017.75 855.49 1016.29C859.364 1014.82 865.375 1012.38 868.805 1010.92C872.235 1009.46 878.69 1006.49 883.128 1004.33C887.567 1002.14 893.659 999.045 896.645 997.377C899.63 995.751 905.44 992.375 909.556 989.894C913.671 987.454 920.127 983.346 923.879 980.784C927.631 978.222 933.926 973.748 937.799 970.82C941.672 967.851 947.603 963.174 950.912 960.409C954.261 957.602 958.78 953.657 960.999 951.665C963.218 949.631 968.1 944.954 971.852 941.253C975.564 937.552 981.132 931.777 984.158 928.402C987.184 925.067 991.38 920.186 993.519 917.624C995.657 915.103 999.006 910.873 1001.02 908.311C1003 905.749 1006.43 901.072 1008.69 897.94C1010.91 894.808 1014.46 889.603 1016.6 886.349C1018.7 883.096 1021.68 878.337 1023.25 875.775L1026.08 871.098C915.487 806.474 883.249 787.766 883.048 787.766C882.886 787.807 881.555 789.718 880.143 792.036C878.73 794.354 876.148 798.299 874.413 800.74C872.678 803.18 869.693 807.125 867.796 809.484C865.86 811.842 862.551 815.665 860.413 817.983C858.234 820.342 854.401 824.165 851.859 826.524C849.317 828.842 845.323 832.299 842.983 834.17C840.643 836.041 836.85 838.928 834.51 840.596C832.17 842.223 828.256 844.825 825.835 846.33C823.414 847.835 818.855 850.397 815.748 852.024C812.641 853.651 807.84 855.969 805.056 857.189C802.272 858.409 796.745 860.524 792.75 861.907C788.756 863.289 782.583 865.16 779.032 866.014C775.482 866.909 769.954 868.048 766.726 868.617C763.498 869.146 758.697 869.837 756.034 870.163C753.089 870.488 746.431 870.691 739.088 870.691C731.745 870.691 725.088 870.488 722.142 870.163C719.479 869.837 714.678 869.187 711.45 868.617C708.222 868.088 702.695 866.909 699.144 866.014C695.594 865.16 689.421 863.289 685.426 861.907C681.432 860.524 675.904 858.409 673.12 857.189C670.336 855.969 665.535 853.651 662.428 852.024C659.321 850.397 654.722 847.794 652.22 846.249C649.719 844.703 645.402 841.816 642.577 839.782C639.793 837.749 635.194 834.211 632.41 831.852C629.626 829.493 624.784 825.019 621.677 821.888C618.571 818.756 614.294 814.079 612.155 811.517C610.017 808.955 606.668 804.644 604.731 801.96C602.795 799.275 599.728 794.72 597.953 791.792C596.138 788.864 592.99 783.211 590.973 779.185C588.956 775.158 586.212 769.017 584.881 765.56C583.509 762.103 581.774 757.223 581.007 754.783C580.2 752.343 578.95 747.747 578.143 744.615C577.376 741.484 576.246 736.278 575.681 733.025C575.117 729.771 574.39 724.565 574.067 721.434C573.745 718.302 573.341 712.446 573.22 708.419C573.059 704.149 573.14 698.049 573.422 693.778C573.704 689.752 574.269 683.814 574.713 680.561C575.157 677.307 576.085 672.02 576.73 668.767C577.416 665.513 578.788 660.023 579.797 656.566C580.765 653.109 582.581 647.618 583.832 644.365C585.082 641.111 587.1 636.271 588.31 633.587C589.521 630.903 591.699 626.511 593.152 623.827C594.564 621.142 597.227 616.587 599.043 613.74C600.858 610.894 603.844 606.461 605.74 603.898C607.637 601.336 610.824 597.31 612.882 594.87C614.899 592.47 619.539 587.549 623.17 583.97C626.802 580.351 632.208 575.47 635.194 573.03C638.179 570.631 643.747 566.564 647.5 564.042C651.252 561.521 655.973 558.552 657.99 557.454C660.007 556.315 663.235 554.566 665.253 553.549C667.27 552.573 671.224 550.703 674.129 549.482C677.034 548.222 682.36 546.188 686.031 544.927C689.703 543.667 695.594 541.918 699.144 541.064C702.695 540.169 708.222 538.99 711.45 538.461C714.678 537.892 719.479 537.241 722.142 536.916C725.209 536.59 731.664 536.387 739.693 536.427C750.547 536.427 753.412 536.55 759.262 537.363C763.014 537.851 768.38 538.746 771.164 539.274C773.948 539.844 778.306 540.82 780.848 541.511C783.39 542.203 787.505 543.382 789.926 544.195C792.347 544.968 797.188 546.717 800.618 548.1C804.047 549.442 810.14 552.207 814.134 554.281C818.129 556.315 823.737 559.446 826.642 561.277C829.547 563.066 834.066 566.157 836.729 568.109C839.392 570.061 843.104 572.949 845 574.576C846.896 576.162 850.326 579.212 852.626 581.327C854.966 583.442 858.759 587.305 861.099 589.867C863.398 592.43 867.151 596.822 869.33 599.628C871.549 602.434 875.341 607.721 877.722 611.422C880.143 615.123 882.321 618.458 882.604 618.824C883.088 619.434 890.31 615.327 954.543 577.829C993.801 554.892 1025.92 535.98 1025.88 535.777C1025.8 535.533 1024.47 533.215 1022.85 530.571C1021.28 527.968 1018.05 522.884 1015.67 519.306C1013.33 515.727 1009.5 510.155 1007.16 506.942C1004.86 503.729 1000.98 498.605 998.562 495.554C996.141 492.504 991.864 487.38 989.08 484.126C986.297 480.873 979.478 473.634 973.95 468.021C968.382 462.449 961.644 455.902 958.981 453.583C956.318 451.225 951.961 447.483 949.298 445.287C946.635 443.091 941.632 439.146 938.202 436.543C934.773 433.981 929.689 430.28 926.905 428.328C924.121 426.416 919.522 423.325 916.617 421.495C913.712 419.624 908.547 416.493 905.118 414.459C901.688 412.466 895.233 408.928 890.794 406.61C886.356 404.332 879.537 400.998 875.664 399.208C871.791 397.419 865.053 394.572 860.736 392.823C856.418 391.074 848.591 388.227 843.386 386.478C838.181 384.73 830.193 382.29 825.633 381.069C821.074 379.809 814.013 378.06 809.898 377.165C805.782 376.23 798.802 374.888 794.364 374.115C789.926 373.342 783.309 372.366 779.637 371.919C775.966 371.431 769.994 370.78 766.323 370.414C761.763 369.967 754.057 369.763 741.913 369.682C732.148 369.601 723.07 369.601 721.739 369.682C720.407 369.763 715.888 370.129 711.652 370.495V370.495ZM997.513 685.034H960.394V722.044H997.513V759.053H1033.83V722.044H1070.54V685.034H1033.83V648.025H997.513V685.034ZM1135.5 685.034H1098.78V722.044H1135.5V759.053H1172.22V722.044H1208.93V685.034H1172.22V648.025H1135.5V685.034Z" fill="white"/>
</svg>
