<svg width="1600" height="1341" viewBox="0 0 1600 1341" fill="none" xmlns="http://www.w3.org/2000/svg">
<path fill-rule="evenodd" clip-rule="evenodd" d="M738.107 66.0094C746.143 65.9228 754.089 66.4425 759.089 67.2221C763.554 68.0017 770.518 69.5609 774.714 70.7736C778.911 71.9863 785.518 74.4984 789.446 76.2308C793.375 78.0499 905.518 138.859 1038.55 211.361C1171.59 283.951 1283.91 345.452 1288.11 348.138C1292.48 350.909 1299.71 356.886 1305.07 362.084C1310.25 367.108 1316.32 373.951 1318.64 377.329C1320.87 380.707 1324.36 386.338 1326.32 389.889C1328.38 393.441 1331.41 400.457 1333.11 405.481C1334.8 410.505 1336.86 418.128 1337.66 422.373C1338.91 429.302 1339 460.053 1339 703.461C1339 946.869 1338.91 977.62 1337.66 984.55C1336.86 988.881 1334.8 996.417 1333.11 1001.44C1331.41 1006.47 1328.38 1013.48 1326.32 1017.03C1324.36 1020.58 1320.87 1026.3 1318.64 1029.59C1316.32 1032.89 1310.25 1039.81 1305.07 1044.84C1299.62 1050.12 1292.57 1056.01 1288.11 1058.79C1283.91 1061.47 1171.23 1123.23 1037.66 1195.99C904.089 1268.76 791.411 1329.83 787.214 1331.56C783.018 1333.29 776.411 1335.63 772.482 1336.67C768.554 1337.71 761.946 1339.18 757.75 1339.79C753.554 1340.48 745.161 1341 739 1341C732.839 1341 724.446 1340.48 720.25 1339.79C716.054 1339.18 709.446 1337.71 705.518 1336.67C701.589 1335.63 694.982 1333.29 690.786 1331.56C686.589 1329.83 573.911 1268.76 440.339 1195.99C306.768 1123.15 194.089 1061.38 189.893 1058.79C185.518 1056.01 178.286 1050.04 172.929 1044.75C167.75 1039.73 161.321 1032.37 158.554 1028.29C155.786 1024.22 152.214 1018.42 150.607 1015.3C149 1012.18 146.411 1005.77 144.714 1001.01C143.107 996.244 141.143 988.881 140.339 984.55C139.089 977.62 139 946.869 139 703.461C139 460.053 139.089 429.302 140.339 422.373C141.143 418.128 143.196 410.505 144.893 405.481C146.589 400.457 149.625 393.441 151.679 389.889C153.643 386.338 157.125 380.707 159.357 377.329C161.679 373.951 167.75 367.108 172.929 362.084C178.286 356.886 185.518 350.909 189.893 348.138C194.089 345.452 306.321 283.951 439.446 211.361C572.482 138.859 684.625 78.0499 688.554 76.2308C692.482 74.4984 699.089 71.9863 703.286 70.7736C707.482 69.5609 714.089 68.0017 718.018 67.3087C721.946 66.6158 730.964 66.0094 738.107 66.0094V66.0094ZM696.143 373.951C689.982 374.644 679 376.376 671.589 377.849C664.268 379.235 654 381.574 648.821 382.96C643.643 384.346 634.804 387.031 629.179 388.85C623.554 390.756 614.268 394.047 608.643 396.299C603.018 398.552 593.107 402.969 586.768 406.088C580.429 409.206 571.321 413.884 566.679 416.482C562.036 419.168 552.929 424.798 546.589 428.956C540.25 433.2 531.143 439.61 526.5 443.162C521.857 446.8 513.107 454.076 507.036 459.447C500.964 464.818 491.857 473.653 486.768 479.11C481.679 484.567 474.446 492.796 470.696 497.301C466.946 501.805 460.429 510.641 456.054 516.791C451.768 522.941 446.054 531.517 443.464 535.848C440.875 540.179 435.964 549.101 432.571 555.771C429.089 562.441 424.357 572.402 422.036 577.859C419.714 583.317 415.964 593.278 413.732 599.948C411.5 606.618 408.464 616.753 406.946 622.47C405.518 628.187 403.464 636.936 402.482 641.96C401.5 646.984 400.071 655.906 399.268 661.883C398.464 667.86 397.482 679.554 397.125 687.869C396.768 696.185 396.768 710.045 397.125 718.62C397.482 727.196 398.464 739.063 399.268 745.04C400.071 751.017 401.5 759.939 402.482 764.963C403.464 769.987 405.518 778.736 406.946 784.453C408.464 790.17 411.5 800.305 413.732 806.975C415.964 813.645 419.714 823.606 422.036 829.063C424.357 834.521 429.089 844.482 432.571 851.152C435.964 857.822 440.875 866.744 443.464 871.075C446.054 875.406 451.589 883.722 455.786 889.699C459.982 895.676 466.411 904.251 470.161 908.756C473.821 913.26 479.714 920.103 483.196 923.915C486.589 927.726 493.286 934.482 497.929 938.987C502.571 943.491 510.607 950.681 515.786 955.012C520.964 959.256 529.804 966.1 535.429 970.257C541.054 974.329 550.696 980.739 556.857 984.55C563.018 988.275 574.804 994.771 583.196 998.929C591.589 1003.17 603.821 1008.63 610.429 1011.23C617.036 1013.83 627.75 1017.55 634.089 1019.63C640.429 1021.62 650.339 1024.4 655.964 1025.7C661.589 1027.08 670.429 1028.99 675.607 1029.94C680.786 1030.89 689.804 1032.28 695.696 1032.97C701.589 1033.75 713.643 1034.7 722.482 1035.14C731.321 1035.57 745.607 1035.57 754.179 1035.14C762.75 1034.79 775.071 1033.84 781.411 1033.06C787.75 1032.28 797.214 1030.89 802.393 1029.94C807.571 1028.99 817.839 1026.74 825.161 1024.83C832.571 1023.01 843.196 1019.98 848.821 1018.07C854.446 1016.17 863.732 1012.88 869.357 1010.62C874.982 1008.37 885.429 1003.69 892.571 1000.23C899.714 996.764 909.357 991.653 914 988.881C918.643 986.196 926.054 981.605 930.518 978.66C934.982 975.801 940.964 971.643 943.911 969.478C946.857 967.312 952.839 962.635 957.304 959.083C961.768 955.532 970.696 947.476 977.304 941.326C983.821 935.089 992.661 926.08 996.946 921.316C1001.14 916.552 1006.05 910.921 1007.84 908.756L1011.05 904.858L887.214 835.127C873.018 848.034 864.893 854.704 859.982 858.255C855.071 861.893 846.411 867.437 840.786 870.642C835.161 873.934 826.5 878.265 821.589 880.43C816.679 882.509 809.625 885.368 805.964 886.58C802.304 887.88 794.804 890.045 789.446 891.518C784.089 892.904 774.179 894.81 767.571 895.762C759.089 896.975 750.875 897.495 739.625 897.495C730.339 897.495 719.357 896.888 712.839 896.109C706.857 895.329 696.679 893.424 690.339 891.864C684 890.305 674.714 887.533 669.804 885.801C664.893 883.982 657.482 881.037 653.286 879.131C649.089 877.225 641.5 873.327 636.411 870.382C631.321 867.437 623.286 862.153 618.554 858.688C613.821 855.223 606.411 849.16 602.036 845.262C597.661 841.364 590.607 834.174 586.411 829.237C582.214 824.299 575.607 815.724 571.768 810.18C567.929 804.636 562.214 794.934 559.089 788.784C555.964 782.634 551.589 772.239 549.357 765.829C547.125 759.419 544.536 750.67 543.554 746.339C542.571 742.008 541.143 733.952 540.429 728.322C539.625 722.605 539 711.777 539 703.461C539 695.146 539.625 684.318 540.429 678.514C541.143 672.97 542.571 664.915 543.554 660.583C544.536 656.252 547.036 647.677 549.179 641.527C551.321 635.376 555.25 625.761 557.929 620.304C560.607 614.847 565.161 606.618 568.018 602.114C570.964 597.609 576.321 589.986 580.071 585.222C583.732 580.458 591.232 572.229 596.589 566.945C601.946 561.661 609.625 554.905 613.554 551.873C617.482 548.841 624.893 543.644 630.071 540.352C635.25 537.06 644.714 531.863 651.054 528.918C657.393 525.886 668.107 521.642 674.714 519.476C681.321 517.31 691.411 514.539 697.036 513.413C702.661 512.286 711.768 510.9 717.125 510.294C723.375 509.601 733.554 509.428 745.25 509.688C758.643 509.948 766.321 510.641 773.821 511.94C779.446 512.979 788.286 514.972 793.464 516.444C798.643 517.917 807.482 520.862 813.107 523.028C818.732 525.193 827.393 529.004 832.304 531.517C837.214 534.029 844.804 538.446 849.268 541.218C853.732 544.077 860.518 548.928 864.446 551.959C868.286 554.991 874.982 560.708 879.179 564.606L886.768 571.796L1011.05 502.065C1006.14 496.001 1001.23 490.371 997.036 485.607C992.839 480.843 985.25 472.96 980.071 467.936C974.893 462.998 966.5 455.376 961.321 451.045C956.143 446.8 947.482 440.044 942.125 436.146C936.768 432.248 927.839 426.357 922.482 423.066C917.125 419.774 908.196 414.663 902.839 411.805C897.482 408.946 888.018 404.269 881.857 401.583C875.696 398.811 865.696 394.74 859.536 392.488C853.375 390.236 844.982 387.377 840.786 386.165C836.589 384.952 829.357 382.96 824.714 381.747C820.071 380.534 810.964 378.629 804.625 377.416C798.286 376.203 788.196 374.644 782.304 373.778C774.446 372.738 763.911 372.305 743.018 372.132C727.304 371.959 712.839 372.045 710.875 372.218C708.911 372.392 702.304 373.171 696.143 373.951V373.951ZM1024.71 620.304H967.571V675.742H1024.71V731.18H967.571V786.619H1024.71V842.057H1081.86V786.619H1139V842.057H1196.14V786.619H1253.29V731.18H1196.14V675.742H1253.29V620.304H1196.14V564.866H1139V620.304H1081.86V564.866H1024.71V620.304ZM1081.86 675.742H1139V731.18H1081.86V675.742Z" fill="white"/>
</svg>
