<svg width="1600" height="1383" viewBox="0 0 1600 1383" fill="none" xmlns="http://www.w3.org/2000/svg">
<path fill-rule="evenodd" clip-rule="evenodd" d="M739 23C1068.99 23 1339 23.1309 1339 23.3491C1339 23.5236 1314.45 298.456 1284.43 634.3C1254.42 970.144 1229.83 1244.94 1229.78 1244.99C1229.69 1244.99 1118.93 1276.06 737.68 1383L493.015 1313.93C279.858 1253.8 248.351 1244.77 248.219 1244.03C248.175 1243.59 223.576 968.791 193.565 633.427C163.554 298.063 139 23.5236 139 23.3491C139 23.1309 409.011 23 739 23V23ZM363.07 275.33C363.246 276.334 372.223 378.348 383.092 501.96L402.806 726.802C871.629 726.802 924.039 726.933 924.039 727.369C924.039 727.631 919.858 771.308 914.798 824.322C909.693 877.38 905.381 920.882 905.205 921.013C905.029 921.187 867.581 931.528 821.948 944.007L739 966.697L570.023 920.795C561.97 830.474 559.55 803.596 559.418 802.854L559.242 801.414H410.947C410.947 803.291 415.128 856.261 420.232 920.315C425.337 984.412 429.605 1036.9 429.737 1037.03C429.869 1037.16 499.528 1055.66 584.501 1078.18L739 1119.11C976.272 1056.01 1045.36 1037.56 1045.67 1037.38C1045.97 1037.16 1053.54 956.705 1067.14 808.527C1078.67 682.82 1088.22 579.06 1088.35 577.926L1088.61 575.831H540.76C540.408 573.65 537.46 539.441 533.94 498.383C530.419 457.367 527.559 423.203 527.559 422.461V421.152C1101.6 421.588 1101.86 421.588 1102.04 420.716C1102.12 420.236 1104.98 388.034 1108.42 349.157C1111.81 310.28 1114.75 277.337 1114.93 275.941L1115.24 273.454H362.85L363.07 275.33Z" fill="white"/>
</svg>
