<svg width="1600" height="1354" viewBox="0 0 1600 1354" fill="none" xmlns="http://www.w3.org/2000/svg">
<path fill-rule="evenodd" clip-rule="evenodd" d="M741.28 52.0115C962.663 52.0896 978.872 52.1287 984.54 52.7538C987.829 53.1054 993.179 53.7696 996.429 54.2385C999.639 54.6682 1005.03 55.5668 1008.4 56.192C1011.77 56.8562 1017.75 58.1845 1021.67 59.1613C1025.6 60.1381 1032.45 62.1306 1036.93 63.5762C1041.41 65.0218 1047.83 67.366 1051.2 68.7726C1054.57 70.14 1060.39 72.7968 1064.08 74.6331C1067.77 76.4303 1073.04 79.2043 1075.77 80.7671C1078.51 82.3299 1083.58 85.4946 1087.07 87.8388C1090.55 90.144 1095.98 94.09 1099.15 96.5905C1102.33 99.091 1107.4 103.389 1110.45 106.163C1113.5 108.937 1118.18 113.547 1120.83 116.399C1123.45 119.251 1126.74 122.924 1128.13 124.526C1129.47 126.128 1132.21 129.566 1134.15 132.144C1136.09 134.723 1139.1 138.864 1140.77 141.326C1142.43 143.787 1144.89 147.577 1146.2 149.726C1147.51 151.875 1149.92 156.094 1151.59 159.103C1153.25 162.111 1155.99 167.659 1157.73 171.41C1159.47 175.161 1162.05 181.334 1163.48 185.085C1164.9 188.835 1166.89 194.579 1167.92 197.782C1168.91 201.025 1170.33 205.948 1171.09 208.722C1171.8 211.496 1172.95 216.341 1173.58 219.466C1174.26 222.592 1175.17 227.437 1175.6 230.211C1176.08 232.985 1176.79 238.376 1177.23 242.127C1177.66 245.878 1178.22 253.457 1178.5 258.927C1178.85 266.585 1178.85 271.195 1178.5 278.853C1178.22 284.323 1177.66 291.902 1177.23 295.653C1176.79 299.404 1176.08 304.796 1175.6 307.57C1175.17 310.344 1174.26 315.188 1173.58 318.314C1172.95 321.439 1171.8 326.284 1171.09 329.058C1170.33 331.832 1168.91 336.794 1167.92 339.998C1166.89 343.241 1164.9 348.945 1163.48 352.696C1162.05 356.446 1159.47 362.619 1157.73 366.37C1155.99 370.121 1153.25 375.669 1151.59 378.677C1149.92 381.686 1147.51 385.905 1146.2 388.054C1144.89 390.203 1142.39 394.071 1140.65 396.65C1138.91 399.228 1135.89 403.37 1134.03 405.831C1132.13 408.292 1129.47 411.653 1128.09 413.254C1126.74 414.856 1123.45 418.529 1120.79 421.381C1118.18 424.272 1113.42 428.922 1110.33 431.735C1107.2 434.587 1102.13 438.884 1099.04 441.307C1095.94 443.768 1090.12 447.91 1086.08 450.566C1082.03 453.223 1076.96 456.388 1074.78 457.638C1072.6 458.849 1067.89 461.311 1064.28 463.108C1060.67 464.866 1054.89 467.484 1051.4 468.929C1047.91 470.375 1041.41 472.758 1036.93 474.204C1032.45 475.689 1025.6 477.681 1021.67 478.619C1017.75 479.596 1012.24 480.846 1009.39 481.393C1006.54 481.979 1001.3 482.838 997.697 483.385C994.091 483.893 987.75 484.597 983.628 484.948C979.506 485.3 975.028 485.691 971.342 486.198L973.522 486.277C974.711 486.277 978.555 486.589 982.043 486.902C985.53 487.253 990.881 487.839 993.932 488.308C996.984 488.738 1002.61 489.676 1006.42 490.457C1010.22 491.199 1016.4 492.567 1020.09 493.544C1023.78 494.481 1029.96 496.239 1033.76 497.451C1037.57 498.701 1043.83 500.928 1047.63 502.413C1051.44 503.897 1057.98 506.749 1062.1 508.742C1066.22 510.735 1072.2 513.821 1075.38 515.579C1078.55 517.376 1083.9 520.619 1087.27 522.846C1090.63 525.034 1095.55 528.472 1098.16 530.426C1100.78 532.418 1105.14 535.896 1107.87 538.201C1110.61 540.506 1115.32 544.843 1118.38 547.851C1121.43 550.86 1125.79 555.431 1128.05 558.009C1130.3 560.588 1134.15 565.355 1136.61 568.558C1139.06 571.801 1142.39 576.451 1144.06 578.912C1145.68 581.373 1148.38 585.788 1150.08 588.68C1151.79 591.571 1154.2 596.064 1155.51 598.642C1156.86 601.221 1159.24 606.417 1160.86 610.168C1162.53 613.919 1165.06 620.6 1166.53 625.015C1168.03 629.43 1169.98 635.759 1170.85 639.08C1171.72 642.401 1173.07 648.222 1173.82 651.973C1174.61 655.724 1175.68 661.897 1176.2 665.648C1176.75 669.399 1177.51 675.728 1177.9 679.713C1178.42 685.183 1178.58 690.809 1178.58 702.96C1178.58 715.111 1178.42 720.737 1177.9 726.207C1177.51 730.192 1176.75 736.521 1176.2 740.272C1175.68 744.023 1174.61 750.196 1173.82 753.946C1173.07 757.697 1171.72 763.519 1170.85 766.84C1169.98 770.161 1168.03 776.49 1166.53 780.905C1165.06 785.32 1162.53 792.001 1160.86 795.751C1159.24 799.502 1156.86 804.699 1155.51 807.277C1154.2 809.856 1151.79 814.349 1150.08 817.24C1148.38 820.131 1145.68 824.546 1144.06 827.008C1142.39 829.469 1139.06 834.157 1136.61 837.361C1134.15 840.604 1130.3 845.332 1128.05 847.91C1125.79 850.489 1121.43 855.06 1118.38 858.068C1115.32 861.077 1110.61 865.414 1107.87 867.719C1105.14 870.024 1100.78 873.501 1098.16 875.494C1095.55 877.447 1090.63 880.885 1087.27 883.073C1083.9 885.3 1078.55 888.543 1075.38 890.34C1072.2 892.099 1066.22 895.185 1062.1 897.178C1057.98 899.17 1051.44 902.022 1047.63 903.507C1043.83 904.992 1037.57 907.219 1033.76 908.469C1029.96 909.68 1023.78 911.438 1020.09 912.376C1016.4 913.353 1010.22 914.72 1006.42 915.463C1002.61 916.244 996.984 917.182 993.932 917.611C990.881 918.08 985.451 918.705 981.845 919.096C976.732 919.643 971.659 919.76 958.462 919.76C945.265 919.76 940.192 919.643 935.079 919.096C931.473 918.705 926.043 918.08 922.992 917.611C919.94 917.182 914.312 916.244 910.508 915.463C906.703 914.72 900.521 913.353 896.835 912.376C893.149 911.438 886.966 909.68 883.162 908.469C879.357 907.219 873.095 904.992 869.291 903.507C865.486 902.022 858.273 898.819 853.24 896.357C848.207 893.935 841.35 890.301 837.982 888.27C834.613 886.277 829.342 882.917 826.29 880.846C823.239 878.776 818.206 875.064 815.114 872.642C812.023 870.219 806.95 865.922 803.819 863.069C800.728 860.256 795.972 855.607 793.317 852.716C790.662 849.864 787.412 846.191 786.025 844.589C784.677 842.987 781.824 839.393 779.684 836.58C777.583 833.767 774.531 829.469 772.907 827.008C771.242 824.546 768.547 820.131 766.843 817.24C765.139 814.349 762.761 809.934 761.493 807.473C760.224 805.011 758.282 800.87 757.133 798.291C755.984 795.712 754.2 791.337 753.091 788.524C752.021 785.71 750.356 780.983 749.365 777.975C748.374 774.966 746.868 769.887 746.036 766.644C745.164 763.44 743.975 758.244 743.302 755.119C742.668 751.993 741.677 746.562 741.122 743.007C740.567 739.451 739.854 733.825 739.497 730.504C739.18 727.183 738.863 723.667 738.784 722.69C738.704 721.713 738.625 816.029 738.585 932.302C738.546 1068.77 738.348 1146.29 738.11 1151.09C737.872 1155.16 737.436 1161.17 737.079 1164.38C736.762 1167.62 736.049 1173.05 735.534 1176.49C735.019 1179.93 734.147 1185.01 733.552 1187.82C732.997 1190.63 731.848 1195.63 730.976 1198.96C730.144 1202.28 728.678 1207.4 727.806 1210.29C726.894 1213.18 725.23 1217.94 724.16 1220.84C723.05 1223.73 721.385 1227.87 720.474 1230.02C719.523 1232.17 717.818 1235.96 716.63 1238.42C715.441 1240.88 712.983 1245.57 711.16 1248.77C709.337 1252.01 706.484 1256.74 704.819 1259.32C703.155 1261.9 700.341 1266.04 698.518 1268.5C696.695 1270.96 693.841 1274.67 692.177 1276.67C690.512 1278.7 687.659 1282.06 685.796 1284.09C683.933 1286.16 680.367 1289.83 677.87 1292.29C675.373 1294.76 671.251 1298.55 668.754 1300.73C666.258 1302.88 662.334 1306.09 660.035 1307.88C657.737 1309.64 653.457 1312.73 650.524 1314.76C647.591 1316.79 642.439 1320.11 639.07 1322.11C635.702 1324.1 629.004 1327.69 624.208 1330.08C619.373 1332.42 611.804 1335.82 607.325 1337.54C602.847 1339.3 596.149 1341.68 592.463 1342.85C588.778 1344.02 582.516 1345.78 578.592 1346.76C574.669 1347.74 568.684 1349.06 565.316 1349.73C561.947 1350.35 556.676 1351.25 553.624 1351.68C550.573 1352.11 545.421 1352.78 542.131 1353.09C538.525 1353.48 530.717 1353.83 522.315 1353.95C513.557 1354.06 506.106 1353.99 502.103 1353.71C498.616 1353.48 493.345 1353.01 490.412 1352.66C487.479 1352.35 482.287 1351.64 478.919 1351.1C475.55 1350.59 470.992 1349.77 468.813 1349.34C466.633 1348.91 461.639 1347.74 457.716 1346.76C453.792 1345.78 447.293 1343.95 443.25 1342.66C439.208 1341.37 432.986 1339.18 429.379 1337.77C425.773 1336.4 419.194 1333.47 414.715 1331.36C410.237 1329.22 404.371 1326.21 401.637 1324.68C398.902 1323.16 393.829 1320.07 390.342 1317.81C386.854 1315.54 382.217 1312.38 380.038 1310.77C377.858 1309.17 374.291 1306.4 372.111 1304.64C369.932 1302.88 365.849 1299.33 362.996 1296.75C360.182 1294.17 356.06 1290.15 353.841 1287.8C351.661 1285.46 348.451 1281.86 346.707 1279.83C344.924 1277.8 342.031 1274.21 340.208 1271.82C338.385 1269.44 335.056 1264.79 332.876 1261.47C330.657 1258.15 327.684 1253.5 326.337 1251.11C324.95 1248.73 322.373 1243.93 320.59 1240.37C318.846 1236.81 316.429 1231.66 315.279 1228.84C314.09 1226.03 312.466 1221.93 311.633 1219.66C310.761 1217.4 309.295 1213.02 308.344 1209.9C307.353 1206.77 305.926 1201.77 305.173 1198.76C304.42 1195.75 303.231 1190.63 302.597 1187.43C301.924 1184.19 300.933 1178.48 300.418 1174.73C299.863 1170.98 299.11 1164.73 298.713 1160.86C298.198 1155.59 298.04 1149.96 298 1138.59C298 1128.82 298.198 1121.6 298.515 1118.47C298.793 1115.78 299.387 1110.85 299.823 1107.53C300.259 1104.21 301.131 1098.74 301.805 1095.42C302.478 1092.1 303.707 1086.55 304.579 1083.11C305.49 1079.67 307.512 1072.99 309.097 1068.27C310.682 1063.54 313.179 1056.86 314.645 1053.42C316.072 1049.98 318.767 1044.16 320.59 1040.53C322.453 1036.89 325.385 1031.42 327.169 1028.41C328.952 1025.41 331.925 1020.68 333.748 1017.87C335.61 1015.05 339.138 1010.13 341.595 1006.93C344.052 1003.68 347.262 999.659 348.729 997.94C350.195 996.221 353.524 992.47 356.179 989.579C358.835 986.687 363.59 981.96 366.761 979.03C369.932 976.139 374.568 972.075 377.065 970.005C379.562 967.973 383.684 964.769 386.181 962.933C388.677 961.057 393.592 957.697 397.079 955.431C400.567 953.165 405.996 949.883 409.167 948.086C412.337 946.289 418.124 943.32 422.047 941.444C425.971 939.569 432.312 936.834 436.116 935.31C439.921 933.826 446.104 931.638 449.789 930.426C453.515 929.254 459.816 927.457 463.859 926.48C467.901 925.465 473.965 924.136 477.333 923.511C480.702 922.886 486.33 922.026 489.817 921.597C493.305 921.167 498.14 920.659 500.597 920.503C503.015 920.346 504.957 920.112 504.877 919.995C504.798 919.878 502.896 919.682 500.676 919.526C498.417 919.37 493.701 918.862 490.214 918.432C486.726 918.002 481.297 917.182 478.126 916.635C474.955 916.088 468.813 914.72 464.453 913.665C460.094 912.571 453.871 910.852 450.582 909.797C447.332 908.782 442.339 907.062 439.485 906.008C436.671 904.914 432.193 903.155 429.577 902.022C426.962 900.889 422.047 898.584 418.678 896.904C415.31 895.224 410.039 892.411 406.987 890.653C403.935 888.895 399.021 885.886 396.088 883.933C393.156 882.018 388.796 879.01 386.379 877.252C384.001 875.494 379.879 872.29 377.263 870.141C374.648 867.992 370.13 864.046 367.197 861.35C364.264 858.694 359.707 854.24 357.091 851.427C354.475 848.613 350.71 844.394 348.729 842.05C346.707 839.705 343.418 835.564 341.397 832.868C339.375 830.172 336.363 825.953 334.659 823.491C332.995 821.03 330.181 816.615 328.437 813.724C326.693 810.833 324.197 806.418 322.889 803.956C321.541 801.495 319.361 797.08 318.014 794.189C316.667 791.297 314.408 786.101 313.06 782.663C311.673 779.225 309.572 773.403 308.384 769.77C307.195 766.136 305.49 760.315 304.618 756.877C303.707 753.438 302.478 747.891 301.805 744.57C301.131 741.249 300.259 735.779 299.823 732.458C299.387 729.137 298.793 724.214 298.515 721.518C298.198 718.51 298 711.321 298.04 702.764C298.04 694.794 298.238 686.902 298.515 684.206C298.793 681.627 299.268 677.33 299.625 674.634C299.982 671.938 300.695 667.367 301.21 664.476C301.765 661.584 302.637 657.17 303.231 654.708C303.786 652.247 304.856 648.027 305.57 645.331C306.323 642.635 307.829 637.713 308.938 634.392C310.048 631.071 311.99 625.796 313.258 622.671C314.526 619.545 316.548 614.817 317.816 612.122C319.044 609.426 321.145 605.206 322.453 602.745C323.761 600.283 325.94 596.415 327.248 594.149C328.556 591.883 331.806 586.804 334.461 582.819C337.116 578.834 341.159 573.208 343.458 570.317C345.756 567.425 349.402 563.01 351.542 560.549C353.683 558.088 358.557 552.969 362.401 549.219C366.206 545.429 371.556 540.467 374.291 538.201C377.026 535.896 381.742 532.145 384.793 529.84C387.845 527.574 393.116 523.862 396.485 521.674C399.853 519.447 405.045 516.282 407.978 514.642C410.911 512.961 416.102 510.266 419.471 508.586C422.84 506.906 427.675 504.679 430.172 503.585C432.668 502.53 437.86 500.498 441.665 499.092C445.47 497.724 451.375 495.771 454.743 494.755C458.112 493.778 463.938 492.254 467.624 491.434C471.349 490.574 476.937 489.441 480.108 488.894C483.278 488.347 489.064 487.566 492.988 487.136C496.911 486.667 501.033 486.316 502.103 486.316C503.213 486.316 504.362 486.159 504.679 485.964C505.076 485.73 503.609 485.534 500.716 485.378C498.219 485.222 493.305 484.753 489.817 484.323C486.33 483.893 480.702 483.034 477.333 482.409C473.965 481.783 467.901 480.455 463.859 479.439C459.816 478.463 453.515 476.665 449.789 475.493C446.104 474.282 439.921 472.094 436.116 470.609C432.312 469.086 425.971 466.351 422.047 464.475C418.124 462.6 412.337 459.631 409.167 457.833C405.996 456.036 400.567 452.754 397.079 450.488C393.592 448.222 388.677 444.862 386.181 442.987C383.684 441.151 379.562 437.947 377.065 435.915C374.568 433.844 369.932 429.781 366.761 426.89C363.59 423.96 358.835 419.232 356.179 416.341C353.524 413.45 350.195 409.699 348.729 407.98C347.262 406.261 344.052 402.198 341.595 398.994C339.138 395.751 335.61 390.828 333.748 388.054C331.925 385.28 328.952 380.514 327.169 377.505C325.385 374.497 322.453 369.066 320.59 365.393C318.767 361.721 316.072 355.938 314.645 352.5C313.179 349.062 310.682 342.381 309.097 337.654C307.512 332.926 305.49 326.245 304.579 322.807C303.707 319.369 302.478 313.821 301.805 310.5C301.131 307.179 300.259 301.709 299.823 298.388C299.387 295.067 298.793 290.144 298.515 287.448C298.198 284.44 298 277.251 298.04 268.695C298.04 260.724 298.238 252.832 298.515 250.136C298.793 247.558 299.268 243.26 299.625 240.564C299.982 237.868 300.695 233.297 301.21 230.406C301.765 227.515 302.637 223.1 303.192 220.638C303.786 218.177 304.896 213.684 305.768 210.675C306.6 207.667 308.106 202.744 309.137 199.736C310.127 196.727 311.99 191.726 313.258 188.601C314.487 185.475 316.548 180.748 317.776 178.052C319.044 175.356 321.145 171.136 322.453 168.675C323.761 166.214 325.901 162.346 327.209 160.08C328.516 157.814 331.964 152.461 334.897 148.163C337.79 143.865 341.674 138.435 343.576 136.051C345.439 133.668 348.689 129.722 350.829 127.261C352.93 124.799 357.963 119.525 362.005 115.54C366.048 111.554 371.477 106.475 374.093 104.248C376.709 102.06 381.702 98.1143 385.19 95.4966C388.677 92.9179 394.028 89.1672 397.079 87.2137C400.131 85.2211 404.847 82.3299 407.582 80.7671C410.316 79.2043 416.023 76.235 420.264 74.1642C424.504 72.0935 430.33 69.4368 433.144 68.3037C435.998 67.1316 440.714 65.3344 443.646 64.2795C446.579 63.2246 451.692 61.5836 454.941 60.646C458.231 59.7083 462.67 58.4971 464.849 57.9501C467.029 57.4031 471.508 56.4655 474.757 55.8013C478.047 55.1761 483.278 54.2775 486.449 53.8478C489.619 53.3789 494.89 52.7538 498.14 52.4803C503.094 52.0115 543.28 51.9724 741.28 52.0115V52.0115ZM738.585 585.632C738.625 640.291 738.704 684.206 738.784 683.229C738.863 682.253 739.18 678.736 739.497 675.415C739.854 672.094 740.567 666.468 741.122 662.913C741.677 659.357 742.668 653.927 743.302 650.801C743.975 647.675 745.164 642.479 746.036 639.275C746.868 636.033 748.374 630.953 749.365 627.945C750.356 624.937 752.021 620.209 753.091 617.396C754.2 614.583 755.984 610.207 757.133 607.629C758.282 605.05 760.224 600.908 761.493 598.447C762.761 595.986 765.139 591.571 766.843 588.68C768.547 585.788 771.242 581.373 772.867 578.912C774.531 576.451 777.86 571.762 780.318 568.558C782.775 565.316 786.778 560.432 789.274 557.619C791.732 554.806 796.25 550.117 799.301 547.109C802.392 544.14 806.871 540.037 809.249 538.045C811.666 536.052 815.59 532.887 817.968 531.051C820.385 529.176 825.379 525.698 829.065 523.237C832.75 520.815 838.378 517.376 841.549 515.579C844.719 513.782 850.703 510.735 854.825 508.742C858.987 506.749 865.486 503.897 869.291 502.413C873.095 500.928 879.357 498.701 883.162 497.451C886.966 496.239 893.149 494.481 896.835 493.544C900.521 492.567 906.703 491.199 910.508 490.457C914.312 489.676 920.019 488.699 923.19 488.269C926.36 487.8 931.354 487.214 934.287 486.941C938.884 486.472 925.568 486.394 839.091 486.355L738.506 486.316L738.585 585.632Z" fill="white"/>
</svg>
