<svg width="1600" height="1383" viewBox="0 0 1600 1383" fill="none" xmlns="http://www.w3.org/2000/svg">
<path fill-rule="evenodd" clip-rule="evenodd" d="M139 23H1339L1338.74 24.8714C1338.61 25.8723 1314.03 300.788 1284.11 635.762C1254.23 970.735 1229.71 1244.87 1229.62 1244.91C1229.57 1244.91 1118.88 1276.03 737.684 1383L493.077 1313.93C358.554 1275.94 248.426 1244.87 248.382 1244.87C248.338 1244.82 223.812 970.648 193.888 635.544C163.965 300.44 139.351 25.5242 139.219 24.6102L139 23ZM363.073 275.111C363.205 276.112 365.925 309.362 369.172 348.965C372.419 388.612 375.095 421.034 375.183 421.077C375.227 421.121 505.362 421.295 664.367 421.513L953.42 421.861C953.026 424.907 949.735 459.201 945.874 499.979C942.013 540.801 938.854 574.529 938.854 574.964C938.854 575.704 929.508 575.748 749.223 575.835L559.548 575.922L573.194 720.843C846.715 721.017 926.174 721.235 926.174 721.409C926.174 721.583 921.523 766.583 915.775 821.374C910.071 876.21 905.377 921.079 905.333 921.079C905.333 921.122 868.302 931.306 823.022 943.709C777.786 956.112 740.272 966.34 739.658 966.427C739.088 966.514 700.653 956.286 654.32 943.709C607.987 931.088 570.079 920.774 570.035 920.731C569.991 920.644 567.534 894.14 564.638 861.761C561.742 829.382 559.329 802.487 559.329 802.008C559.329 801.181 559.066 801.138 484.96 801.138H410.59C411.029 806.708 414.715 855.668 419.102 913.506C423.49 971.344 427.219 1018.87 427.439 1019.04C427.658 1019.26 496.762 1040.72 581.004 1066.74C665.245 1092.81 735.271 1114.39 736.587 1114.79L739 1115.48L1045.47 1028.96C1045.82 1026.31 1061.44 856.8 1080.35 650.558C1099.31 444.361 1114.84 275.111 1114.93 274.459L1115.01 273.284L362.898 273.24L363.073 275.111Z" fill="white"/>
</svg>
