<svg width="1600" height="1286" viewBox="0 0 1600 1286" fill="none" xmlns="http://www.w3.org/2000/svg">
<path fill-rule="evenodd" clip-rule="evenodd" d="M738.04 121.009C999.666 120.971 1134.49 121.047 1138.68 121.315C1142.18 121.544 1146.75 121.888 1148.86 122.118C1150.97 122.309 1155.04 122.844 1157.89 123.265C1160.73 123.647 1165.3 124.45 1168.07 124.985C1170.83 125.52 1175.13 126.476 1177.67 127.087C1180.2 127.737 1184.08 128.769 1186.31 129.419C1188.54 130.031 1192.42 131.254 1194.95 132.095C1197.49 132.936 1202.06 134.618 1205.13 135.841C1208.21 137.065 1212.85 139.014 1215.5 140.237C1218.15 141.422 1222.46 143.525 1225.11 144.901C1227.76 146.315 1232.25 148.8 1235.09 150.482C1237.94 152.164 1242.28 154.878 1244.7 156.484C1247.12 158.128 1251.19 160.956 1253.72 162.868C1256.26 164.741 1260.06 167.722 1262.18 169.443C1264.29 171.201 1268.51 174.909 1271.59 177.738C1274.66 180.528 1279.42 185.307 1282.23 188.289C1284.99 191.308 1288.68 195.475 1290.45 197.578C1292.18 199.68 1295.29 203.656 1297.36 206.37C1299.4 209.084 1302.7 213.824 1304.7 216.882C1306.73 219.94 1309.88 225.101 1311.77 228.35C1313.61 231.6 1316.38 236.875 1317.91 240.01C1319.45 243.182 1321.83 248.496 1323.25 251.86C1324.63 255.224 1326.82 260.996 1328.05 264.666C1329.28 268.336 1331.01 273.955 1331.89 277.09C1332.74 280.262 1334.04 285.729 1334.77 289.322C1335.5 292.916 1336.46 298.153 1336.89 300.981C1337.31 303.81 1337.92 308.971 1338.31 312.449C1338.96 318.451 1339 337.488 1339 703.319C1339 1069.15 1338.96 1088.19 1338.31 1094.19C1337.92 1097.67 1337.27 1102.83 1336.89 1105.66C1336.46 1108.49 1335.58 1113.42 1334.93 1116.55C1334.31 1119.72 1333.08 1124.96 1332.24 1128.21C1331.39 1131.46 1329.67 1137.16 1328.44 1140.83C1327.21 1144.5 1325.13 1150.19 1323.83 1153.44C1322.52 1156.69 1319.91 1162.46 1318.1 1166.25C1316.26 1170.03 1313.34 1175.61 1311.57 1178.67C1309.85 1181.73 1306.27 1187.39 1303.7 1191.29C1301.09 1195.18 1297.36 1200.42 1295.4 1202.94C1293.44 1205.47 1289.83 1209.86 1287.37 1212.69C1284.92 1215.52 1280.23 1220.53 1276.96 1223.78C1273.7 1227.03 1268.44 1231.92 1265.25 1234.63C1262.1 1237.31 1257.26 1241.21 1254.49 1243.27C1251.73 1245.3 1246.73 1248.82 1243.35 1251.03C1239.97 1253.21 1235.06 1256.27 1232.41 1257.8C1229.76 1259.29 1224.49 1262.08 1220.69 1263.92C1216.89 1265.79 1211.97 1268.08 1209.74 1269C1207.51 1269.96 1203.29 1271.6 1200.33 1272.71C1197.37 1273.78 1192.11 1275.54 1188.62 1276.61C1185.12 1277.64 1179.44 1279.17 1175.94 1280.01C1172.44 1280.81 1166.57 1282 1162.88 1282.61C1159.19 1283.26 1153.81 1284.02 1150.97 1284.33C1148.13 1284.67 1142.94 1285.09 1139.45 1285.32C1135.18 1285.59 1003.51 1285.71 739 1285.71C481.907 1285.71 342.739 1285.55 338.744 1285.32C335.364 1285.13 330.178 1284.67 327.22 1284.33C324.262 1284.02 318.923 1283.26 315.312 1282.65C311.702 1282.04 306.516 1281 303.789 1280.39C301.061 1279.74 296.644 1278.63 293.994 1277.91C291.343 1277.18 286.772 1275.81 283.814 1274.81C280.857 1273.82 276.017 1272.06 273.059 1270.91C270.101 1269.73 265.415 1267.78 262.688 1266.52C259.96 1265.25 255.543 1263.11 252.892 1261.74C250.242 1260.36 245.517 1257.69 242.329 1255.77C239.179 1253.9 234.416 1250.88 231.766 1249.08C229.115 1247.29 225.236 1244.54 223.123 1242.93C221.01 1241.36 217.207 1238.3 214.672 1236.2C212.137 1234.1 206.875 1229.28 202.995 1225.5C199.115 1221.71 194.198 1216.63 192.047 1214.22C189.896 1211.81 186.785 1208.11 185.095 1206C183.405 1203.9 180.293 1199.77 178.181 1196.83C176.068 1193.88 172.88 1189.14 171.074 1186.32C169.307 1183.49 166.503 1178.67 164.813 1175.61C163.123 1172.55 160.818 1168.08 159.666 1165.67C158.513 1163.27 156.439 1158.6 155.056 1155.35C153.712 1152.1 151.561 1146.41 150.293 1142.74C149.026 1139.07 147.297 1133.56 146.452 1130.5C145.607 1127.45 144.339 1122.21 143.609 1118.85C142.918 1115.48 141.881 1109.9 141.343 1106.42C140.805 1102.94 140.076 1097.09 139.691 1093.42C139.038 1087.04 139 1068.69 139 703.319C139 337.947 139.038 319.598 139.691 313.214C140.076 309.544 140.805 303.696 141.343 300.217C141.881 296.738 142.841 291.501 143.456 288.558C144.07 285.614 145.184 280.951 145.876 278.236C146.606 275.522 148.181 270.247 149.41 266.577C150.601 262.907 152.675 257.212 153.981 253.962C155.287 250.713 157.476 245.705 158.782 242.877C160.127 240.048 162.393 235.537 163.853 232.861C165.274 230.147 167.617 226.018 169.038 223.687C170.46 221.317 173.033 217.303 174.723 214.78C176.414 212.257 179.333 208.205 181.138 205.796C182.944 203.388 186.324 199.145 188.59 196.431C190.857 193.717 196.542 187.677 201.189 183.013C205.876 178.388 211.945 172.73 214.672 170.475C217.399 168.181 221.663 164.855 224.083 163.059C226.503 161.224 230.921 158.128 233.878 156.178C236.836 154.228 241.676 151.208 244.634 149.488C247.592 147.806 253.046 144.901 256.734 143.066C260.421 141.231 266.222 138.594 269.602 137.179C272.982 135.765 279.282 133.433 283.622 131.98C287.963 130.566 294.186 128.693 297.451 127.852C300.716 127.011 306.017 125.788 309.166 125.176C312.355 124.526 317.271 123.685 320.114 123.265C322.956 122.844 327.105 122.347 329.333 122.08C331.561 121.85 335.709 121.506 338.552 121.353C341.394 121.2 521.164 121.009 738.04 121.009V121.009ZM976.196 380.837C973.968 381.296 970.357 382.29 968.129 383.016C965.901 383.781 962.521 385.119 960.639 386.036C958.757 386.954 955.607 388.712 953.725 389.935C951.842 391.197 948.962 393.261 947.387 394.561C945.812 395.899 943.238 398.383 941.702 400.104C940.165 401.824 937.86 404.767 936.554 406.679C935.287 408.59 933.481 411.648 932.559 413.56C931.638 415.471 930.37 418.644 929.679 420.632C929.026 422.619 928.142 425.907 927.72 427.895C927.259 430.303 926.913 433.934 926.759 438.598C926.606 443.109 926.721 447.123 926.99 449.684C927.259 451.901 927.796 455.227 928.219 457.138C928.641 459.05 929.487 462.108 930.14 464.019C930.793 465.93 932.214 469.256 933.328 471.473C934.442 473.69 936.247 476.863 937.361 478.545C938.513 480.227 940.319 482.712 941.394 484.05C942.47 485.388 944.659 487.605 946.234 488.943C947.809 490.319 950.69 492.46 952.572 493.721C954.455 494.983 957.335 496.665 958.91 497.468C960.485 498.27 963.443 499.494 965.44 500.258C967.438 500.984 971.164 502.055 973.699 502.628C977.079 503.393 980.152 503.737 985.223 504.004C989.679 504.195 993.635 504.195 996.362 503.928C998.705 503.737 1002.39 503.163 1004.62 502.666C1006.85 502.169 1010.46 501.061 1012.69 500.182C1014.92 499.341 1018.3 497.735 1020.18 496.665C1022.06 495.594 1024.86 493.798 1026.32 492.727C1027.78 491.619 1030.2 489.631 1031.66 488.255C1033.12 486.917 1035.35 484.509 1036.62 482.941C1037.89 481.374 1039.73 478.851 1040.69 477.398C1041.65 475.946 1043.26 473.079 1044.26 471.091C1045.26 469.103 1046.76 465.395 1047.57 462.872C1048.41 460.349 1049.41 456.565 1049.79 454.462C1050.37 451.404 1050.52 448.805 1050.52 441.274C1050.52 433.743 1050.37 431.144 1049.79 428.086C1049.41 425.983 1048.45 422.275 1047.64 419.867C1046.87 417.459 1045.15 413.407 1043.88 410.884C1042.57 408.361 1040.38 404.767 1039.04 402.856C1037.66 400.945 1035.27 398.154 1033.74 396.587C1032.2 395.02 1029.47 392.688 1027.67 391.35C1025.86 390.012 1022.83 388.062 1020.95 387.03C1019.06 385.96 1016.18 384.622 1014.61 383.972C1013.03 383.36 1010.15 382.405 1008.27 381.831C1006.39 381.296 1003.24 380.608 1001.36 380.302C999.474 380.035 996.516 379.729 994.826 379.652C993.136 379.576 989.179 379.614 985.991 379.767C982.611 379.92 978.577 380.379 976.196 380.837V380.837ZM557.118 422.084C556.58 433.858 556.311 438.445 556.157 439.936C556.042 441.389 555.658 444.6 555.351 447.008C555.044 449.416 554.544 452.78 554.237 454.462C553.93 456.144 552.393 461.649 550.857 466.695C549.282 471.741 511.907 579.235 467.809 705.613C404.314 887.458 387.566 935.853 387.412 937.65C387.335 939.065 387.451 940.364 387.796 941.052C388.104 941.74 388.872 942.467 389.832 942.887C391.292 943.537 394.058 943.575 440.152 943.575C477.105 943.575 489.32 943.461 490.472 943.116C491.356 942.849 492.739 941.932 493.738 940.899C495.236 939.447 495.658 938.606 496.657 935.548C497.31 933.56 506.029 906.686 516.055 875.837L534.262 819.72L720.831 819.911C752.944 912.65 762.508 939.944 762.816 940.402C763.123 940.899 764.122 941.74 765.005 942.314L766.618 943.384C868.834 943.384 875.901 943.308 877.054 942.811C877.745 942.505 878.59 941.74 878.936 941.091C879.32 940.326 879.435 939.37 879.282 938.224C879.166 937.268 837.796 820.561 787.323 678.854L695.594 421.205L692.137 419.485H559.807L557.118 422.084ZM932.982 549.265C932.214 550.794 932.214 551.559 932.214 744.795C932.214 938.032 932.214 938.797 932.982 940.288C933.405 941.129 934.403 942.237 935.248 942.772L936.746 943.766H1039.88C1041.57 942.505 1042.42 941.549 1042.84 940.861C1043.61 939.561 1043.61 938.759 1043.69 745.369L1043.8 551.176C1042.38 548.309 1041.61 547.507 1040.73 547.048C1039.46 546.436 1036.12 546.398 987.912 546.398C939.666 546.398 936.362 546.436 935.095 547.048C934.25 547.468 933.443 548.309 932.982 549.265ZM625.876 511.229C626.298 511.229 626.721 511.344 626.798 511.497C626.875 511.65 629.909 522.277 633.558 535.121C637.169 547.927 640.818 560.733 641.663 563.6C642.508 566.429 644.314 572.354 645.697 576.788C647.079 581.184 649.461 588.753 651.036 593.608C652.572 598.425 656.029 609.358 658.718 617.882C661.369 626.369 664.211 635.428 665.018 637.951C665.863 640.474 668.129 647.699 670.05 654.007C671.971 660.314 676.388 673.961 679.845 684.397C683.302 694.795 687.105 706.492 688.257 710.391C689.448 714.252 690.485 717.769 690.6 718.113C690.793 718.763 687.566 718.801 627.028 718.801C566.452 718.801 563.264 718.763 563.494 718.113C563.648 717.769 566.029 710.735 568.795 702.555C571.599 694.336 575.095 683.594 576.593 678.663C578.129 673.693 580.665 665.092 582.278 659.55C583.891 653.968 587.348 642.615 589.96 634.32C592.572 625.986 597.489 610.16 600.908 599.151C604.326 588.103 608.052 576.215 609.243 572.774C610.396 569.296 612.431 562.683 613.776 558.057C615.082 553.432 617.31 545.175 618.693 539.708C620.076 534.242 622.111 525.832 623.149 521.054C624.224 516.275 625.108 512.108 625.108 511.803C625.108 511.459 625.453 511.229 625.876 511.229V511.229Z" fill="white"/>
</svg>
