<svg width="1600" height="1286" viewBox="0 0 1600 1286" fill="none" xmlns="http://www.w3.org/2000/svg">
<path fill-rule="evenodd" clip-rule="evenodd" d="M737.776 121C999.486 121 1134.37 121.076 1138.56 121.344C1142.06 121.573 1146.63 121.917 1148.74 122.147C1150.85 122.338 1155 122.873 1157.96 123.294C1160.91 123.752 1165.83 124.593 1168.9 125.205C1171.98 125.816 1177.16 127.04 1180.43 127.881C1183.69 128.722 1189.07 130.289 1192.33 131.359C1195.6 132.43 1201.05 134.341 1204.43 135.679C1207.81 136.978 1213.19 139.272 1216.34 140.725C1219.52 142.177 1224.79 144.853 1228.05 146.611C1231.32 148.408 1236.35 151.313 1239.19 153.072C1242.03 154.868 1246.79 158.041 1249.75 160.143C1252.71 162.246 1256.86 165.342 1258.97 167.024C1261.08 168.706 1264.81 171.802 1267.23 173.943C1269.65 176.084 1274.75 180.976 1278.56 184.837C1282.36 188.698 1287.2 193.935 1289.31 196.458C1291.42 198.981 1294.5 202.765 1296.07 204.868C1297.68 206.97 1300.45 210.831 1302.25 213.469C1304.06 216.106 1307.09 220.846 1308.98 223.981C1310.9 227.153 1313.58 231.855 1314.97 234.493C1316.35 237.13 1318.46 241.412 1319.65 244.049C1320.88 246.687 1322.84 251.312 1324.03 254.37C1325.26 257.428 1326.8 261.48 1327.45 263.353C1328.1 265.265 1329.26 268.781 1329.98 271.19C1330.71 273.598 1331.94 277.994 1332.67 280.937C1333.4 283.881 1334.44 288.43 1334.98 291.067C1335.48 293.705 1336.28 298.254 1336.71 301.197C1337.13 304.14 1337.78 309.224 1338.17 312.474C1338.78 318.055 1338.86 340.226 1338.97 698.556C1339.05 966.634 1338.97 1080.81 1338.67 1085.78C1338.43 1089.68 1338.01 1095.26 1337.67 1098.21C1337.36 1101.15 1336.59 1106.5 1335.98 1110.06C1335.36 1113.61 1334.32 1118.77 1333.71 1121.53C1333.06 1124.28 1331.94 1128.64 1331.21 1131.27C1330.48 1133.91 1329.1 1138.46 1328.1 1141.4C1327.1 1144.35 1325.38 1149.16 1324.19 1152.11C1323.03 1155.05 1320.77 1160.21 1319.19 1163.57C1317.66 1166.94 1315.12 1171.91 1313.62 1174.66C1312.13 1177.41 1309.86 1181.35 1308.59 1183.45C1307.32 1185.55 1304.94 1189.26 1303.33 1191.67C1301.68 1194.08 1298.84 1198.13 1296.92 1200.65C1295.03 1203.18 1292.04 1206.96 1290.31 1209.06C1288.54 1211.17 1284.86 1215.33 1282.09 1218.35C1279.29 1221.33 1274.52 1226.11 1271.45 1228.9C1268.38 1231.73 1264.15 1235.44 1262.04 1237.2C1259.93 1238.92 1255.97 1242.01 1253.21 1244.08C1250.44 1246.1 1245.72 1249.39 1242.65 1251.42C1239.57 1253.4 1234.73 1256.35 1231.89 1257.99C1229.05 1259.6 1223.6 1262.43 1219.79 1264.3C1215.99 1266.13 1210.54 1268.58 1207.69 1269.77C1204.85 1270.91 1200.09 1272.75 1197.13 1273.78C1194.18 1274.85 1188.99 1276.49 1185.61 1277.45C1182.23 1278.4 1176.78 1279.78 1173.51 1280.51C1170.25 1281.27 1164.87 1282.3 1161.61 1282.8C1158.34 1283.34 1153.42 1284.02 1150.66 1284.33C1147.89 1284.67 1142.82 1285.09 1139.33 1285.32C1135.07 1285.59 1005.17 1285.71 738.929 1285.71C472.686 1285.71 342.791 1285.59 338.528 1285.32C335.033 1285.09 329.925 1284.67 327.198 1284.33C324.471 1284.02 319.516 1283.34 316.252 1282.8C312.987 1282.3 307.61 1281.27 304.345 1280.51C301.081 1279.78 295.627 1278.4 292.247 1277.45C288.867 1276.49 283.682 1274.85 280.724 1273.78C277.767 1272.75 273.005 1270.91 270.162 1269.77C267.32 1268.58 261.866 1266.13 258.064 1264.3C254.262 1262.43 248.808 1259.6 245.965 1257.99C243.123 1256.35 238.284 1253.4 235.211 1251.42C232.139 1249.39 227.376 1246.1 224.649 1244.08C221.922 1242.01 217.928 1238.92 215.815 1237.2C213.703 1235.44 209.517 1231.77 206.482 1229.02C203.487 1226.23 198.686 1221.49 195.882 1218.43C193.04 1215.37 189.314 1211.17 187.547 1209.06C185.819 1206.96 182.708 1203.02 180.634 1200.27C178.598 1197.52 175.295 1192.82 173.26 1189.76C171.262 1186.7 168.305 1181.88 166.654 1179.06C165.04 1176.23 162.275 1170.95 160.508 1167.4C158.742 1163.84 156.437 1158.83 155.4 1156.31C154.325 1153.79 152.596 1149.39 151.559 1146.56C150.522 1143.73 148.948 1139.07 148.103 1136.24C147.219 1133.41 145.913 1128.67 145.184 1125.73C144.454 1122.79 143.417 1118.24 142.879 1115.6C142.38 1112.96 141.573 1108.49 141.151 1105.66C140.728 1102.83 140.075 1097.48 139.691 1093.81C139.038 1087.43 139 1069.69 139 703.334C139 339.194 139.038 319.201 139.691 313.047C140.037 309.454 140.728 304.14 141.151 301.197C141.573 298.254 142.38 293.705 142.879 291.067C143.417 288.43 144.454 283.881 145.184 280.937C145.913 277.994 147.142 273.598 147.872 271.19C148.602 268.781 149.754 265.265 150.407 263.353C151.06 261.48 152.596 257.428 153.787 254.37C155.016 251.312 157.128 246.419 158.473 243.476C159.817 240.532 162.275 235.64 163.927 232.581C165.617 229.523 168.343 224.783 170.033 222.069C171.685 219.355 174.681 214.768 176.678 211.939C178.637 209.111 181.748 204.906 183.553 202.574C185.358 200.242 188.815 196.114 191.196 193.4C193.616 190.686 198.417 185.64 201.873 182.238C205.292 178.836 209.862 174.555 211.975 172.72C214.087 170.885 217.966 167.75 220.616 165.686C223.267 163.66 227.568 160.487 230.218 158.653C232.868 156.818 237.362 153.874 240.204 152.154C243.047 150.396 247.886 147.643 250.958 146C254.031 144.356 258.947 141.91 261.905 140.533C264.862 139.196 270.047 136.978 273.427 135.679C276.807 134.379 282.261 132.43 285.525 131.359C288.79 130.289 294.167 128.722 297.432 127.881C300.696 127.04 305.882 125.816 308.954 125.205C312.027 124.593 316.943 123.752 319.9 123.294C322.858 122.873 327.083 122.338 329.31 122.109C331.538 121.879 335.609 121.535 338.336 121.382C341.063 121.229 520.811 121.038 737.776 121V121ZM912.954 378.719L912.147 379.79L911.955 539.536C908.844 539.23 905.311 538.962 902.161 538.771C898.973 538.542 892.252 538.198 887.182 538.007C881.037 537.739 874.892 537.739 868.747 538.007C863.677 538.198 856.763 538.657 853.384 538.962C850.004 539.268 844.281 539.956 840.709 540.491C837.137 540.988 831.491 541.944 828.226 542.594C824.962 543.244 819.508 544.467 816.128 545.308C812.748 546.149 808.254 547.334 806.142 547.945C804.03 548.557 799.267 550.086 795.58 551.309C791.893 552.571 786.093 554.711 782.713 556.088C779.333 557.425 774.072 559.719 770.999 561.133C767.926 562.548 763.778 564.574 761.781 565.644C759.784 566.676 756.058 568.779 753.523 570.269C750.989 571.76 746.764 574.398 744.114 576.194C741.463 577.953 737.392 580.82 735.088 582.54C732.783 584.298 728.635 587.586 725.87 589.841C723.143 592.135 718.227 596.569 715.001 599.742C711.736 602.876 706.935 607.884 704.323 610.827C701.711 613.77 698.101 618.09 696.296 620.384C694.491 622.677 691.61 626.576 689.843 628.984C688.115 631.393 685.119 635.865 683.237 638.923C681.317 641.981 679.128 645.574 678.36 646.951C677.591 648.327 675.671 651.996 674.096 655.169C672.522 658.304 670.179 663.311 668.911 666.255C667.644 669.198 665.647 674.282 664.494 677.531C663.342 680.781 661.652 685.941 660.769 688.999C659.885 692.057 658.58 697.103 657.85 700.276C657.12 703.41 656.083 708.494 655.584 711.552C655.084 714.61 654.47 718.471 654.278 720.153C654.047 721.835 653.702 725.123 653.471 727.416C653.241 729.71 652.895 737.47 652.703 744.618C652.473 753.028 652.473 760.52 652.742 765.833C652.934 770.344 653.356 776.46 653.702 779.403C654.009 782.347 654.624 787.087 655.046 789.916C655.469 792.744 656.314 797.484 656.928 800.428C657.543 803.371 658.58 807.844 659.233 810.366C659.885 812.889 661.038 816.941 661.767 819.35C662.497 821.758 663.918 825.963 664.878 828.715C665.839 831.467 667.759 836.36 669.103 839.609C670.486 842.858 673.443 849.128 675.671 853.562C677.937 857.958 681.471 864.15 683.583 867.323C685.657 870.458 688.422 874.433 689.69 876.115C690.957 877.797 693.646 881.161 695.681 883.569C697.717 885.977 701.673 890.335 704.554 893.279C707.396 896.184 711.544 900.159 713.771 902.07C715.999 904.02 719.456 906.887 721.453 908.492C723.45 910.06 727.253 912.888 729.903 914.723C732.553 916.558 737.277 919.616 740.465 921.489C743.614 923.362 749.491 926.535 753.523 928.485C757.556 930.434 763.663 933.186 767.158 934.563C770.653 935.9 776.338 938.003 779.833 939.15C783.328 940.296 788.935 942.017 792.315 942.934C795.695 943.89 801.226 945.266 804.606 946.03C807.986 946.757 813.862 947.903 817.664 948.515C821.467 949.165 827.689 950.006 831.491 950.426C835.293 950.847 841.516 951.382 845.318 951.611C849.12 951.802 856.187 951.993 861.065 951.993C865.943 951.993 874.047 951.802 879.117 951.611C884.187 951.382 891.714 950.961 895.824 950.617C899.934 950.312 906.501 949.7 910.419 949.279C914.337 948.859 920.482 948.094 924.054 947.559C927.626 947.024 934.462 945.916 939.225 945.075C943.987 944.234 950.709 942.934 954.204 942.208C957.699 941.443 964.151 939.914 968.607 938.806C973.062 937.659 979.63 935.862 983.202 934.792C986.774 933.721 992.074 932.04 994.916 931.084C997.758 930.128 1002.79 928.37 1006.05 927.147C1009.32 925.885 1014.35 923.936 1017.19 922.751C1020.03 921.566 1022.88 920.151 1023.45 919.578C1024.07 919.005 1024.91 917.858 1025.33 917.017C1026.1 915.602 1026.1 915.067 1025.87 909.18C1025.72 905.702 1025.33 899.509 1025.03 895.419C1024.72 891.329 1024.26 885.748 1024.03 882.996C1023.72 879.402 1023.53 808.188 1023.38 628.793C1023.18 430.439 1023.03 379.369 1022.65 378.681C1022.42 378.222 1021.69 377.572 1021.03 377.267C1020.03 376.77 1013.31 376.693 967.723 376.693C927.126 376.693 915.412 376.808 914.682 377.19C914.183 377.42 913.376 378.146 912.954 378.719V378.719ZM466.81 420.347C465.696 420.921 464.851 421.685 464.39 422.564C463.776 423.826 463.737 436.823 463.814 681.927L463.929 939.952C465.197 942.017 466.195 942.934 466.963 943.278C468.269 943.928 471.534 943.966 518.929 943.966H569.55C572.316 942.59 573.314 941.711 573.775 940.908L574.544 939.57C574.544 425.049 574.544 424.285 573.775 422.756C573.353 421.915 572.393 420.844 571.663 420.347L570.319 419.468L468.538 419.506L466.81 420.347ZM880.077 630.169C885.185 630.131 891.292 630.361 895.056 630.705C898.551 631.01 903.736 631.737 911.763 633.342L911.955 852.95L911.072 853.179C910.611 853.294 908.921 853.715 907.346 854.173C905.234 854.747 902.545 855.014 897.168 855.244C893.174 855.435 885.876 855.779 881.037 856.008C874.508 856.352 870.36 856.352 865.098 856.046C861.18 855.817 855.726 855.32 852.999 854.9C850.234 854.517 845.932 853.715 843.398 853.141C840.863 852.568 836.791 851.536 834.372 850.809C831.952 850.083 828.303 848.86 826.306 848.095C824.309 847.369 820.507 845.687 817.856 844.349C815.206 843.011 811.25 840.718 809.023 839.265C806.795 837.813 803.261 835.175 801.187 833.417C799.075 831.658 796.194 828.944 794.773 827.339C793.314 825.772 791.201 823.287 790.011 821.796C788.82 820.343 786.785 817.515 785.44 815.489C784.096 813.501 782.137 810.328 781.1 808.417C780.025 806.544 778.22 802.836 777.067 800.198C775.877 797.599 774.225 793.279 773.342 790.642C772.458 788.043 771.153 783.57 770.423 780.703C769.732 777.874 768.848 774.09 768.541 772.293C768.195 770.535 767.657 767.095 767.35 764.648C767.043 762.24 766.62 757.08 766.428 753.18C766.198 749.32 766.044 743.624 766.044 740.566C766.006 737.546 766.198 732.73 766.39 729.863C766.62 727.034 767.158 722.561 767.581 719.924C768.003 717.325 768.848 713.196 769.463 710.75C770.077 708.341 771.191 704.634 771.882 702.531C772.612 700.429 773.841 697.179 774.648 695.268C775.416 693.395 777.067 689.878 778.296 687.432C779.564 685.024 781.6 681.507 782.867 679.596C784.134 677.722 786.324 674.703 787.745 672.906C789.166 671.148 792.853 667.172 795.926 664.114C799.037 661.056 802.993 657.386 804.798 655.972C806.603 654.519 810.213 651.92 812.863 650.162C815.514 648.441 819.393 646.033 821.505 644.848C823.618 643.701 827.42 641.79 829.955 640.682C832.49 639.535 836.907 637.815 839.749 636.821C842.591 635.827 847.277 634.451 850.119 633.724C852.961 632.998 857.532 632.042 860.297 631.622C863.024 631.202 866.673 630.705 868.363 630.513C870.052 630.361 875.314 630.208 880.077 630.169V630.169Z" fill="white"/>
</svg>
