<svg width="1600" height="1286" viewBox="0 0 1600 1286" fill="none" xmlns="http://www.w3.org/2000/svg">
<path fill-rule="evenodd" clip-rule="evenodd" d="M738.04 121.009C999.666 120.971 1134.49 121.047 1138.68 121.315C1142.18 121.544 1146.75 121.888 1148.86 122.118C1150.97 122.309 1155.04 122.844 1157.89 123.265C1160.73 123.647 1165.3 124.45 1168.07 124.985C1170.83 125.52 1175.13 126.476 1177.67 127.087C1180.2 127.737 1184.08 128.769 1186.31 129.419C1188.54 130.031 1192.42 131.254 1194.95 132.095C1197.49 132.936 1202.06 134.618 1205.13 135.841C1208.21 137.065 1212.85 139.014 1215.5 140.237C1218.15 141.422 1222.46 143.525 1225.11 144.901C1227.76 146.315 1232.25 148.8 1235.09 150.482C1237.94 152.164 1242.28 154.878 1244.7 156.484C1247.12 158.128 1251.19 160.956 1253.72 162.868C1256.26 164.741 1260.06 167.722 1262.18 169.443C1264.29 171.201 1268.51 174.909 1271.59 177.738C1274.66 180.528 1279.42 185.307 1282.23 188.289C1284.99 191.308 1288.68 195.475 1290.45 197.578C1292.18 199.68 1295.29 203.656 1297.36 206.37C1299.4 209.084 1302.7 213.824 1304.7 216.882C1306.73 219.94 1309.88 225.101 1311.77 228.35C1313.61 231.6 1316.38 236.875 1317.91 240.01C1319.45 243.182 1321.83 248.496 1323.25 251.86C1324.63 255.224 1326.82 260.996 1328.05 264.666C1329.28 268.336 1331.01 273.955 1331.89 277.09C1332.74 280.262 1334.04 285.729 1334.77 289.322C1335.5 292.916 1336.46 298.153 1336.89 300.981C1337.31 303.81 1337.92 308.971 1338.31 312.449C1338.96 318.451 1339 337.488 1339 703.319C1339 1069.15 1338.96 1088.19 1338.31 1094.19C1337.92 1097.67 1337.27 1102.83 1336.89 1105.66C1336.46 1108.49 1335.58 1113.42 1334.93 1116.55C1334.31 1119.72 1333.08 1124.96 1332.24 1128.21C1331.39 1131.46 1329.67 1137.16 1328.44 1140.83C1327.21 1144.5 1325.13 1150.19 1323.83 1153.44C1322.52 1156.69 1319.91 1162.46 1318.1 1166.25C1316.26 1170.03 1313.34 1175.61 1311.57 1178.67C1309.85 1181.73 1306.27 1187.39 1303.7 1191.29C1301.09 1195.18 1297.36 1200.42 1295.4 1202.94C1293.44 1205.47 1289.83 1209.86 1287.37 1212.69C1284.92 1215.52 1280.23 1220.53 1276.96 1223.78C1273.7 1227.03 1268.44 1231.92 1265.25 1234.63C1262.1 1237.31 1257.26 1241.21 1254.49 1243.27C1251.73 1245.3 1246.73 1248.82 1243.35 1251.03C1239.97 1253.21 1235.06 1256.27 1232.41 1257.8C1229.76 1259.29 1224.49 1262.08 1220.69 1263.92C1216.89 1265.79 1211.97 1268.08 1209.74 1269C1207.51 1269.96 1203.29 1271.6 1200.33 1272.71C1197.37 1273.78 1192.11 1275.54 1188.62 1276.61C1185.12 1277.64 1179.44 1279.17 1175.94 1280.01C1172.44 1280.81 1166.57 1282 1162.88 1282.61C1159.19 1283.26 1153.81 1284.02 1150.97 1284.33C1148.13 1284.67 1142.94 1285.09 1139.45 1285.32C1135.18 1285.59 1003.51 1285.71 739 1285.71C481.907 1285.71 342.739 1285.55 338.744 1285.32C335.364 1285.13 330.178 1284.67 327.22 1284.33C324.262 1284.02 318.923 1283.26 315.312 1282.65C311.702 1282.04 306.516 1281 303.789 1280.39C301.061 1279.74 296.644 1278.63 293.994 1277.91C291.343 1277.18 286.772 1275.81 283.814 1274.81C280.857 1273.82 276.017 1272.06 273.059 1270.91C270.101 1269.73 265.415 1267.78 262.688 1266.52C259.96 1265.25 255.543 1263.11 252.892 1261.74C250.242 1260.36 245.517 1257.69 242.329 1255.77C239.179 1253.9 234.416 1250.88 231.766 1249.08C229.115 1247.29 225.236 1244.54 223.123 1242.93C221.01 1241.36 217.207 1238.3 214.672 1236.2C212.137 1234.1 206.875 1229.28 202.995 1225.5C199.115 1221.71 194.198 1216.63 192.047 1214.22C189.896 1211.81 186.785 1208.11 185.095 1206C183.405 1203.9 180.293 1199.77 178.181 1196.83C176.068 1193.88 172.88 1189.14 171.074 1186.32C169.307 1183.49 166.503 1178.67 164.813 1175.61C163.123 1172.55 160.818 1168.08 159.666 1165.67C158.513 1163.27 156.439 1158.6 155.056 1155.35C153.712 1152.1 151.561 1146.41 150.293 1142.74C149.026 1139.07 147.297 1133.56 146.452 1130.5C145.607 1127.45 144.339 1122.21 143.609 1118.85C142.918 1115.48 141.881 1109.9 141.343 1106.42C140.805 1102.94 140.076 1097.09 139.691 1093.42C139.038 1087.04 139 1068.69 139 703.319C139 337.947 139.038 319.598 139.691 313.214C140.076 309.544 140.805 303.696 141.343 300.217C141.881 296.738 142.841 291.501 143.456 288.558C144.07 285.614 145.184 280.951 145.876 278.236C146.606 275.522 148.181 270.247 149.41 266.577C150.601 262.907 152.675 257.212 153.981 253.962C155.287 250.713 157.476 245.705 158.782 242.877C160.127 240.048 162.393 235.537 163.853 232.861C165.274 230.147 167.617 226.018 169.038 223.687C170.46 221.317 173.033 217.303 174.723 214.78C176.414 212.257 179.333 208.205 181.138 205.796C182.944 203.388 186.324 199.145 188.59 196.431C190.857 193.717 196.542 187.677 201.189 183.013C205.876 178.388 211.945 172.73 214.672 170.475C217.399 168.181 221.663 164.855 224.083 163.059C226.503 161.224 230.921 158.128 233.878 156.178C236.836 154.228 241.676 151.208 244.634 149.488C247.592 147.806 253.046 144.901 256.734 143.066C260.421 141.231 266.222 138.594 269.602 137.179C272.982 135.765 279.282 133.433 283.622 131.98C287.963 130.566 294.186 128.693 297.451 127.852C300.716 127.011 306.017 125.788 309.166 125.176C312.355 124.526 317.271 123.685 320.114 123.265C322.956 122.844 327.105 122.347 329.333 122.08C331.561 121.85 335.709 121.506 338.552 121.353C341.394 121.2 521.164 121.009 738.04 121.009V121.009ZM268.718 422.543L267.835 423.881L268.065 939.179C269.333 941.549 270.255 942.581 270.985 943.002C272.291 943.766 273.059 943.766 416.529 943.881C544.864 943.957 560.959 943.919 562.419 943.384C563.417 943.04 564.531 942.199 565.376 941.205C566.26 940.135 566.875 938.912 567.105 937.65C567.297 936.618 570.408 916.128 574.019 892.16C577.592 868.192 580.549 848.123 580.549 847.549C580.549 846.938 580.319 846.02 580.088 845.485C579.819 844.912 579.128 844.224 578.552 843.956C577.63 843.497 560.959 843.421 472.419 843.421H367.361C367.361 457.673 367.284 423.881 366.823 422.81C366.554 422.161 365.94 421.243 365.44 420.823C364.595 420.058 363.981 420.058 318.424 419.943C275.095 419.867 272.214 419.905 270.946 420.517C270.216 420.899 269.218 421.817 268.718 422.543V422.543ZM1093.55 461.917C1090.36 462.146 1085.44 462.566 1082.6 462.91C1079.76 463.216 1074.22 463.981 1070.31 464.631C1066.39 465.242 1060.01 466.466 1056.09 467.307C1052.18 468.186 1045.8 469.791 1041.88 470.9C1037.96 472.047 1032.16 473.843 1029.01 474.914C1025.82 476.022 1020.64 477.934 1017.49 479.195C1014.3 480.495 1008.88 482.827 1005.39 484.432C1001.89 486.038 996.785 488.561 994.058 490.052C991.292 491.542 986.913 494.104 984.262 495.747C981.612 497.391 977.195 500.296 974.467 502.246C971.702 504.195 967.668 507.177 965.44 508.936C963.213 510.694 960.101 513.255 958.526 514.593C956.951 515.969 953.417 519.142 950.69 521.703C947.963 524.226 943.738 528.47 941.279 531.107C938.859 533.745 935.21 537.873 933.174 540.282C931.177 542.69 928.027 546.666 926.221 549.074C924.416 551.482 920.921 556.49 918.501 560.16C916.081 563.829 913.046 568.646 911.778 570.863C910.472 573.08 908.321 577.018 906.938 579.655C905.556 582.293 903.366 586.766 902.137 589.594C900.869 592.423 898.795 597.354 897.527 600.489C896.26 603.662 894.262 609.052 893.072 612.53C891.842 616.009 890.114 621.437 889.192 624.572C888.27 627.745 886.887 632.714 886.157 635.658C885.428 638.601 884.39 643.074 883.853 645.597C883.315 648.12 882.47 652.783 881.932 655.918C881.394 659.091 880.626 664.481 880.204 667.959C879.781 671.438 879.243 676.331 879.013 678.854C878.782 681.377 878.437 687.302 878.283 692.042C878.091 696.897 878.091 707.295 878.245 715.934C878.437 724.344 878.859 734.398 879.205 738.297C879.512 742.196 880.127 748.198 880.549 751.676C880.972 755.155 881.778 760.736 882.316 764.1C882.854 767.464 883.891 773.16 884.621 776.715C885.351 780.27 886.926 786.921 888.078 791.432C889.23 795.943 891.266 802.9 892.611 806.914C893.994 810.928 896.029 816.509 897.182 819.338C898.334 822.167 900.178 826.486 901.254 828.895C902.367 831.303 904.749 836.119 906.554 839.598C908.36 843.077 911.394 848.505 913.315 851.64C915.197 854.812 918.001 859.17 919.461 861.387C920.959 863.605 923.955 867.733 926.106 870.562C928.257 873.391 931.714 877.71 933.789 880.119C935.863 882.527 940.741 887.688 944.659 891.587C948.577 895.486 954.032 900.532 956.798 902.825C959.525 905.081 963.866 908.521 966.401 910.394C968.936 912.306 973.43 915.44 976.388 917.39C979.346 919.339 984.262 922.359 987.335 924.118C990.408 925.876 995.671 928.59 999.051 930.234C1002.43 931.84 1007.43 934.057 1010.19 935.165C1012.92 936.274 1017.41 937.956 1020.18 938.873C1022.91 939.791 1027.51 941.243 1030.36 942.084C1033.2 942.964 1038.65 944.416 1042.46 945.334C1046.26 946.251 1052.64 947.589 1056.67 948.315C1060.66 949.042 1066.66 949.997 1069.92 950.418C1073.19 950.877 1078.56 951.488 1081.83 951.832C1085.71 952.215 1093.28 952.52 1103.72 952.635C1113.75 952.75 1122.59 952.673 1127.54 952.406C1131.88 952.138 1138.68 951.603 1142.71 951.221C1146.71 950.8 1154.31 949.845 1159.61 949.118C1164.88 948.354 1171.64 947.245 1174.6 946.595C1177.55 945.945 1182.47 944.646 1185.54 943.766C1188.62 942.849 1192.92 941.396 1195.15 940.555C1198.26 939.409 1199.64 938.606 1201.25 937.191C1202.6 936.006 1203.71 934.516 1204.52 932.872L1205.71 930.387C1205.9 863.566 1205.82 850.225 1205.56 848.887C1205.25 847.396 1204.75 846.479 1203.67 845.37C1202.79 844.453 1201.71 843.765 1200.91 843.612C1200.18 843.459 1199.1 843.421 1198.49 843.574C1197.91 843.688 1197.18 844.071 1196.87 844.376C1196.57 844.682 1193.99 845.714 1191.19 846.67C1188.42 847.626 1183.01 849.155 1179.2 850.111C1175.4 851.028 1169.6 852.213 1166.34 852.748C1163.07 853.283 1157.08 853.971 1153.08 854.277C1149.05 854.583 1141.29 855.042 1135.8 855.309C1130.27 855.539 1121.55 855.653 1116.21 855.539C1110.91 855.424 1104.34 855.042 1101.61 854.736C1098.85 854.392 1094.47 853.78 1091.82 853.322C1089.17 852.901 1084.25 851.831 1080.87 850.99C1077.49 850.149 1072.11 848.581 1068.96 847.549C1065.77 846.479 1060.78 844.606 1057.82 843.344C1054.86 842.083 1050.18 839.904 1047.45 838.49C1044.68 837.075 1040.81 834.896 1038.81 833.635C1036.81 832.411 1033.08 829.85 1030.55 827.977C1027.71 825.875 1023.52 822.128 1019.6 818.229C1015.84 814.445 1011.8 810.011 1009.77 807.296C1007.85 804.773 1005.43 801.409 1004.35 799.842C1003.31 798.275 1001.2 794.911 999.704 792.388C998.206 789.865 995.786 785.316 994.288 782.258C992.828 779.2 990.908 774.918 990.024 772.701C989.141 770.484 987.796 767.005 987.105 764.979C986.375 762.915 985.184 758.939 984.455 756.187C983.725 753.397 982.688 748.962 982.15 746.325C981.612 743.687 980.921 740.017 980.613 738.106C980.306 736.194 979.807 732.448 979.499 729.696C979.154 726.944 978.693 720.942 978.462 716.316C978.193 711.27 978.116 704.084 978.27 698.35C978.424 693.113 978.77 686.117 979.115 682.868C979.423 679.619 980.076 674.305 980.613 671.132C981.151 667.921 981.996 663.258 982.534 660.811C983.072 658.326 984.109 654.16 984.839 651.522C985.568 648.884 986.836 644.756 987.643 642.347C988.488 639.939 990.063 635.619 991.177 632.791C992.329 629.962 994.634 624.878 996.324 621.514C998.014 618.15 1001.13 612.798 1003.28 609.663C1005.39 606.491 1008.5 602.209 1010.19 600.107C1011.88 598.004 1015.91 593.608 1019.22 590.321C1022.48 587.071 1027.05 582.866 1029.4 581.032C1031.7 579.197 1035.97 576.138 1038.81 574.227C1041.65 572.354 1046.91 569.372 1050.52 567.614C1054.1 565.855 1058.71 563.791 1060.7 563.027C1062.7 562.224 1066.35 560.962 1068.77 560.16C1071.19 559.357 1075.68 558.095 1078.76 557.331C1081.83 556.605 1086.48 555.649 1089.13 555.228C1091.78 554.808 1095.81 554.234 1098.15 553.967C1100.92 553.623 1107.18 553.47 1116.21 553.508C1123.81 553.508 1132.61 553.738 1135.8 554.005C1138.95 554.234 1144.33 554.77 1147.71 555.19C1151.09 555.611 1156.89 556.452 1160.57 557.101C1164.26 557.713 1169.1 558.669 1171.33 559.204C1173.56 559.739 1177.25 560.81 1179.59 561.536C1181.89 562.3 1185.62 563.638 1187.85 564.556C1190.08 565.435 1193.53 567.002 1195.53 567.996C1198.41 569.449 1199.6 569.869 1201.18 569.869C1202.6 569.907 1203.44 569.678 1204.25 569.105C1204.83 568.684 1205.75 567.537 1206.29 566.62L1207.25 564.938C1207.05 482.33 1207.02 479.807 1206.36 478.239C1205.98 477.36 1204.98 475.869 1204.13 474.952C1203.33 474.034 1202.21 473.079 1201.68 472.811C1201.14 472.544 1198.99 471.664 1196.87 470.9C1194.76 470.174 1190.88 468.95 1188.23 468.224C1185.58 467.498 1181.78 466.58 1179.78 466.16C1177.78 465.739 1173.52 465.051 1170.37 464.631C1167.18 464.21 1161.77 463.599 1158.27 463.255C1154.77 462.949 1149.44 462.49 1146.36 462.299C1143.29 462.069 1134.3 461.725 1126.39 461.534C1118.48 461.343 1110.52 461.19 1108.72 461.228C1106.91 461.267 1104.07 461.343 1102.38 461.42C1100.69 461.458 1096.7 461.687 1093.55 461.917V461.917ZM818.705 539.938C815.863 540.358 811.1 541.352 808.142 542.078C805.184 542.805 800.767 544.104 798.347 544.945C795.927 545.786 792.278 547.163 790.28 548.004C788.283 548.844 784.634 550.526 782.214 551.788C779.794 553.011 775.453 555.42 772.611 557.178C769.768 558.936 765.351 561.803 762.854 563.6C760.357 565.397 756.093 568.646 753.443 570.825C750.793 573.004 745.3 578.088 741.266 582.102C737.271 586.116 732.355 591.391 730.396 593.799C728.398 596.208 726.554 598.234 726.286 598.31C725.863 598.387 725.748 597.163 725.748 591.697C725.748 587.759 725.44 581.949 724.979 577.553C724.557 573.463 723.789 567.996 723.289 565.435C722.79 562.836 721.907 559.51 721.369 558.057C720.831 556.605 719.986 554.426 719.487 553.279C718.949 552.132 718.027 550.488 717.412 549.647C716.798 548.806 715.53 547.736 714.608 547.277L712.88 546.436C637.323 546.398 628.257 546.513 627.873 546.857C627.604 547.124 627.22 547.851 626.99 548.5C626.721 549.303 626.875 551.482 627.412 555.955C627.835 559.433 628.411 565.091 628.718 568.57C629.064 572.048 629.487 578.661 629.717 583.287C629.947 587.912 630.332 597.278 630.562 604.121C630.869 612.492 631.061 669.259 631.215 777.862L631.446 939.179C632.675 941.243 633.635 942.199 634.365 942.62C635.632 943.384 636.362 943.384 681.458 943.384C727.131 943.384 727.246 943.384 728.321 942.581C728.898 942.161 729.704 941.205 730.05 940.479C730.703 939.256 730.741 932.26 730.741 810.852V682.486C735.697 677.898 738.501 675.452 740.152 674.114C741.842 672.738 744.877 670.559 746.875 669.259C748.872 667.959 752.675 665.742 755.325 664.366C757.976 662.99 762.124 661.04 764.544 660.008C766.964 658.976 771.151 657.332 773.84 656.338C776.567 655.383 781.215 653.892 784.211 653.051C787.246 652.172 792.624 650.91 796.234 650.184C799.807 649.458 804.839 648.617 807.374 648.311C809.909 647.967 814.749 647.508 818.129 647.279C821.932 647.011 827.809 646.935 833.571 647.088C840.869 647.279 843.174 647.202 844.134 646.82C844.826 646.514 845.786 645.788 846.286 645.176L847.169 644.068C847.131 544.64 847.092 542.499 846.401 541.161C845.978 540.243 845.172 539.441 844.288 539.058C843.136 538.485 841.868 538.37 836.452 538.409C832.918 538.447 828.654 538.6 826.964 538.791C825.274 538.944 821.548 539.479 818.705 539.938V539.938Z" fill="white"/>
</svg>
