<svg width="1600" height="1407" viewBox="0 0 1600 1407" fill="none" xmlns="http://www.w3.org/2000/svg">
<path fill-rule="evenodd" clip-rule="evenodd" d="M916.967 0.0502705C922.723 0.142495 928.338 0.511395 931.005 0.926408C933.439 1.34142 937.463 2.12533 939.896 2.63257C942.33 3.18592 1026.65 31.1301 1127.31 64.7C1227.97 98.2699 1311.78 126.445 1313.55 127.275C1315.33 128.105 1317.91 129.442 1319.17 130.318C1320.48 131.194 1323.05 133.315 1324.97 135.114C1326.84 136.912 1329.32 139.633 1330.4 141.155C1331.52 142.676 1333.4 145.904 1334.57 148.302C1335.69 150.7 1337.14 154.343 1338.82 160.061L1338.96 697.271C1339.06 1188.42 1339.01 1234.9 1338.31 1239.55C1337.93 1242.37 1337.05 1246.29 1336.39 1248.32C1335.74 1250.34 1334.33 1253.76 1333.26 1255.92C1332.18 1258.09 1330.26 1261.41 1329 1263.3C1327.73 1265.19 1324.46 1268.93 1321.74 1271.6C1319.03 1274.28 1315.47 1277.41 1313.79 1278.57C1312.1 1279.72 1309.25 1281.52 1307.47 1282.58C1305.69 1283.64 1302.7 1285.07 1300.92 1285.85C1299.14 1286.59 1216.55 1313.38 1117.48 1345.38C1018.37 1377.38 935.825 1403.95 934.047 1404.41C932.269 1404.87 928.478 1405.61 925.624 1406.07C921.88 1406.67 917.996 1406.9 911.351 1406.9C904.894 1406.9 900.776 1406.67 897.313 1406.11C894.599 1405.7 890.2 1404.73 887.486 1403.99C884.772 1403.3 721.691 1348.06 525.059 1281.33C328.426 1214.56 165.954 1159.23 164.035 1158.35C162.117 1157.43 159.262 1155.81 157.718 1154.71C156.174 1153.65 153.413 1151.2 151.635 1149.36C149.81 1147.47 147.61 1144.93 146.721 1143.64C145.832 1142.4 144.241 1139.44 143.165 1137.18C142.042 1134.93 140.685 1131.28 139 1125.2V718.252C139 327.449 139.047 311.171 139.842 308.082C140.31 306.283 141.246 303.517 141.901 301.857C142.556 300.197 144.054 297.199 145.271 295.216C146.44 293.187 149.108 289.821 151.167 287.654C153.226 285.487 156.174 282.858 157.718 281.798C159.262 280.691 161.696 279.261 163.099 278.57C164.503 277.878 328.052 215.718 526.463 140.463C778.828 44.7333 888.749 3.23203 892.165 2.40201C894.88 1.75643 898.764 1.01863 900.822 0.741958C902.881 0.511395 905.174 0.188608 905.97 0.096383C906.765 0.00415796 911.679 -0.0419545 916.967 0.0502705V0.0502705ZM658.19 298.583C443.308 346.586 435.072 348.476 431.235 350.321C428.24 351.796 426.415 353.088 423.935 355.532C422.157 357.33 420.051 359.866 419.349 361.111C418.647 362.402 417.477 364.985 416.822 366.875L415.558 370.334L415.09 1012.22C413.499 1016.88 412.236 1019.55 411.253 1021.17C410.271 1022.78 408.071 1025.36 406.387 1026.93C404.702 1028.45 402.175 1030.43 400.771 1031.22C399.367 1032.05 370.776 1045.56 337.177 1061.24C303.578 1076.92 275.173 1090.38 274.004 1091.16C272.834 1091.95 270.915 1093.61 269.652 1094.81C268.435 1096.05 266.797 1097.99 266.048 1099.14C265.3 1100.29 264.177 1102.55 263.615 1104.21C262.632 1107.03 262.539 1108 262.539 1118.51C262.539 1128.33 262.632 1130.13 263.428 1132.34C263.896 1133.73 264.925 1136.12 265.768 1137.65C266.657 1139.35 268.716 1141.93 271.196 1144.38C274.425 1147.56 275.969 1148.71 279.385 1150.37C281.725 1151.53 284.954 1152.82 286.638 1153.28C288.323 1153.69 424.637 1172 589.636 1194C754.635 1215.94 891.089 1233.93 892.867 1233.93C894.833 1233.97 897.266 1233.61 898.951 1233.1C900.495 1232.59 903.349 1231.16 905.268 1229.87C907.187 1228.58 909.807 1226.27 911.071 1224.75C912.287 1223.28 914.159 1220.37 915.142 1218.34C916.124 1216.31 917.248 1213.41 917.669 1211.89C918.043 1210.37 918.371 1208.52 918.371 1207.74C918.371 1206.95 918.464 1205.89 918.605 1205.34C918.839 1204.37 919.119 1204.28 921.646 1204.28H924.454C924.454 282.812 924.454 272.022 923.565 268.656C923.097 266.765 922.114 264.044 921.412 262.661C920.71 261.278 919.26 259.018 918.183 257.681C917.107 256.344 915.095 254.361 913.691 253.254C912.287 252.147 909.76 250.58 908.076 249.796C906.391 249.012 903.864 248.043 902.46 247.674C901.056 247.306 898.015 246.89 895.675 246.752C892.306 246.568 890.434 246.752 886.316 247.628C883.508 248.274 780.84 271.192 658.19 298.583V298.583Z" fill="white"/>
</svg>
