<svg width="1600" height="1287" viewBox="0 0 1600 1287" fill="none" xmlns="http://www.w3.org/2000/svg">
<path fill-rule="evenodd" clip-rule="evenodd" d="M737.968 121.009C999.563 120.971 1134.37 121.048 1138.56 121.315C1142.06 121.545 1146.63 121.889 1148.74 122.119C1150.85 122.31 1154.92 122.846 1157.76 123.267C1160.61 123.65 1165.18 124.453 1167.94 124.989C1170.71 125.525 1175.01 126.481 1177.54 127.094C1180.08 127.744 1183.96 128.777 1186.19 129.428C1188.41 130.04 1192.29 131.265 1194.83 132.106C1197.36 132.948 1201.93 134.632 1205.01 135.857C1208.08 137.081 1212.73 139.033 1215.38 140.257C1218.03 141.443 1222.33 143.548 1224.98 144.926C1227.63 146.342 1232.12 148.829 1234.96 150.513C1237.81 152.196 1242.15 154.913 1244.57 156.52C1246.99 158.166 1251.06 160.997 1253.59 162.911C1256.13 164.786 1259.93 167.771 1262.04 169.493C1264.15 171.253 1268.38 174.965 1271.45 177.796C1274.52 180.59 1279.29 185.373 1282.09 188.358C1284.86 191.381 1288.54 195.552 1290.31 197.657C1292.04 199.761 1295.15 203.741 1297.22 206.458C1299.26 209.175 1302.56 213.92 1304.56 216.981C1306.59 220.042 1309.74 225.208 1311.63 228.461C1313.47 231.714 1316.23 236.994 1317.77 240.132C1319.31 243.308 1321.69 248.627 1323.11 251.995C1324.49 255.362 1326.68 261.14 1327.91 264.814C1329.14 268.487 1330.87 274.113 1331.75 277.25C1332.6 280.426 1333.9 285.899 1334.63 289.496C1335.36 293.093 1336.32 298.335 1336.74 301.167C1337.13 303.998 1337.78 308.935 1338.17 312.073C1338.82 317.506 1338.86 338.629 1338.97 699.136C1339.05 968.224 1338.97 1082.49 1338.67 1087.35C1338.43 1091.14 1338.01 1096.57 1337.67 1099.4C1337.36 1102.23 1336.59 1107.59 1335.94 1111.26C1335.32 1114.94 1334.29 1120.18 1333.63 1122.93C1333.02 1125.69 1331.64 1130.86 1330.6 1134.41C1329.6 1137.97 1327.76 1143.6 1326.57 1146.85C1325.38 1150.1 1323.38 1155.27 1322.07 1158.33C1320.77 1161.39 1318.12 1166.98 1316.2 1170.77C1314.28 1174.56 1311.24 1180.07 1309.48 1183.01C1307.71 1185.96 1304.94 1190.36 1303.33 1192.77C1301.68 1195.18 1298.84 1199.24 1296.92 1201.76C1295.03 1204.29 1291.69 1208.5 1289.5 1211.14C1287.31 1213.78 1281.51 1219.9 1276.67 1224.76C1271.8 1229.58 1265.81 1235.21 1263.39 1237.24C1260.97 1239.23 1256.74 1242.56 1253.98 1244.62C1251.21 1246.69 1246.56 1249.94 1243.61 1251.89C1240.65 1253.84 1235.46 1257.02 1232.08 1258.93C1228.7 1260.88 1223.25 1263.75 1219.99 1265.36C1216.72 1266.93 1211.34 1269.38 1208.08 1270.72C1204.81 1272.1 1198.32 1274.47 1193.68 1276C1189.03 1277.53 1182.04 1279.6 1178.12 1280.55C1174.2 1281.51 1168.67 1282.73 1165.83 1283.23C1162.99 1283.77 1158.07 1284.53 1154.88 1284.95C1151.73 1285.37 1146.63 1285.95 1143.55 1286.22C1138.98 1286.64 1065.47 1286.71 738.544 1286.71C357.655 1286.71 338.797 1286.68 332.383 1286.03C328.696 1285.64 323.242 1284.99 320.284 1284.57C317.327 1284.15 312.334 1283.27 309.146 1282.66C305.997 1282.01 301.119 1280.9 298.392 1280.21C295.665 1279.52 291.325 1278.3 288.79 1277.53C286.255 1276.77 281.685 1275.23 278.612 1274.12C275.539 1273.01 270.7 1271.1 267.858 1269.88C265.016 1268.69 259.485 1266.09 255.567 1264.1C251.65 1262.15 246.042 1259.12 243.085 1257.36C240.128 1255.6 235.557 1252.7 232.907 1250.94C230.257 1249.18 225.763 1245.96 222.921 1243.82C220.079 1241.67 215.739 1238.23 213.319 1236.2C210.899 1234.14 205.253 1228.82 200.836 1224.38C196.381 1219.94 190.966 1214.16 188.738 1211.52C186.549 1208.88 183.207 1204.67 181.325 1202.15C179.405 1199.62 176.486 1195.49 174.796 1192.96C173.068 1190.44 170.225 1185.96 168.459 1183.01C166.692 1180.07 163.312 1173.79 160.931 1169.05C158.588 1164.3 155.554 1157.68 154.209 1154.31C152.865 1150.95 150.676 1144.9 149.37 1140.92C148.026 1136.94 146.182 1130.47 145.184 1126.57C144.223 1122.67 142.994 1117.16 142.495 1114.32C141.957 1111.49 141.189 1106.6 140.767 1103.42C140.344 1100.28 139.768 1095.27 139.499 1092.32C139.077 1087.92 139 1018.31 139 703.536C139 338.17 139.038 319.802 139.691 313.412C140.075 309.738 140.805 303.884 141.343 300.401C141.881 296.919 142.841 291.677 143.455 288.73C144.07 285.784 145.184 281.115 145.875 278.398C146.605 275.681 148.179 270.401 149.408 266.727C150.599 263.054 152.673 257.352 153.979 254.099C155.285 250.847 157.474 245.834 158.78 243.002C160.124 240.17 162.39 235.655 163.85 232.976C165.271 230.259 167.614 226.127 169.035 223.792C170.456 221.42 173.029 217.402 174.719 214.876C176.409 212.351 179.328 208.295 181.133 205.884C182.938 203.473 186.318 199.225 188.584 196.509C190.85 193.792 196.535 187.746 201.182 183.077C205.868 178.447 211.936 172.783 214.663 170.526C217.39 168.23 221.653 164.901 224.073 163.102C226.493 161.265 230.91 158.166 233.867 156.214C236.824 154.263 241.664 151.24 244.621 149.518C247.579 147.834 253.033 144.926 256.72 143.089C260.407 141.252 266.206 138.612 269.586 137.196C272.966 135.78 279.265 133.446 283.605 131.992C287.945 130.576 294.167 128.701 297.432 127.859C300.696 127.017 305.997 125.793 309.146 125.18C312.334 124.53 317.25 123.688 320.092 123.267C322.935 122.846 327.083 122.349 329.31 122.081C331.538 121.851 335.686 121.507 338.528 121.354C341.37 121.201 521.118 121.009 737.968 121.009V121.009ZM513.667 418.606C502.145 418.836 486.167 419.218 478.14 419.41C470.113 419.639 454.558 420.06 443.573 420.366C432.589 420.672 421.105 420.94 418.032 420.94C414.345 420.94 412.156 421.132 411.503 421.438C410.965 421.706 410.235 422.509 409.89 423.236C409.237 424.499 409.198 437.701 409.198 682.49C409.198 938.644 409.237 940.405 409.966 942.05C410.504 943.16 411.119 943.81 412.079 944.231C413.27 944.729 419.799 944.805 462.969 944.805C509.366 944.805 512.592 944.767 513.936 944.155C514.704 943.772 515.741 942.854 516.241 942.127L517.124 940.787V777.964C531.873 778.194 540.361 778.5 545.546 778.73C551.576 779.036 561.216 779.112 572.431 778.998C582.033 778.883 592.249 778.577 595.092 778.347C597.934 778.117 602.888 777.697 606.038 777.352C609.226 777.046 614.833 776.357 618.52 775.821C622.207 775.324 628.084 774.367 631.579 773.717C635.074 773.105 640.95 771.88 644.638 771.038C648.325 770.196 654.201 768.742 657.696 767.786C661.191 766.829 667.145 765.03 670.947 763.768C674.749 762.543 679.934 760.706 682.469 759.673C685.004 758.602 689.075 756.841 691.495 755.693C693.915 754.545 698.14 752.364 700.905 750.834C703.67 749.303 708.855 746.089 712.427 743.716C715.999 741.344 721.184 737.593 723.95 735.412C726.715 733.231 730.94 729.596 733.359 727.415C735.779 725.195 739.697 721.33 742.078 718.805C744.421 716.317 747.532 712.873 748.915 711.19C750.336 709.506 752.986 706.139 754.829 703.728C756.673 701.317 759.63 696.916 761.397 693.97C763.164 691.023 765.929 686.049 767.542 682.873C769.155 679.735 771.537 674.645 772.843 671.584C774.11 668.523 776.222 662.936 777.528 659.148C778.796 655.359 780.639 649.16 781.561 645.372C782.521 641.583 783.712 635.997 784.211 632.935C784.749 629.874 785.44 624.976 785.786 622.029C786.132 618.968 786.516 611.889 786.631 605.575C786.746 598.993 786.669 591.225 786.4 586.442C786.132 582.041 785.594 575.727 785.21 572.475C784.787 569.222 784.019 564.133 783.481 561.186C782.944 558.24 781.83 553.074 780.985 549.706C780.178 546.339 778.642 541.02 777.605 537.844C776.568 534.706 774.84 529.884 773.764 527.129C772.65 524.374 770.576 519.744 769.155 516.797C767.696 513.851 765.43 509.527 764.086 507.231C762.741 504.935 759.976 500.534 757.902 497.473C755.866 494.411 752.294 489.59 749.99 486.758C747.724 483.926 743.768 479.449 741.233 476.847C738.698 474.245 734.55 470.265 731.977 468.046C729.442 465.826 725.294 462.421 722.759 460.507C720.262 458.594 716.268 455.762 713.964 454.194C711.659 452.663 707.741 450.214 705.322 448.76C702.902 447.344 698.216 444.818 694.952 443.173C691.687 441.489 687.27 439.423 685.158 438.543C683.045 437.624 678.897 435.979 675.94 434.831C672.982 433.721 667.529 431.884 663.841 430.736C660.154 429.588 654.009 427.905 650.207 426.91C646.404 425.953 640.874 424.652 637.916 424.04C634.959 423.427 629.351 422.394 625.434 421.744C621.516 421.093 616.177 420.29 613.527 419.984C610.877 419.677 605.884 419.142 602.389 418.797C597.242 418.262 590.367 418.147 566.094 418.07C549.617 417.994 535.79 417.994 535.368 418.07C534.945 418.147 525.19 418.415 513.667 418.606V418.606ZM967.262 542.665C963.767 543.086 958.237 543.966 954.972 544.578C951.707 545.229 946.33 546.415 943.066 547.257C939.801 548.099 934.962 549.477 932.311 550.357C929.661 551.199 924.745 552.959 921.365 554.298C917.985 555.637 913.146 557.704 910.611 558.89C908.076 560.076 904.427 561.913 902.545 562.985C900.663 564.056 897.284 566.161 895.056 567.615C892.828 569.107 889.986 571.059 888.719 572.015C887.451 572.972 884.878 575.115 882.957 576.722C881.037 578.329 877.312 581.888 874.661 584.567C872.011 587.284 868.324 591.416 866.481 593.712C864.637 596.008 861.872 599.835 860.297 602.131C858.761 604.427 856.264 608.674 854.805 611.506C853.307 614.338 851.156 619.083 849.965 622.029C848.813 624.976 847.277 629.453 846.547 631.979C845.779 634.504 844.78 638.637 844.242 641.162C843.705 643.688 842.975 647.974 842.591 650.729C842.092 654.441 841.9 658.306 841.9 666.036C841.9 673.995 842.053 677.439 842.553 680.959C842.937 683.485 843.666 687.541 844.166 689.952C844.703 692.363 845.779 696.495 846.624 699.136C847.469 701.776 848.89 705.641 849.735 707.746C850.618 709.85 852.116 713.027 853.038 714.825C853.96 716.624 855.957 719.991 857.455 722.287C858.953 724.583 861.257 727.874 862.525 729.558C863.83 731.241 865.789 733.729 866.98 735.106C868.132 736.484 870.321 738.971 871.858 740.655C873.432 742.338 876.62 745.476 879.001 747.619C881.383 749.762 884.801 752.67 886.606 754.086C888.411 755.502 892.828 758.602 896.4 760.936C899.972 763.308 905.541 766.752 908.691 768.589C911.878 770.426 917.14 773.334 920.405 775.056C923.67 776.778 929.124 779.495 932.503 781.102C935.883 782.709 941.414 785.158 944.794 786.574C948.174 787.99 953.628 790.133 956.892 791.358C960.157 792.544 965.188 794.342 968.031 795.376C970.873 796.37 975.827 798.322 978.977 799.7C982.165 801.039 987.426 803.488 990.691 805.133C993.956 806.779 998.795 809.343 1001.45 810.873C1004.1 812.404 1007.9 814.738 1009.89 816.039C1012.01 817.417 1014.62 819.56 1016.04 821.09C1017.42 822.545 1019.19 824.955 1019.96 826.409C1020.73 827.864 1021.72 830.351 1022.15 831.92C1022.61 833.565 1022.95 835.938 1022.95 837.468C1022.95 838.923 1022.68 841.18 1022.38 842.443C1022.07 843.706 1021.19 845.964 1020.46 847.418C1019.77 848.872 1018.31 851.053 1017.27 852.201C1016.27 853.349 1014.12 855.147 1012.55 856.219C1010.59 857.52 1008.13 858.63 1004.52 859.892C1001.68 860.887 997.336 862.15 994.916 862.686C992.496 863.222 988.694 863.91 986.466 864.217C984.239 864.523 980.628 864.905 978.401 865.02C976.173 865.173 968.76 865.097 961.885 864.867C955.01 864.637 946.906 864.178 943.834 863.872C940.761 863.528 935.845 862.915 932.887 862.495C929.93 862.074 925.36 861.308 922.709 860.773C920.059 860.237 914.951 859.127 911.379 858.285C907.807 857.405 902.277 856.028 899.089 855.186C895.939 854.344 890.754 852.813 887.566 851.742C884.417 850.709 879.386 848.91 876.428 847.724C873.471 846.538 868.823 844.586 866.058 843.323C863.293 842.06 859.26 840.071 857.032 838.923C854.805 837.736 851.271 835.785 849.159 834.56C846.893 833.221 844.857 832.302 844.166 832.302C843.436 832.302 842.706 832.609 842.168 833.144C841.708 833.642 841.17 834.484 840.939 835.096C840.632 835.785 840.517 850.096 840.517 880.824C840.517 920.698 840.555 925.672 841.131 927.203C841.439 928.159 842.284 929.575 842.937 930.417C843.782 931.45 845.203 932.407 847.622 933.555C849.543 934.435 853.921 936.31 857.416 937.649C860.911 939.027 866.25 940.94 869.323 941.935C872.395 942.892 877.504 944.384 880.653 945.188C883.841 945.992 890.293 947.446 895.056 948.402C899.818 949.321 906.54 950.545 910.035 951.081C913.53 951.617 918.446 952.305 920.981 952.612C923.516 952.956 928.355 953.453 931.735 953.76C935.115 954.066 941.606 954.525 946.138 954.793C951.208 955.061 960.887 955.137 971.295 955.022C983.163 954.908 989.923 954.64 993.956 954.219C997.144 953.874 1002.14 953.224 1005.09 952.803C1008.05 952.382 1013.08 951.502 1016.23 950.89C1019.42 950.277 1024.76 949.053 1028.14 948.211C1031.52 947.331 1037.24 945.685 1040.81 944.537C1044.39 943.389 1050.18 941.323 1053.68 939.945C1057.17 938.568 1062.01 936.463 1064.43 935.2C1066.85 933.976 1070.73 931.833 1073.08 930.417C1075.42 929.04 1078.76 926.858 1080.57 925.557C1082.37 924.295 1085.56 921.807 1087.67 920.085C1089.78 918.363 1093.05 915.532 1094.93 913.771C1096.81 912.011 1100.11 908.567 1102.23 906.156C1104.38 903.746 1107.18 900.378 1108.45 898.694C1109.76 897.011 1111.83 894.064 1113.06 892.189C1114.29 890.314 1116.51 886.334 1118.05 883.388C1119.55 880.441 1121.66 875.811 1122.7 873.056C1123.77 870.301 1125.27 865.938 1126.04 863.298C1126.81 860.658 1127.85 856.448 1128.34 853.923C1128.88 851.397 1129.57 846.92 1129.88 843.974C1130.23 841.027 1130.57 835.861 1130.61 832.494C1130.69 829.126 1130.61 823.616 1130.42 820.249C1130.26 816.881 1129.84 812.404 1129.53 810.299C1129.19 808.195 1128.5 804.483 1127.96 802.072C1127.42 799.661 1126.12 795.108 1125.04 791.932C1124 788.794 1122.08 783.972 1120.74 781.217C1119.43 778.462 1117.44 774.788 1116.28 772.99C1115.17 771.191 1112.52 767.403 1110.41 764.571C1107.87 761.242 1104.34 757.224 1100.35 753.244C1096.97 749.839 1092.55 745.782 1090.55 744.214C1088.55 742.645 1085.02 740.043 1082.68 738.474C1080.33 736.905 1076.11 734.226 1073.27 732.504C1070.43 730.82 1065.39 727.95 1062.13 726.152C1058.86 724.315 1052.57 721.062 1048.11 718.881C1043.66 716.7 1037.2 713.677 1033.71 712.146C1030.21 710.616 1024.18 708.128 1020.27 706.598C1016.35 705.067 1010.47 702.848 1007.21 701.7C1003.94 700.552 997.643 698.026 993.188 696.075C988.732 694.123 980.82 690.449 975.52 687.847C969.951 685.13 964.151 681.993 961.693 680.347C958.928 678.51 956.047 676.138 953.436 673.497C950.478 670.589 949.019 668.752 947.982 666.801C947.214 665.347 946.292 663.089 945.985 661.826C945.639 660.563 945.37 658.229 945.37 656.66C945.37 655.091 945.677 652.489 946.1 650.92C946.484 649.351 947.329 647.017 947.943 645.754C948.596 644.492 950.056 642.464 951.17 641.201C952.322 639.976 954.357 638.254 955.74 637.336C957.123 636.456 959.12 635.384 960.157 634.925C961.232 634.504 964.228 633.586 966.878 632.974C969.528 632.323 974.022 631.443 976.864 631.022C979.706 630.601 984.815 630.142 988.195 630.027C991.574 629.874 998.565 629.989 1003.75 630.218C1008.93 630.486 1015.77 630.907 1018.92 631.252C1022.11 631.558 1027.18 632.17 1030.25 632.591C1033.32 633.012 1037.55 633.701 1039.66 634.083C1041.77 634.466 1046.46 635.423 1050.03 636.188C1053.6 636.953 1058.98 638.178 1061.94 638.943C1064.89 639.708 1070.27 641.316 1073.84 642.502C1077.42 643.726 1082.79 645.754 1085.75 647.017C1088.71 648.28 1093.28 650.346 1095.93 651.647C1100.38 653.829 1100.92 653.982 1103.34 653.982C1104.76 653.982 1106.53 653.714 1107.26 653.408C1107.99 653.102 1108.95 652.26 1109.37 651.609C1110.14 650.385 1110.14 649.658 1110.14 607.794C1110.14 581.391 1109.99 564.515 1109.76 563.405C1109.52 562.181 1108.87 560.956 1107.91 559.847C1106.76 558.507 1105.68 557.819 1103 556.671C1101.11 555.867 1096.81 554.298 1093.43 553.15C1090.05 552.04 1084.44 550.395 1080.95 549.553C1077.45 548.711 1072.27 547.563 1069.43 547.066C1066.58 546.53 1061.82 545.765 1058.86 545.344C1055.91 544.923 1050.38 544.234 1046.57 543.813C1042.77 543.392 1036.13 542.78 1031.79 542.436C1027.45 542.129 1019.23 541.67 1013.54 541.479C1007.86 541.288 998.488 541.135 992.804 541.173C987.119 541.173 980.436 541.364 978.017 541.517C975.597 541.709 970.758 542.206 967.262 542.665V542.665ZM568.782 515.649C587.871 515.726 592.595 515.84 596.244 516.376C598.664 516.721 603.426 517.524 606.806 518.175C610.186 518.825 615.601 520.126 618.828 521.045C622.015 521.963 627.124 523.685 630.158 524.871C633.154 526.019 637.148 527.78 639.068 528.775C640.989 529.769 643.908 531.53 645.598 532.639C647.288 533.749 649.861 535.662 651.321 536.849C652.78 538.035 655.814 540.905 658.042 543.239C660.27 545.573 663.227 549.017 664.571 550.892C665.915 552.767 668.22 556.709 669.641 559.655C671.1 562.602 673.059 567.347 673.981 570.179C674.903 573.01 676.055 577.258 676.478 579.554C676.938 581.85 677.438 585.294 677.668 587.207C677.86 589.12 678.052 595.052 678.052 600.409C678.052 607.297 677.86 611.353 677.438 614.185C677.131 616.404 676.516 619.58 676.132 621.264C675.748 622.948 674.864 625.971 674.212 627.961C673.559 629.95 671.869 633.93 670.524 636.762C669.142 639.594 666.876 643.65 665.455 645.754C663.995 647.936 661.191 651.341 658.848 653.752C656.621 656.01 653.433 658.995 651.743 660.372C650.053 661.75 646.865 664.046 644.638 665.538C642.41 666.992 638.185 669.365 635.228 670.819C632.001 672.426 627.085 674.416 622.937 675.755C619.135 677.018 613.258 678.74 609.879 679.582C606.499 680.424 601.928 681.457 599.701 681.878C597.473 682.299 593.171 682.988 590.099 683.408C587.026 683.829 582.033 684.403 578.96 684.671C575.273 684.977 566.055 685.13 551.691 685.13C537.25 685.169 527.993 684.977 524.037 684.671C520.773 684.403 518.046 684.136 518.007 684.097C517.969 684.059 517.931 646.328 517.931 600.218C517.892 554.107 518.007 516.338 518.123 516.223C518.238 516.108 524.498 515.917 532.026 515.802C539.554 515.687 556.108 515.611 568.782 515.649V515.649Z" fill="white"/>
</svg>
