<svg width="1600" height="1286" viewBox="0 0 1600 1286" fill="none" xmlns="http://www.w3.org/2000/svg">
<path fill-rule="evenodd" clip-rule="evenodd" d="M738.495 121.009C1004.01 120.971 1135.21 121.047 1139.47 121.315C1142.97 121.544 1148.15 121.965 1150.99 122.309C1153.84 122.615 1159.21 123.379 1162.9 124.029C1166.59 124.641 1172.46 125.826 1175.96 126.629C1179.45 127.47 1185.14 128.999 1188.63 130.031C1192.13 131.101 1197.47 132.898 1200.54 134.006C1203.61 135.153 1208.11 136.95 1210.53 137.944C1212.95 138.976 1218.4 141.537 1222.62 143.678C1226.85 145.818 1232.3 148.724 1234.72 150.176C1237.14 151.629 1241.48 154.343 1244.32 156.216C1247.17 158.128 1251.74 161.339 1254.5 163.403C1257.27 165.429 1262.11 169.328 1265.26 172.004C1268.44 174.718 1273.71 179.611 1276.97 182.86C1280.24 186.11 1284.92 191.117 1287.38 193.946C1289.84 196.775 1293.45 201.171 1295.41 203.694C1297.37 206.217 1301.09 211.454 1303.7 215.353C1306.28 219.252 1309.85 224.91 1311.58 227.968C1313.34 231.026 1316.26 236.607 1318.11 240.392C1319.91 244.176 1322.52 249.949 1323.83 253.198C1325.13 256.447 1327.21 262.143 1328.44 265.813C1329.67 269.482 1331.4 275.178 1332.24 278.428C1333.09 281.677 1334.31 286.952 1334.93 290.087C1335.58 293.26 1336.47 298.153 1336.89 300.981C1337.27 303.81 1337.92 308.971 1338.31 312.449C1338.96 318.451 1339 337.488 1339 703.319C1339 1069.15 1338.96 1088.19 1338.31 1094.19C1337.92 1097.67 1337.31 1102.83 1336.89 1105.66C1336.47 1108.49 1335.5 1113.76 1334.78 1117.32C1334.05 1120.87 1332.74 1126.41 1331.89 1129.55C1331.01 1132.72 1329.28 1138.3 1328.05 1141.97C1326.82 1145.64 1324.64 1151.41 1323.25 1154.78C1321.83 1158.14 1319.45 1163.49 1317.91 1166.63C1316.38 1169.8 1313.61 1175.04 1311.77 1178.29C1309.89 1181.54 1306.74 1186.7 1304.7 1189.76C1302.7 1192.81 1299.4 1197.52 1297.37 1200.27C1295.29 1203.02 1292.18 1206.96 1290.45 1209.06C1288.69 1211.16 1285 1215.33 1282.23 1218.35C1279.43 1221.33 1274.67 1226.11 1271.59 1228.9C1268.52 1231.73 1264.3 1235.44 1262.18 1237.2C1260.07 1238.92 1256.27 1241.9 1253.73 1243.77C1251.2 1245.68 1247.13 1248.51 1244.71 1250.15C1242.29 1251.76 1237.95 1254.47 1235.11 1256.16C1232.26 1257.84 1227.77 1260.32 1225.12 1261.74C1222.47 1263.11 1218.17 1265.22 1215.52 1266.4C1212.87 1267.62 1208.22 1269.57 1205.15 1270.8C1202.08 1272.02 1197.51 1273.7 1194.97 1274.54C1192.44 1275.38 1188.56 1276.61 1186.33 1277.22C1184.1 1277.87 1180.22 1278.9 1177.69 1279.55C1175.15 1280.16 1170.85 1281.12 1168.09 1281.65C1165.32 1282.19 1160.75 1282.99 1157.91 1283.37C1155.07 1283.79 1150.99 1284.33 1148.88 1284.52C1146.77 1284.75 1142.2 1285.09 1138.7 1285.32C1134.52 1285.55 999.476 1285.71 739.456 1285.71C470.602 1285.71 344.355 1285.59 339.631 1285.32C335.829 1285.09 330.452 1284.64 327.725 1284.33C324.998 1284.02 321.003 1283.53 318.891 1283.18C316.779 1282.88 312.439 1282.11 309.289 1281.46C306.101 1280.85 300.839 1279.63 297.575 1278.79C294.31 1277.95 288.088 1276.07 283.748 1274.66C279.408 1273.21 273.109 1270.87 269.729 1269.46C266.349 1268.05 260.55 1265.41 256.863 1263.57C253.175 1261.74 247.722 1258.83 244.764 1257.15C241.807 1255.43 236.967 1252.41 234.01 1250.46C231.053 1248.51 226.636 1245.41 224.216 1243.58C221.796 1241.78 217.533 1238.42 214.806 1236.16C212.079 1233.91 206.011 1228.25 201.325 1223.63C196.678 1218.96 190.993 1212.96 188.727 1210.21C186.461 1207.46 183.081 1203.25 181.276 1200.84C179.471 1198.43 176.552 1194.38 174.862 1191.86C173.172 1189.34 170.599 1185.32 169.178 1182.99C167.757 1180.62 165.414 1176.49 163.993 1173.82C162.533 1171.1 160.267 1166.59 158.923 1163.76C157.617 1160.93 155.428 1155.93 154.122 1152.68C152.816 1149.43 150.742 1143.73 149.551 1140.06C148.322 1136.39 146.748 1131.15 146.018 1128.4C145.327 1125.65 144.213 1121.02 143.598 1118.08C142.984 1115.14 142.024 1109.9 141.486 1106.42C140.948 1102.94 140.218 1097.36 139.834 1094C139.22 1088.23 139.143 1067.47 139.028 708.671C138.951 441.274 139.028 327.205 139.335 321.815C139.565 317.61 139.988 311.838 140.334 309.009C140.641 306.18 141.332 301.173 141.87 297.923C142.408 294.674 143.445 289.322 144.174 286.073C144.904 282.824 146.287 277.395 147.247 274.031C148.246 270.667 149.859 265.583 150.857 262.755C151.856 259.926 153.584 255.338 154.698 252.624C155.812 249.91 158.308 244.367 160.229 240.392C162.188 236.416 164.953 231.064 166.412 228.541C167.833 226.018 170.253 221.966 171.789 219.558C173.326 217.15 176.206 212.907 178.165 210.193C180.086 207.478 183.35 203.159 185.347 200.636C187.383 198.113 190.494 194.405 192.299 192.417C194.066 190.429 197.523 186.759 199.981 184.275C202.439 181.79 206.702 177.738 209.429 175.291C212.156 172.807 216.15 169.404 218.263 167.722C220.375 166.002 224.101 163.212 226.52 161.453C228.94 159.695 233.088 156.828 235.738 155.108C238.388 153.387 243.036 150.559 246.108 148.8C249.181 147.08 254.942 144.06 258.975 142.11C262.969 140.161 268.846 137.561 272.034 136.3C275.183 135.038 279.869 133.28 282.404 132.401C284.939 131.56 289.432 130.145 292.39 129.304C295.347 128.425 300.34 127.126 303.528 126.399C306.677 125.673 312.208 124.564 315.818 123.991C319.429 123.379 324.844 122.615 327.917 122.271C330.989 121.965 335.829 121.544 338.671 121.353C341.513 121.2 521.453 121.009 738.495 121.009V121.009ZM526.485 418.338C515.807 418.567 497.218 418.988 485.196 419.332C473.136 419.638 455.354 420.02 445.637 420.211C431.925 420.44 427.7 420.632 426.817 421.052C426.202 421.358 425.357 422.199 424.973 422.925C424.359 424.187 424.32 437.184 424.397 682.295C424.512 918.766 424.551 940.441 425.127 941.473C425.472 942.123 426.394 942.925 427.162 943.308C428.468 943.919 431.733 943.958 478.36 943.958L528.213 943.996C530.249 942.62 531.17 941.74 531.555 941.091C532.207 939.982 532.246 936.197 532.246 858.635V777.288C542.232 777.594 554.983 777.862 567.005 778.091C579.027 778.32 592.431 778.435 596.771 778.282C601.111 778.129 607.064 777.862 610.022 777.632C612.979 777.441 617.972 777.021 621.16 776.677C624.309 776.371 630.454 775.606 634.795 774.995C639.135 774.345 645.433 773.313 648.813 772.663C652.193 772.013 657.532 770.904 660.72 770.178C663.869 769.452 669.323 768.076 672.818 767.12C676.313 766.164 682.113 764.406 685.685 763.259C689.257 762.112 694.365 760.277 697.015 759.207C699.665 758.175 704.236 756.149 707.193 754.734C710.15 753.32 714.913 750.835 717.755 749.192C720.597 747.548 725.014 744.834 727.549 743.152C730.084 741.47 733.541 739.061 735.231 737.8C736.921 736.538 740.301 733.863 742.72 731.837C745.14 729.849 750.171 725.185 753.858 721.515C757.584 717.807 762.039 713.067 763.806 710.965C765.573 708.862 768.415 705.269 770.182 702.937C771.948 700.643 774.791 696.4 776.519 693.571C778.247 690.743 781.435 684.817 783.624 680.383C785.814 675.987 788.425 670.291 789.424 667.768C790.384 665.245 792.036 660.696 793.073 657.638C794.071 654.58 795.492 649.763 796.222 646.935C796.99 644.106 798.027 639.633 798.527 636.996C799.064 634.358 799.871 629.656 800.293 626.483C800.716 623.349 801.254 618.685 801.484 616.162C801.676 613.639 801.868 606.414 801.868 600.107C801.868 593.799 801.676 586.154 801.484 583.096C801.254 580.038 800.831 575.221 800.485 572.392C800.178 569.563 799.372 564.441 798.757 561.039C798.143 557.598 796.875 551.826 795.953 548.233C794.993 544.601 793.418 539.211 792.458 536.268C791.46 533.324 789.693 528.584 788.541 525.755C787.388 522.927 785.161 518.034 783.586 514.861C782.011 511.726 779.4 506.948 777.748 504.272C776.135 501.596 773.37 497.353 771.641 494.906C769.913 492.422 767.032 488.599 765.266 486.382C763.46 484.165 760.349 480.571 758.314 478.354C756.278 476.137 752.668 472.582 750.287 470.403C747.944 468.224 743.757 464.707 741.069 462.566C738.38 460.426 734.155 457.253 731.659 455.533C729.201 453.812 724.553 450.869 721.404 448.996C718.216 447.123 714.183 444.791 712.378 443.835C710.573 442.88 706.425 440.892 703.16 439.439C699.896 437.948 694.096 435.616 690.294 434.202C686.491 432.788 680.192 430.723 676.275 429.538C672.357 428.392 666.404 426.786 663.024 425.945C659.644 425.142 653.422 423.766 649.197 422.925C644.973 422.122 638.482 421.014 634.795 420.479C631.107 419.943 625.385 419.255 622.12 418.95C618.855 418.605 613.401 418.185 610.022 417.956C606.642 417.765 594.966 417.612 584.096 417.65C573.227 417.726 560.168 417.803 555.099 417.841C550.029 417.879 537.162 418.109 526.485 418.338V418.338ZM1085.12 538.179C1082.59 538.523 1077.9 539.288 1074.75 539.938C1071.57 540.549 1066.54 541.734 1063.5 542.575C1060.51 543.416 1055.86 544.907 1053.13 545.863C1050.44 546.857 1046.1 548.577 1043.45 549.724C1040.8 550.871 1035.62 553.393 1031.93 555.343C1028.24 557.331 1023.56 559.892 1021.56 561.115C1019.56 562.339 1016.11 564.518 1013.88 566.008C1011.65 567.499 1008.12 569.984 1006.01 571.551C1003.89 573.119 1000.17 576.062 997.747 578.05C995.328 580.038 989.49 585.504 984.766 590.206C980.08 594.908 976.162 598.539 976.085 598.31C976.009 598.042 975.817 594.717 975.701 590.932C975.586 587.148 975.24 581.911 974.895 579.273C974.588 576.635 973.935 572.507 973.512 570.099C973.09 567.69 972.245 563.638 971.592 561.115C970.977 558.592 970.055 555.305 969.633 553.852C969.172 552.4 968.25 550.412 967.597 549.494C966.906 548.462 965.639 547.354 964.333 546.627L962.22 545.442L870.426 545.213C868.698 546.589 867.968 547.468 867.699 548.118C867.315 549.036 867.353 550.87 867.968 557.675C868.352 562.3 868.851 570.825 869.082 576.597C869.274 582.369 869.658 594.067 869.927 602.591C870.234 613.257 870.464 667.845 870.579 778.665L870.81 939.217C872.385 941.626 873.498 942.581 874.497 943.078L876.187 943.958C975.932 943.958 978.812 943.919 980.272 943.269C981.347 942.773 982 942.123 982.461 941.167C983.114 939.829 983.152 932.872 983.152 811.616L983.114 683.441C989.259 677.478 992.409 674.726 994.099 673.464C995.789 672.203 998.631 670.33 1000.44 669.221C1002.24 668.151 1005.08 666.583 1006.77 665.742C1008.46 664.901 1012.88 663.028 1016.57 661.537C1020.25 660.085 1026.32 657.906 1030.01 656.721C1033.7 655.536 1040.19 653.701 1044.41 652.669C1048.64 651.637 1054.44 650.337 1057.28 649.84C1060.12 649.305 1065.15 648.54 1068.42 648.12C1071.68 647.699 1076.44 647.164 1078.98 646.935C1081.51 646.667 1089.12 646.438 1095.88 646.323C1105.56 646.208 1108.52 646.055 1109.78 645.597C1110.93 645.214 1111.63 644.641 1112.09 643.8C1112.74 642.615 1112.78 639.404 1112.78 591.659V540.779C1110.97 538.523 1109.9 537.606 1109.21 537.338C1108.4 536.994 1106.33 536.841 1102.87 536.879C1100.1 536.918 1095.99 537.071 1093.77 537.262C1091.54 537.453 1087.66 537.835 1085.12 538.179V538.179ZM576.223 515.128C590.587 515.09 603.415 515.205 605.797 515.434C608.101 515.664 611.942 516.084 614.246 516.39C616.551 516.734 620.622 517.422 623.272 517.995C625.922 518.531 630.416 519.601 633.258 520.404C636.1 521.206 640.594 522.659 643.244 523.653C645.894 524.609 650.042 526.367 652.462 527.514C654.882 528.699 658.338 530.572 660.144 531.757C661.949 532.904 664.945 535.121 666.865 536.65C668.785 538.179 671.704 540.855 673.356 542.614C675.007 544.372 677.389 547.124 678.579 548.692C679.808 550.259 681.69 553.011 682.766 554.808C683.88 556.605 685.377 559.357 686.146 560.924C686.914 562.491 688.104 565.244 688.796 567.04C689.487 568.837 690.486 571.934 690.985 573.921C691.523 575.909 692.252 579.464 692.637 581.758C693.174 585.084 693.289 588.333 693.289 597.431C693.251 606.032 693.097 610.046 692.598 613.486C692.252 616.009 691.484 619.985 690.87 622.278C690.255 624.572 689.18 628.012 688.45 629.924C687.72 631.835 686.184 635.275 685.032 637.569C683.841 639.863 681.806 643.418 680.461 645.406C679.117 647.393 676.198 650.91 673.97 653.204C671.743 655.459 668.555 658.441 666.865 659.817C665.175 661.193 661.987 663.487 659.76 664.978C657.532 666.43 653.307 668.839 650.35 670.253C647.392 671.706 643.244 673.464 641.132 674.229C639.019 674.955 635.294 676.14 632.874 676.866C630.454 677.593 626.306 678.739 623.656 679.351C621.006 680.001 617.05 680.88 614.823 681.301C612.595 681.721 608.178 682.409 605.029 682.83C601.841 683.25 597.193 683.785 594.658 684.015C592.124 684.244 582.522 684.512 573.342 684.626C560.476 684.818 554.061 684.741 545.381 684.244C539.236 683.9 533.897 683.632 533.59 683.632C533.091 683.632 533.014 674.076 533.014 599.916C533.014 533.286 533.129 516.16 533.475 516.008C533.744 515.931 537.777 515.702 542.424 515.511C547.071 515.32 562.281 515.128 576.223 515.128V515.128Z" fill="white"/>
</svg>
