<svg width="1600" height="1303" viewBox="0 0 1600 1303" fill="none" xmlns="http://www.w3.org/2000/svg">
<path fill-rule="evenodd" clip-rule="evenodd" d="M736.809 103.01C748.014 102.947 762.474 103.197 769.047 103.51C775.62 103.886 786.011 104.575 792.208 105.138C798.405 105.639 808.984 106.766 815.682 107.642C822.38 108.519 833.648 110.209 840.721 111.399C847.795 112.588 858.186 114.591 863.883 115.781C869.579 116.97 879.157 119.224 885.166 120.727C891.175 122.229 900.628 124.796 906.136 126.361C911.645 127.989 920.534 130.681 925.854 132.433C931.175 134.124 941.629 137.817 949.016 140.572C956.402 143.389 967.294 147.646 973.116 150.15C978.937 152.655 988.703 157.037 994.712 159.854C1000.72 162.671 1009.17 166.803 1013.49 169.057C1017.81 171.31 1025.39 175.442 1030.39 178.197C1035.4 180.951 1044.1 186.022 1049.8 189.466C1055.49 192.909 1066.2 199.795 1073.59 204.804C1080.97 209.749 1090.86 216.698 1095.49 220.141C1100.13 223.585 1108.58 230.095 1114.27 234.666C1119.97 239.236 1129.42 247.124 1135.24 252.195C1141.07 257.328 1153.65 269.285 1163.16 278.739C1172.62 288.254 1184.57 300.775 1189.7 306.66C1194.77 312.545 1202.66 321.935 1207.23 327.632C1211.8 333.329 1218.31 341.781 1221.75 346.413C1225.2 351.046 1232.15 360.937 1237.09 368.325C1242.1 375.712 1248.98 386.417 1252.43 392.114C1255.87 397.811 1260.94 406.513 1263.69 411.521C1266.45 416.53 1270.58 424.105 1272.83 428.424C1275.09 432.744 1279.22 441.196 1282.04 447.206C1284.85 453.216 1289.23 462.919 1291.74 468.804C1294.24 474.689 1298.5 485.519 1301.32 492.906C1304.07 500.294 1307.76 510.748 1309.45 516.07C1311.21 521.391 1313.9 530.281 1315.53 535.79C1317.09 541.299 1319.66 550.752 1321.16 556.762C1322.66 562.772 1324.92 572.351 1326.1 578.048C1327.29 583.745 1329.3 594.137 1330.49 601.211C1331.68 608.285 1333.37 619.554 1334.24 626.253C1335.12 632.951 1336.25 643.531 1336.75 649.729C1337.31 655.927 1338 666.319 1338.37 672.892C1338.69 679.466 1339 692.926 1339 702.942C1339 712.959 1338.69 726.419 1338.37 732.992C1338 739.565 1337.31 749.958 1336.75 756.155C1336.25 762.353 1335.12 772.933 1334.24 779.632C1333.37 786.331 1331.68 797.599 1330.49 804.673C1329.3 811.748 1327.29 822.14 1326.1 827.837C1324.92 833.534 1322.66 843.112 1321.16 849.122C1319.66 855.132 1317.09 864.585 1315.53 870.094C1313.9 875.604 1311.21 884.493 1309.45 889.815C1307.76 895.136 1304.07 905.591 1301.32 912.978C1298.5 920.365 1294.24 931.258 1291.74 937.081C1289.23 942.903 1284.85 952.669 1282.04 958.679C1279.22 964.689 1274.96 973.453 1272.52 978.086C1270.08 982.719 1266.07 990.043 1263.69 994.363C1261.32 998.683 1256.68 1006.7 1253.37 1012.21C1250.05 1017.71 1243.23 1028.42 1238.15 1035.99C1233.08 1043.57 1225.95 1053.84 1222.26 1058.85C1218.5 1063.85 1211.8 1072.56 1207.23 1078.25C1202.66 1083.95 1194.77 1093.4 1189.7 1099.22C1184.57 1105.05 1172.62 1117.63 1163.16 1127.15C1153.65 1136.6 1141.07 1148.56 1135.24 1153.69C1129.42 1158.76 1119.97 1166.65 1114.27 1171.22C1108.58 1175.79 1099.56 1182.74 1094.24 1186.62C1088.92 1190.56 1079.03 1197.45 1072.33 1201.96C1065.64 1206.46 1055.49 1212.98 1049.8 1216.42C1044.1 1219.86 1035.4 1224.93 1030.39 1227.69C1025.39 1230.44 1017.81 1234.57 1013.49 1236.83C1009.17 1239.08 1000.72 1243.21 994.712 1246.03C988.703 1248.85 978.937 1253.23 973.116 1255.73C967.294 1258.24 956.402 1262.5 949.016 1265.31C941.629 1268.07 931.175 1271.76 925.854 1273.45C920.534 1275.2 911.645 1277.9 906.136 1279.52C900.628 1281.09 891.175 1283.66 885.166 1285.16C879.157 1286.66 869.579 1288.91 863.883 1290.1C858.186 1291.29 847.795 1293.3 840.721 1294.49C833.648 1295.68 822.38 1297.37 815.682 1298.24C808.984 1299.12 798.405 1300.25 792.208 1300.75C786.011 1301.31 775.62 1302 769.047 1302.37C762.474 1302.69 749.016 1303 739 1303C728.984 1303 715.526 1302.69 708.953 1302.37C702.38 1302 691.989 1301.31 685.792 1300.75C679.595 1300.25 669.016 1299.12 662.318 1298.24C655.62 1297.37 644.352 1295.68 637.279 1294.49C630.205 1293.3 619.814 1291.29 614.117 1290.1C608.421 1288.91 598.844 1286.66 592.834 1285.16C586.825 1283.66 577.372 1281.09 571.864 1279.52C566.355 1277.9 557.466 1275.2 552.146 1273.45C546.825 1271.76 536.371 1268.07 528.984 1265.31C521.598 1262.5 510.768 1258.24 504.884 1255.73C499 1253.23 489.297 1248.85 483.288 1246.03C477.279 1243.21 468.828 1239.08 464.509 1236.83C460.189 1234.57 452.615 1230.44 447.607 1227.69C442.599 1224.93 433.898 1219.86 428.202 1216.42C422.505 1212.98 411.801 1206.09 404.415 1201.08C397.028 1196.14 387.138 1189.19 382.505 1185.74C377.873 1182.3 369.423 1175.79 363.726 1171.22C358.03 1166.65 348.64 1158.76 342.756 1153.69C336.872 1148.56 324.352 1136.6 314.837 1127.15C305.385 1117.63 293.429 1105.05 288.296 1099.22C283.225 1093.4 275.338 1083.95 270.768 1078.25C266.199 1072.56 259.689 1064.1 256.246 1059.47C252.803 1054.84 245.854 1044.95 240.909 1037.56C235.901 1030.17 229.016 1019.47 225.573 1013.77C222.13 1008.07 217.059 999.371 214.305 994.363C211.551 989.355 207.419 981.78 205.166 977.46C202.912 973.14 198.781 964.689 195.964 958.679C193.147 952.669 188.765 942.903 186.261 937.081C183.757 931.258 179.501 920.365 176.684 912.978C173.93 905.591 170.236 895.136 168.546 889.815C166.793 884.493 164.102 875.604 162.474 870.094C160.909 864.585 158.343 855.132 156.84 849.122C155.338 843.112 153.085 833.534 151.895 827.837C150.706 822.14 148.703 811.748 147.513 804.673C146.324 797.599 144.634 786.331 143.757 779.632C142.881 772.933 141.754 762.353 141.254 756.155C140.69 749.958 140.002 739.565 139.626 732.992C139.313 726.419 139 712.959 139 702.942C139 692.926 139.313 679.466 139.626 672.892C140.002 666.319 140.69 655.927 141.254 649.729C141.754 643.531 142.881 632.951 143.757 626.253C144.634 619.554 146.324 608.285 147.513 601.211C148.703 594.137 150.706 583.745 151.895 578.048C153.085 572.351 155.338 562.772 156.84 556.762C158.343 550.752 160.909 541.299 162.474 535.79C164.102 530.281 166.793 521.391 168.546 516.07C170.236 510.748 173.93 500.294 176.684 492.906C179.501 485.519 183.757 474.689 186.261 468.804C188.765 462.919 193.147 453.216 195.964 447.206C198.781 441.196 202.912 432.744 205.166 428.424C207.419 424.105 211.551 416.53 214.305 411.521C217.059 406.513 222.13 397.811 225.573 392.114C229.016 386.417 235.901 375.712 240.909 368.325C245.854 360.937 252.803 351.046 256.246 346.413C259.689 341.781 266.199 333.329 270.768 327.632C275.338 321.935 283.225 312.545 288.296 306.66C293.429 300.775 305.385 288.254 314.837 278.739C324.352 269.285 336.872 257.328 342.756 252.195C348.64 247.124 358.03 239.236 363.726 234.666C369.423 230.095 377.873 223.585 382.505 220.141C387.138 216.698 397.028 209.749 404.415 204.804C411.801 199.795 422.505 192.909 428.202 189.466C433.898 186.022 442.599 180.951 447.607 178.197C452.615 175.442 460.189 171.31 464.509 169.057C468.828 166.803 477.279 162.671 483.288 159.854C489.297 157.037 499 152.655 504.884 150.15C510.768 147.646 521.598 143.389 528.984 140.572C536.371 137.817 546.825 134.124 552.146 132.433C557.466 130.681 566.355 127.989 571.864 126.361C577.372 124.796 586.825 122.229 592.834 120.727C598.844 119.224 608.421 116.97 614.117 115.781C619.814 114.591 630.205 112.588 637.279 111.399C644.352 110.209 655.62 108.519 662.318 107.642C669.016 106.766 679.72 105.639 686.105 105.076C692.49 104.512 701.942 103.824 707.075 103.573C712.271 103.323 725.604 103.01 736.809 103.01V103.01ZM691.426 157.663C685.229 158.164 675.651 159.228 670.142 159.917C664.634 160.605 655.745 161.857 650.424 162.734C645.103 163.61 635.776 165.3 629.767 166.553C623.757 167.742 613.742 169.996 607.545 171.498C601.347 173.063 591.081 175.818 584.696 177.696C578.311 179.574 568.045 182.83 561.848 184.895C555.651 187.024 544.634 191.093 537.435 193.973C530.236 196.853 519.532 201.36 513.648 203.99C507.764 206.682 498.75 210.939 493.617 213.505C488.421 216.135 479.157 221.08 472.959 224.524C466.762 227.967 457.623 233.288 452.615 236.418C447.607 239.486 439.282 244.87 434.149 248.313C428.953 251.756 421.629 256.827 417.873 259.582C414.117 262.336 407.858 267.032 404.102 269.974C400.283 272.916 393.147 278.676 388.139 282.87C383.194 287.002 375.682 293.451 371.551 297.207C367.419 300.963 359.845 308.162 354.775 313.171C349.642 318.179 341.191 326.944 335.995 332.641C330.737 338.337 323.1 347.102 318.969 352.048C314.775 357.056 309.016 364.193 306.074 368.012C303.131 371.768 298.437 378.028 295.682 381.785C292.928 385.541 287.858 392.865 284.415 398.062C280.972 403.195 275.588 411.521 272.521 416.53C269.391 421.538 264.07 430.678 260.628 436.876C257.185 443.074 252.239 452.339 249.61 457.535C247.044 462.669 242.787 471.684 240.095 477.568C237.466 483.453 232.959 494.158 230.08 501.358C227.2 508.557 223.131 519.576 221.003 525.773C218.937 531.971 215.682 542.238 213.804 548.624C211.926 555.009 209.172 565.276 207.607 571.474C206.105 577.672 203.977 587.125 202.912 592.446C201.786 597.768 200.221 606.094 199.407 610.915C198.593 615.735 197.341 624.061 196.59 629.383C195.901 634.704 194.775 644.846 194.086 651.92C193.397 658.994 192.521 673.331 192.083 683.848C191.52 698.873 191.52 707.011 192.083 722.036C192.521 732.554 193.397 746.89 194.086 753.964C194.775 761.039 195.901 771.18 196.59 776.502C197.341 781.823 198.593 790.149 199.407 794.97C200.221 799.79 201.786 808.117 202.912 813.438C203.977 818.759 206.105 828.213 207.607 834.41C209.172 840.608 211.926 850.875 213.804 857.261C215.682 863.646 218.937 873.913 221.003 880.111C223.131 886.309 227.2 897.327 230.08 904.527C232.959 911.726 237.466 922.494 240.095 928.316C242.787 934.138 247.044 943.153 249.61 948.349C252.239 953.483 257.185 962.811 260.628 969.009C264.07 975.206 269.391 984.346 272.521 989.355C275.588 994.363 280.972 1002.63 284.415 1007.82C287.858 1012.96 292.928 1020.34 295.682 1024.1C298.437 1027.86 303.131 1034.12 306.074 1037.87C309.016 1041.63 314.775 1048.83 318.969 1053.84C323.1 1058.78 330.737 1067.55 335.995 1073.24C341.191 1078.94 349.642 1087.71 354.775 1092.71C359.845 1097.72 367.419 1104.92 371.551 1108.68C375.682 1112.43 383.194 1118.88 388.139 1123.01C393.147 1127.21 400.283 1132.97 404.102 1135.91C407.858 1138.85 414.117 1143.55 417.873 1146.3C421.629 1149.06 429.016 1154.13 434.149 1157.57C439.344 1161.01 447.607 1166.4 452.615 1169.47C457.623 1172.6 466.762 1177.92 472.959 1181.36C479.157 1184.8 488.484 1189.75 493.617 1192.38C498.812 1194.95 507.764 1199.2 513.648 1201.89C519.532 1204.52 530.236 1209.03 537.435 1211.91C544.634 1214.79 555.651 1218.86 561.848 1220.99C568.045 1223.05 578.311 1226.31 584.696 1228.19C591.081 1230.07 601.347 1232.82 607.545 1234.39C613.742 1235.89 623.194 1238.02 628.515 1239.08C633.836 1240.21 642.161 1241.77 646.981 1242.59C651.801 1243.4 660.127 1244.65 665.448 1245.4C670.768 1246.09 680.909 1247.22 687.983 1247.91C695.056 1248.6 709.391 1249.47 719.908 1249.91C734.931 1250.48 743.069 1250.48 758.092 1249.91C768.609 1249.47 782.944 1248.6 790.017 1247.91C797.091 1247.22 807.232 1246.09 812.552 1245.4C817.873 1244.65 826.199 1243.4 831.019 1242.59C835.839 1241.77 844.164 1240.21 849.485 1239.08C854.806 1238.02 864.258 1235.89 870.455 1234.39C876.653 1232.82 886.919 1230.07 893.304 1228.19C899.689 1226.31 909.955 1223.05 916.152 1220.99C922.349 1218.86 933.366 1214.79 940.565 1211.91C947.764 1209.03 958.531 1204.52 964.352 1201.89C970.174 1199.2 979.25 1194.95 984.383 1192.38C989.579 1189.75 998.844 1184.8 1005.04 1181.36C1011.24 1177.92 1020.38 1172.6 1025.39 1169.47C1030.39 1166.4 1038.72 1161.01 1043.85 1157.57C1049.05 1154.13 1056.37 1149.06 1060.13 1146.3C1063.88 1143.55 1070.14 1138.85 1073.9 1135.91C1077.65 1132.97 1084.85 1127.21 1089.86 1123.01C1094.81 1118.88 1102.32 1112.43 1106.45 1108.68C1110.58 1104.92 1118.15 1097.72 1123.23 1092.71C1128.36 1087.71 1136.81 1078.94 1142 1073.24C1147.26 1067.55 1154.9 1058.78 1159.03 1053.84C1163.23 1048.83 1168.98 1041.63 1171.93 1037.87C1174.87 1034.12 1179.56 1027.86 1182.32 1024.1C1185.07 1020.34 1190.14 1012.96 1193.59 1007.82C1197.03 1002.63 1202.41 994.363 1205.48 989.355C1208.61 984.346 1213.93 975.206 1217.37 969.009C1220.82 962.811 1225.76 953.483 1228.39 948.349C1230.96 943.153 1235.21 934.138 1237.9 928.316C1240.53 922.494 1245.04 911.726 1247.92 904.527C1250.8 897.327 1254.87 886.309 1257 880.111C1259.06 873.913 1262.32 863.646 1264.2 857.261C1266.07 850.875 1268.83 840.608 1270.39 834.41C1271.9 828.213 1274.02 818.759 1275.09 813.438C1276.21 808.117 1277.78 799.79 1278.59 794.97C1279.41 790.149 1280.66 781.823 1281.41 776.502C1282.1 771.18 1283.23 761.039 1283.91 753.964C1284.6 746.89 1285.48 732.554 1285.92 722.036C1286.48 707.011 1286.48 698.873 1285.92 683.848C1285.48 673.331 1284.6 658.994 1283.91 651.92C1283.23 644.846 1282.1 634.704 1281.41 629.383C1280.66 624.061 1279.41 615.735 1278.59 610.915C1277.78 606.094 1276.21 597.768 1275.09 592.446C1274.02 587.125 1271.9 577.672 1270.39 571.474C1268.83 565.276 1266.07 555.009 1264.2 548.624C1262.32 542.238 1259.06 531.971 1257 525.773C1254.87 519.576 1250.8 508.557 1247.92 501.358C1245.04 494.158 1240.53 483.453 1237.9 477.568C1235.21 471.684 1230.96 462.669 1228.39 457.535C1225.76 452.339 1220.82 443.074 1217.37 436.876C1213.93 430.678 1208.61 421.538 1205.48 416.53C1202.41 411.521 1197.03 403.195 1193.59 398.062C1190.14 392.865 1185.07 385.541 1182.32 381.785C1179.56 378.028 1174.87 371.768 1171.93 368.012C1168.98 364.193 1163.23 357.056 1159.03 352.048C1154.9 347.102 1147.26 338.337 1142 332.641C1136.81 326.944 1128.36 318.179 1123.23 313.171C1118.15 308.162 1110.58 300.963 1106.45 297.207C1102.32 293.451 1094.81 287.002 1089.86 282.87C1084.85 278.676 1077.65 272.916 1073.9 269.974C1070.14 267.032 1063.88 262.336 1060.13 259.582C1056.37 256.827 1048.98 251.756 1043.85 248.313C1038.66 244.87 1030.39 239.486 1025.39 236.418C1020.38 233.288 1011.24 227.967 1005.04 224.524C998.844 221.08 989.516 216.135 984.383 213.505C979.188 210.939 970.174 206.682 964.352 203.99C958.531 201.36 947.764 196.853 940.565 193.973C933.366 191.093 922.349 187.024 916.152 184.895C909.955 182.83 899.689 179.574 893.304 177.696C886.919 175.818 876.653 173.063 870.455 171.498C864.258 169.996 854.243 167.742 848.233 166.553C842.224 165.3 832.897 163.61 827.576 162.734C822.255 161.857 813.366 160.605 807.858 159.917C802.349 159.228 792.897 158.226 786.887 157.663C780.878 157.162 769.861 156.473 762.474 156.098C755.088 155.785 743.382 155.534 736.496 155.597C729.61 155.597 719.219 155.91 713.335 156.16C707.451 156.411 697.623 157.099 691.426 157.663V157.663ZM700.377 325.191C701.128 325.128 701.754 325.378 701.754 325.754C701.754 326.067 699.313 328.446 696.308 330.888C693.304 333.392 687.169 338.838 682.662 343.033C678.218 347.165 671.207 354.239 667.2 358.684C663.131 363.129 657.748 369.452 655.119 372.707C652.49 375.962 648.484 381.472 646.167 384.915C643.914 388.358 640.408 394.305 638.468 398.062C636.465 401.818 634.023 407.327 633.022 410.269C631.958 413.212 630.643 417.97 630.08 420.912C629.141 425.419 629.016 428.299 629.329 439.38C629.579 446.58 630.142 455.469 630.706 459.1C631.207 462.731 632.208 467.927 632.834 470.682C633.523 473.437 634.9 477.944 635.964 480.699C636.966 483.453 639.219 487.648 640.909 490.089C642.599 492.468 645.228 495.348 646.731 496.475C648.233 497.539 650.737 498.916 652.302 499.48C653.867 500.043 656.934 500.544 659.188 500.544C661.441 500.544 664.759 500.106 666.7 499.48C668.577 498.854 671.394 497.727 672.959 496.913C674.524 496.099 676.027 495.661 676.277 495.911C676.527 496.162 676.715 582.805 676.715 688.543C676.715 861.08 676.84 881.113 677.717 884.493C678.218 886.559 679.407 889.627 680.346 891.38C681.285 893.07 683.726 896.263 685.792 898.454C687.858 900.645 691.238 903.525 693.304 904.84C695.369 906.092 698.812 907.907 701.003 908.846C703.131 909.723 706.95 911.037 709.391 911.663C711.895 912.352 716.214 913.229 718.969 913.667C721.723 914.105 727.607 914.418 732.114 914.418C739.125 914.355 741.254 914.105 747.451 912.477C751.394 911.476 758.03 909.284 762.161 907.657C766.293 906.029 774.743 902.148 780.941 898.955C787.138 895.762 795.15 891.38 798.781 889.189C802.412 887.06 809.36 882.615 823.194 873.538L822.819 546.433L821.504 541.111C820.753 538.169 819.438 533.661 818.499 531.095C817.56 528.528 815.495 523.77 813.93 520.515C812.302 517.259 809.172 511.813 806.919 508.495C804.665 505.114 800.471 499.48 797.529 495.974C794.587 492.468 788.828 486.396 784.696 482.452C778.249 476.442 777.372 475.315 778.437 474.939C779.125 474.751 783.069 474.751 787.2 475.002C791.332 475.189 798.218 475.878 802.537 476.379C806.856 476.88 813.617 478.069 817.56 478.946C821.504 479.822 827.889 481.512 831.645 482.765C835.401 484.017 841.41 486.521 851.363 491.654L862.756 480.198C869.078 473.875 877.842 465.674 882.349 461.98C886.856 458.224 894.117 452.464 898.624 449.146C903.131 445.828 909.454 441.258 912.709 439.004C915.964 436.751 921.911 432.807 925.854 430.303C929.798 427.798 938.374 422.665 944.947 418.909C951.52 415.09 963.601 408.704 971.864 404.635C980.127 400.503 992.834 394.681 1000.03 391.613C1007.23 388.483 1019.25 383.725 1026.64 380.971C1034.02 378.216 1045.73 374.147 1052.62 371.893C1059.5 369.702 1070.33 366.384 1076.72 364.568C1083.23 362.69 1088.8 361.438 1089.36 361.626C1090.3 362.002 1087.11 366.321 1072.15 385.04C1062 397.749 1048.98 414.276 1043.16 421.851C1037.34 429.426 1028.89 440.695 1024.38 446.893C1019.88 453.09 1013.24 462.543 1009.61 467.865C1005.98 473.186 1000.41 481.951 997.153 487.272C993.961 492.593 989.892 500.106 988.077 503.862C986.261 507.618 984.133 512.877 981.88 520.139V696.995C981.88 849.122 982.005 874.226 982.756 876.355C983.257 877.732 984.696 879.923 985.886 881.301C987.138 882.615 989.391 884.368 990.956 885.119C992.521 885.933 995.463 886.998 997.529 887.624C999.595 888.187 1004.92 888.813 1009.42 889.001C1015.74 889.251 1018.75 889.126 1022.88 888.312C1025.82 887.686 1031.33 886.184 1035.09 884.994C1038.84 883.742 1044.67 881.614 1047.92 880.236C1051.18 878.922 1056.62 876.417 1059.94 874.727C1063.32 873.037 1069.27 869.781 1073.08 867.465C1076.97 865.211 1083.1 861.33 1086.73 858.888C1090.3 856.447 1096.43 852.065 1100.25 849.122C1104.13 846.18 1110.89 840.733 1115.28 836.977C1119.72 833.158 1129.17 824.206 1136.31 817.069C1148.26 805.112 1149.33 804.173 1149.33 805.926C1149.33 806.99 1148.64 809.87 1147.83 812.311C1147.01 814.815 1144.88 820.011 1143.07 823.768C1141.32 827.524 1137.75 834.473 1135.12 839.106C1132.49 843.738 1128.23 850.938 1125.67 855.07C1123.1 859.201 1117.59 867.653 1113.4 873.851C1109.27 880.048 1101.07 891.442 1095.24 899.205C1089.49 906.968 1080.53 918.362 1075.46 924.56C1070.33 930.758 1062.19 940.336 1057.31 945.845C1052.43 951.354 1043.04 961.496 1036.46 968.32C1029.83 975.206 1019.81 985.223 1014.12 990.544C1008.42 995.928 999.783 1003.75 995.025 1007.95C990.205 1012.14 982.631 1018.59 978.124 1022.22C973.617 1025.92 965.729 1032.05 960.596 1035.93C955.401 1039.81 946.387 1046.32 940.565 1050.33C934.743 1054.34 929.61 1057.59 929.172 1057.47C928.797 1057.34 909.078 1040.69 842.286 983.595L840.095 986.037C838.906 987.351 818.687 1009.33 795.15 1034.87C758.531 1074.81 752.208 1081.38 750.706 1081.38C749.767 1081.38 744.634 1080.94 739.313 1080.44C733.992 1079.94 725.541 1078.94 720.534 1078.25C715.526 1077.5 706.512 1076.12 700.502 1075.06C694.493 1074.06 683.789 1071.93 676.715 1070.3C669.642 1068.74 658.249 1065.92 651.363 1064.04C644.477 1062.16 633.335 1058.78 626.637 1056.59C619.939 1054.34 609.11 1050.39 602.537 1047.76C595.964 1045.2 586.136 1040.94 580.628 1038.44C575.119 1035.87 565.98 1031.24 560.283 1028.17C554.587 1025.04 546.074 1020.09 541.379 1017.09C536.621 1014.02 530.299 1009.83 527.294 1007.7C524.227 1005.57 517.967 1000.81 513.335 997.118C508.703 993.424 499.501 985.035 492.928 978.462C486.418 971.888 478.531 963.374 475.526 959.618C472.521 955.862 468.703 950.666 466.95 948.161C465.26 945.72 464.07 943.529 464.383 943.404C464.634 943.216 467.764 943.529 471.394 944.092C475.025 944.593 482.224 945.094 487.357 945.094C494.43 945.157 497.748 944.906 500.815 944.092C503.069 943.466 506.387 942.277 508.202 941.463C509.955 940.586 512.834 938.583 514.462 936.893C516.089 935.265 518.218 932.385 519.094 930.507C519.97 928.629 521.034 925.561 521.41 923.746C521.911 921.43 522.099 877.732 522.099 767.862C522.099 634.579 521.973 614.733 521.16 610.915C520.596 608.473 519.47 604.967 518.593 603.089C517.717 601.211 516.089 598.519 515.025 597.204C513.898 595.827 511.77 593.886 510.205 592.885C508.64 591.82 505.823 590.443 503.945 589.755C502.067 589.128 498.374 588.377 495.808 588.064C493.241 587.814 489.172 587.876 486.731 588.189C484.29 588.502 479.845 589.629 476.715 590.631C473.585 591.695 467.951 594.012 464.196 595.89C460.44 597.768 453.804 601.587 449.485 604.404C445.166 607.221 439.407 611.228 436.653 613.356C433.898 615.422 428.703 619.679 425.072 622.747C421.441 625.814 413.867 632.889 408.233 638.398C402.662 643.969 394.149 652.859 389.391 658.18C384.634 663.502 378.437 670.701 375.557 674.144C372.74 677.588 367.482 684.224 363.851 688.856C360.283 693.489 353.898 701.941 349.767 707.638C345.573 713.334 337.623 724.728 332.052 732.992C326.48 741.256 318.593 753.338 314.462 759.912C310.33 766.485 303.444 777.754 299.188 784.953C294.869 792.153 289.798 800.792 287.983 804.047C286.105 807.303 284.54 810.12 284.415 810.308C284.29 810.496 283.914 810.308 283.601 809.995C283.288 809.682 282.662 803.734 282.286 796.848C281.66 787.144 281.66 781.635 282.224 772.432C282.662 765.859 283.413 757.157 283.977 753.025C284.477 748.893 285.604 741.757 286.48 737.187C287.294 732.679 289.235 723.915 290.862 717.779C292.427 711.707 295.307 701.753 297.31 695.743C299.313 689.733 303.006 679.716 305.51 673.518C308.014 667.321 312.333 657.492 315.088 651.607C317.842 645.722 322.286 636.895 324.978 631.887C327.607 626.879 332.177 618.677 335.182 613.544C338.124 608.473 343.131 600.335 346.261 595.389C349.391 590.506 354.399 582.993 357.341 578.674C360.346 574.354 366.418 565.902 370.987 559.892C375.495 553.882 382.505 544.868 386.512 539.859C390.518 534.851 398.405 525.586 403.977 519.2C409.548 512.814 421.441 500.168 430.393 491.091C439.344 482.013 451.3 470.306 456.997 465.11C462.693 459.914 470.581 452.902 474.524 449.459C478.468 446.079 486.48 439.443 492.365 434.685C498.249 429.99 507.951 422.477 513.961 417.97C519.97 413.525 528.984 407.076 533.992 403.571C539 400.127 547.701 394.368 553.398 390.737C559.094 387.168 566.856 382.348 570.612 380.094C574.368 377.903 581.316 373.896 585.948 371.33C590.581 368.7 599.908 363.88 606.606 360.499C613.304 357.119 622.881 352.549 627.889 350.295C632.897 348.104 642.161 344.222 648.546 341.718C654.931 339.214 664.509 335.708 669.829 333.955C675.15 332.14 683.601 329.573 688.609 328.196C693.617 326.818 697.998 325.566 698.311 325.441C698.624 325.316 699.563 325.191 700.315 325.191H700.377Z" fill="white"/>
</svg>
