<svg width="500" height="500" viewBox="0 0 500 500" fill="none" xmlns="http://www.w3.org/2000/svg">
<path fill-rule="evenodd" clip-rule="evenodd" d="M253.429 0.393082C260.894 1.17925 275.039 6.68239 284.862 12.9717C299.793 22.4057 308.044 24.3711 336.727 26.3365C365.802 27.9088 372.089 29.4811 381.126 38.1289C386.627 43.6321 396.45 56.9969 402.343 67.6101C410.594 81.761 418.453 90.0157 432.598 97.8774C443.206 103.381 456.172 112.814 461.673 118.711C470.317 127.752 471.889 134.041 473.461 163.129C475.425 192.61 477.39 199.686 487.213 215.016C495.857 227.987 499 237.421 499 250.393C499 263.365 495.857 272.799 487.213 285.77C477.39 301.101 475.425 308.176 473.461 337.657C471.889 366.745 470.317 373.035 461.673 382.075C456.172 387.972 443.206 397.406 432.598 402.909C418.453 410.77 410.594 419.025 402.343 433.176C396.45 444.182 386.627 457.154 381.126 462.657C372.089 471.305 365.802 472.877 336.727 474.45C307.258 476.415 300.186 478.38 284.862 488.208C271.896 496.855 262.466 500 249.5 500C236.534 500 227.104 496.855 214.138 488.208C198.814 478.38 191.742 476.415 162.273 474.45C133.198 472.877 126.911 471.305 117.874 462.657C112.373 457.154 102.55 443.789 96.6567 433.176C88.4055 419.025 80.5472 410.77 66.4024 402.909C55.7937 397.406 42.8276 387.972 37.3268 382.075C28.6827 373.035 27.111 366.745 25.5394 337.657C23.5748 308.176 21.6102 301.101 11.7874 285.77C3.14331 272.799 0 263.365 0 250.393C0 237.421 3.14331 227.987 11.7874 215.016C21.6102 199.686 23.5748 192.61 25.5394 163.129C27.111 134.041 28.6827 127.752 37.3268 118.711C42.8276 112.814 55.7937 103.381 66.4024 97.8774C80.5472 90.0157 88.4055 81.761 96.6567 67.6101C102.55 56.6038 112.373 43.6321 117.874 38.1289C126.911 29.4811 133.198 27.9088 162.273 26.3365C190.17 24.7642 199.207 22.4057 212.173 14.1509C220.817 8.6478 230.64 2.75157 233.783 1.57233C236.927 0 245.964 -0.393082 253.429 0.393082V0.393082ZM157.165 90.8019C146.164 97.0912 128.483 111.242 117.874 122.248C106.872 133.255 92.3346 153.695 85.2622 167.846C78.1898 182.39 70.7244 205.975 67.974 222.877C64.4378 246.069 64.4378 258.255 67.974 279.874C70.7244 294.811 78.5827 318.789 85.2622 332.94C92.7276 347.484 107.265 367.925 119.839 380.11C132.412 393.082 152.057 407.233 166.988 414.308C181.133 421.384 205.887 429.245 221.996 431.997C245.571 435.928 256.965 435.928 278.969 431.997C293.899 429.245 317.867 421.384 332.012 414.308C346.943 407.233 366.588 393.082 379.161 380.11C392.128 367.531 406.272 347.877 413.345 332.94C420.417 318.789 428.276 294.025 431.026 277.909C434.955 254.324 434.955 242.925 431.026 220.912C428.276 205.582 420.417 181.997 413.345 167.846C406.272 152.909 392.128 133.255 379.161 120.676C366.195 107.311 347.335 93.9465 332.012 86.478C317.867 79.7956 297.043 72.327 285.648 69.9686C274.646 67.6101 256.965 65.6447 246.75 66.0377C236.141 66.0377 216.495 69.1824 202.35 72.7201C188.206 76.2579 168.167 84.5126 157.165 90.8019ZM257.358 82.9403C285.255 83.7264 295.078 86.0849 317.474 96.305C332.012 103.381 353.229 117.531 364.624 128.145C375.625 138.758 390.163 156.84 396.45 168.239C402.736 180.031 410.202 198.506 413.345 209.119C416.095 220.126 418.453 238.601 418.453 250.393C418.453 262.186 416.095 281.053 412.952 291.667C410.202 302.673 403.915 319.182 398.807 329.009C393.699 338.836 381.519 355.739 371.303 366.352C361.087 377.358 343.013 391.116 331.619 397.406C319.832 403.695 301.757 411.164 290.756 414.308C280.147 417.06 261.287 419.418 249.5 419.418C237.713 419.418 219.246 417.06 208.244 414.308C197.635 411.164 179.168 403.695 167.381 397.406C155.987 391.116 137.913 376.965 127.697 366.352C117.481 355.346 105.301 338.836 100.193 329.009C95.085 319.182 88.7984 302.28 86.048 291.667C82.9047 280.66 80.5472 262.186 80.5472 250.393C80.5472 238.601 82.9047 219.733 85.6551 209.119C88.7984 198.113 96.2638 180.031 102.55 168.239C108.837 156.84 122.982 138.758 133.591 128.538C144.592 118.318 162.666 105.346 174.061 99.8428C185.062 93.9465 201.172 87.6572 209.423 85.2987C217.281 83.3333 238.891 82.1541 257.358 82.9403V82.9403ZM209.423 201.651C207.458 202.437 193.706 197.327 178.776 190.645C160.309 181.997 149.7 178.852 147.343 181.604C144.985 183.962 148.128 202.437 156.38 232.704L168.953 279.874H330.047C350.872 202.83 354.015 183.962 351.657 181.604C349.3 178.852 338.691 181.997 320.224 190.645C305.294 197.327 291.542 202.437 289.577 201.651C288.006 200.865 279.361 187.893 270.324 172.17C260.895 156.84 251.857 144.261 249.5 144.261C247.535 144.261 238.106 156.84 229.069 172.17C219.639 187.893 210.994 200.865 209.423 201.651ZM166.202 324.686C166.595 332.547 169.739 342.767 172.882 347.484C178.776 356.132 180.347 356.525 249.5 356.525C318.26 356.525 320.224 356.132 326.118 347.877C329.654 342.374 331.619 332.547 331.226 323.113L330.047 307.39C207.851 305.818 170.917 306.604 168.953 307.783C167.381 309.355 165.809 316.824 166.202 324.686V324.686ZM249.893 171.777C251.857 171.777 258.537 181.211 264.824 192.217C271.11 203.616 278.576 215.016 281.719 217.767C285.648 221.305 292.72 219.34 312.366 210.299C327.69 203.223 337.12 200.472 335.548 204.009C333.976 206.761 329.654 222.091 318.26 266.116H180.74L173.275 237.814C169.346 222.091 165.024 206.761 163.452 204.009C161.88 200.472 171.31 203.223 186.634 210.299C206.28 219.34 213.352 221.305 217.281 217.767C220.424 215.016 227.89 203.616 234.569 192.217C240.856 181.211 247.535 171.777 249.893 171.777V171.777ZM182.705 321.148H316.295V340.802H182.705V321.148Z" fill="black" fill-opacity="0.99"/>
</svg>
