<svg width="500" height="500" viewBox="0 0 500 500" fill="none" xmlns="http://www.w3.org/2000/svg">
<path d="M454.782 20.1562L472.491 11.2995C482.23 6.42835 491.527 2.44283 493.298 2C495.512 2 496.84 2.88567 496.84 4.21417C496.84 5.54268 492.855 14.3994 487.986 24.1417C483.116 33.8841 478.689 41.8551 478.246 41.8551C477.36 41.8551 472.048 36.9839 454.782 20.1562Z" fill="black" fill-opacity="0.95"/>
<path d="M7.63966 88.3528C2.76979 70.1965 1.44164 53.8117 3.2125 36.5411C4.98337 22.3704 7.19694 10.8567 8.08237 10.8567C8.9678 10.8567 15.1658 17.0564 21.8065 24.5846C28.89 32.5556 39.9579 41.4123 47.484 45.3978C54.5675 48.9405 79.3595 55.583 101.495 60.0113C124.074 64.8825 147.095 71.525 152.408 75.0677C158.163 79.0532 166.132 87.4671 170.116 94.1096C174.543 100.752 178.085 110.052 178.085 114.923C178.085 119.794 164.361 138.393 118.318 189.319L93.9691 182.234C80.6877 178.248 61.6509 168.506 51.9112 160.092C42.1714 152.121 29.7754 138.393 24.4628 129.979C19.1502 121.565 11.6241 102.966 7.63966 88.3528Z" fill="black" fill-opacity="0.95"/>
<path d="M390.588 52.926L413.609 40.9695C426.448 34.3269 437.959 29.0129 439.287 28.5701C440.615 28.5701 448.141 34.7698 470.72 57.3543L445.928 108.28L390.588 52.926Z" fill="black" fill-opacity="0.95"/>
<path d="M246.706 192.419L310.9 128.208C346.317 92.7811 375.979 63.9969 377.307 63.9969C378.635 63.9969 384.39 68.868 401.656 86.5814L271.055 216.775L246.706 192.419Z" fill="black" fill-opacity="0.95"/>
<path d="M282.123 227.846L346.317 163.635C381.734 128.208 411.396 99.4236 412.724 99.4236C414.052 99.4236 419.807 104.295 437.073 122.008L306.472 252.202L282.123 227.846Z" fill="black" fill-opacity="0.95"/>
<path d="M131.6 192.419L155.949 168.063C169.231 154.778 181.627 143.707 183.398 143.707C185.168 143.707 190.038 148.578 193.58 154.778C199.778 165.406 199.335 166.735 178.97 190.205C167.46 203.933 157.277 215.003 155.949 215.003C154.621 215.003 148.866 209.689 131.6 192.419Z" fill="black" fill-opacity="0.95"/>
<path d="M167.017 223.86L189.153 199.504C201.106 186.662 212.174 175.591 213.502 175.148C214.83 174.706 279.909 241.574 358.27 323.055C481.788 451.477 501.267 473.176 499.939 483.361C499.496 493.104 496.397 496.204 487.986 497.089C479.131 497.975 449.912 474.947 335.249 373.981L328.024 367.616C253.04 301.564 186.75 243.17 167.017 223.86Z" fill="black" fill-opacity="0.95"/>
<path d="M96.1827 351.839C94.4118 347.411 109.021 330.141 136.912 302.242C160.819 278.329 181.184 258.844 182.512 258.844C183.84 258.844 189.596 263.715 206.861 281.429L162.59 325.712C120.532 367.781 117.876 369.996 108.579 364.239C102.823 361.139 97.5108 355.382 96.1827 351.839Z" fill="black" fill-opacity="0.95"/>
<path d="M125.845 385.052L172.772 337.669L219.7 289.843L244.935 314.198L152.408 407.194L125.845 385.052Z" fill="black" fill-opacity="0.95"/>
<path d="M58.5519 381.066L68.2916 370.881C73.6042 365.567 78.9168 361.139 80.2449 361.139C81.5731 361.139 95.74 373.981 140.454 418.265L118.318 440.849L58.5519 381.066Z" fill="black" fill-opacity="0.95"/>
<path d="M0.113498 451.92C-0.771932 441.292 3.2125 434.65 23.1347 415.165C36.4161 402.323 48.3694 392.137 49.6976 392.137C51.0257 392.137 64.7499 404.98 109.464 449.706L85.1148 474.062C66.0781 493.104 57.6665 498.418 47.484 497.975C38.187 497.975 29.3327 492.661 17.8221 481.59C7.63966 471.405 0.998929 460.334 0.113498 451.92Z" fill="black" fill-opacity="0.95"/>
</svg>
