<svg width="500" height="500" viewBox="0 0 500 500" fill="none" xmlns="http://www.w3.org/2000/svg">
<path d="M456.523 18.8063C460.331 17.6352 465.312 16.2688 467.753 15.8784C470.194 15.488 473.319 15.0976 474.784 15C476.346 15 479.569 15.2928 482.108 15.8784C484.744 16.3664 488.65 18.1232 490.896 19.7823C493.826 21.8319 495.877 24.3695 497.732 28.371C500.076 33.4462 500.271 34.6173 499.783 42.718C499.392 49.0619 498.318 53.9419 496.072 60.2858C494.412 65.1657 490.115 74.5352 486.6 81.2695C483.182 88.0038 476.639 98.9349 472.147 105.669C467.753 112.404 460.722 122.456 456.523 128.117C452.324 133.778 444.414 143.83 439.043 150.565C433.672 157.299 425.079 167.547 420.001 173.5C414.826 179.454 404.767 190.873 397.541 198.876C390.315 206.977 371.566 226.301 356.039 241.819C340.415 257.435 321.568 275.686 314.146 282.323C306.725 289.057 299.889 294.62 299.01 294.815C297.936 295.011 283.874 281.737 258.485 256.264C237.197 234.89 219.717 217.029 219.717 216.444C219.619 215.858 224.6 210.002 230.556 203.268C236.611 196.534 255.165 177.404 271.863 160.715C288.562 144.123 309.459 123.92 318.345 116.015C327.232 108.012 342.172 95.0309 351.547 87.223C360.922 79.3175 374.788 68.2889 382.307 62.6282C389.827 56.9674 400.568 49.2571 406.232 45.4508C411.896 41.742 420.685 36.1789 425.763 33.1534C430.84 30.2254 438.36 26.2239 442.363 24.3695C446.367 22.5151 452.714 20.0751 456.523 18.8063Z" fill="black"/>
<path d="M93.2576 324.095C97.5543 322.046 103.902 319.703 107.417 318.922C111.714 317.946 117.768 317.654 126.459 317.849C136.908 318.044 140.521 318.63 146.966 320.679C151.263 322.143 157.61 324.876 161.126 326.925C164.641 328.975 171.282 334.343 175.871 338.93C180.949 344.005 185.636 349.666 187.785 353.57C189.738 357.083 192.472 363.232 193.937 367.234C196.476 374.066 196.671 375.627 196.671 390.657C196.769 406.176 196.671 407.054 193.839 414.569C192.179 418.863 189.347 425.012 187.492 428.233C185.636 431.454 180.07 437.993 175.285 442.873C170.5 447.753 162.786 454.194 158.196 457.22C153.607 460.245 145.306 464.93 139.642 467.76C133.978 470.591 124.311 474.592 118.159 476.642C112.007 478.691 103.413 481.034 99.1167 481.912C94.82 482.791 86.7149 483.962 81.0511 484.45C75.3873 485.035 67.2822 485.133 62.9855 484.84C58.6888 484.45 51.8532 483.571 47.8495 482.693C43.8457 481.912 37.4983 479.96 33.6899 478.399C29.8815 476.935 24.2177 473.909 20.9952 471.859C17.7727 469.712 11.7182 464.637 0 453.121L14.4525 438.286C22.4599 430.087 31.0533 420.523 33.5923 417.009C36.2289 413.495 39.7443 407.737 41.5997 404.126C43.4551 400.417 45.7988 395.147 46.8729 392.414C47.9471 389.584 50.1931 382.459 51.8532 376.506C53.5133 370.65 56.5405 362.256 58.5912 357.962C60.6419 353.667 64.7432 347.324 67.5751 343.81C70.5047 340.296 75.6803 335.319 79.1957 332.684C82.6135 330.049 88.9609 326.242 93.2576 324.095Z" fill="black"/>
<path d="M193.134 246.292L193.741 245.528C196.476 242.112 199.405 239.379 200.187 239.379C200.968 239.379 218.252 255.971 238.564 276.272C258.973 296.67 275.379 313.847 275.379 314.823C275.379 315.799 270.008 320.679 261.903 327.023C254.579 332.879 245.888 339.613 242.665 342.053C239.443 344.493 233.583 348.69 229.677 351.423C225.869 354.253 222.061 356.498 221.377 356.498C220.791 356.498 219.424 354.448 218.545 351.911C217.569 349.276 214.932 343.908 212.686 339.906C210.342 335.807 206.046 329.561 203.116 325.852C200.187 322.143 195.109 316.775 191.886 314.042C188.664 311.212 183.39 307.21 180.168 305.161C176.945 303.014 170.891 299.793 166.79 297.939C162.59 296.084 158.977 294.132 158.782 293.547C158.489 293.059 161.419 288.179 165.227 282.811C169.036 277.443 175.871 268.269 180.461 262.315C184.727 256.872 190.258 249.912 193.134 246.292Z" fill="black"/>
</svg>
