<svg width="500" height="500" viewBox="0 0 500 500" fill="none" xmlns="http://www.w3.org/2000/svg">
<path fill-rule="evenodd" clip-rule="evenodd" d="M298.826 55.1454L301.566 57.79C303.033 59.1612 310.47 70.7191 331.703 106.47L473.581 107.058L478.963 109.605C481.898 110.976 486.497 114.11 489.139 116.461C492.074 119.106 495.01 123.219 500 133.504V417.554L497.26 423.431C495.793 426.663 492.466 431.365 489.922 433.911C487.378 436.556 482.681 439.788 473.581 444H26.4188L20.5479 441.257C17.319 439.788 12.6223 436.556 10.0783 433.911C7.53425 431.365 4.20744 426.663 0 417.554V133.504L3.03327 127.137C4.99022 123.219 7.92564 119.106 10.8611 116.461C13.5029 114.11 18.1018 111.074 21.0372 109.703C24.7554 107.939 28.6693 107.058 41.0959 106.372L41.7808 98.8303C42.1722 93.737 42.955 90.6026 44.3249 88.9375C45.3033 87.5662 47.6517 85.5093 49.5108 84.236C52.8376 81.9832 52.8376 81.9832 84.638 82.277C114.677 82.5709 116.634 82.6688 119.08 84.5298C120.548 85.6073 122.701 88.2519 123.777 90.4067C125.049 93.0513 125.734 96.2836 125.734 106.568H168.297L181.996 83.4524C189.53 70.7191 196.771 59.3571 198.141 58.0838C199.511 56.9084 201.272 55.6351 202.055 55.3413C202.838 55.0474 224.951 54.8515 298.826 55.1454V55.1454ZM383.855 160.44C382.877 162.105 382.094 165.239 382.094 167.492C382.094 169.941 382.877 172.977 384.051 174.838C385.127 176.601 387.182 178.854 388.65 179.736C390.998 181.303 394.521 181.499 415.851 181.792C430.235 181.988 441.879 181.695 444.227 181.205C446.673 180.519 449.315 178.854 451.37 176.699C453.033 174.74 454.795 171.704 455.088 169.941C455.577 167.688 455.088 165.533 453.425 162.007C451.859 158.677 450 156.62 447.652 155.346C444.618 153.779 441.487 153.583 418.297 153.583C394.227 153.583 392.172 153.779 388.943 155.542C387.084 156.62 384.736 158.873 383.855 160.44V160.44ZM220.157 176.601C216.928 177.483 210.959 179.736 206.947 181.695C202.935 183.556 196.086 187.376 191.781 190.314C187.476 193.154 180.431 199.227 176.125 203.733C171.82 208.239 166.243 214.997 163.699 218.719C161.252 222.441 157.73 228.71 156.067 232.432C154.403 236.154 151.957 242.814 150.685 247.124C149.413 251.434 147.945 259.759 147.26 265.734C146.477 273.766 146.477 279.055 147.26 286.303C147.945 291.69 149.511 299.82 150.783 304.424C152.153 309.027 154.599 315.59 156.164 319.116C157.828 322.642 161.448 329.009 164.384 333.318C167.221 337.628 172.407 343.995 175.832 347.423C179.256 350.851 184.442 355.553 187.378 357.806C190.313 360.156 196.086 363.78 200.098 366.033C204.11 368.188 210.274 371.126 213.796 372.498C217.319 373.869 224.462 375.828 229.746 376.905C235.714 378.179 243.151 378.864 250 378.864C256.849 378.864 264.286 378.179 270.352 376.905C275.538 375.828 282.681 373.869 286.204 372.498C289.726 371.126 295.89 368.188 299.902 366.033C303.914 363.78 309.687 360.156 312.622 357.806C315.558 355.553 320.744 350.851 324.168 347.423C327.593 343.995 332.779 337.628 335.616 333.318C338.552 329.009 342.172 322.642 343.836 319.116C345.401 315.59 347.847 309.027 349.217 304.424C350.489 299.82 352.055 291.69 352.74 286.303C353.523 279.055 353.523 273.766 352.74 265.734C352.055 259.759 350.587 251.434 349.315 247.124C348.043 242.814 345.695 236.448 344.129 232.921C342.564 229.395 339.139 223.225 336.497 219.209C333.855 215.193 328.18 208.239 323.875 203.733C319.569 199.227 312.524 193.154 308.219 190.314C303.914 187.376 296.869 183.458 292.564 181.401C288.258 179.442 280.528 176.699 275.44 175.426C268.493 173.565 262.818 172.879 252.935 172.585C244.423 172.389 237.28 172.683 232.877 173.565C229.159 174.25 223.386 175.622 220.157 176.601ZM252.446 203.047C258.415 203.243 265.851 204.125 269.08 205.006C272.309 205.888 278.474 208.336 282.779 210.491C287.084 212.548 293.053 216.368 295.988 219.013C299.022 221.559 303.523 226.065 306.067 229.004C308.611 231.942 312.427 237.721 314.481 241.737C316.634 245.753 319.374 252.609 320.45 256.919C322.016 262.6 322.505 267.693 322.603 275.529C322.603 283.169 322.016 288.458 320.646 293.649C319.569 297.665 317.319 303.836 315.656 307.362C313.992 310.888 310.47 316.569 307.828 320.095C305.284 323.622 300.294 328.813 296.869 331.653C293.444 334.396 287.769 338.216 284.247 340.077C280.724 341.938 274.56 344.485 270.548 345.758C264.384 347.619 261.155 348.011 250 348.011C238.845 348.011 235.616 347.619 229.452 345.758C225.44 344.485 219.276 341.938 215.753 340.077C212.231 338.216 206.556 334.396 203.131 331.653C199.706 328.813 194.716 323.622 192.172 320.095C189.53 316.569 186.008 310.888 184.344 307.362C182.681 303.836 180.431 297.665 179.354 293.649C177.984 288.458 177.397 283.169 177.397 275.529C177.397 267.987 177.984 262.6 179.354 257.409C180.431 253.393 182.779 246.928 184.736 243.206C186.595 239.484 189.824 234.097 191.977 231.452C194.129 228.71 197.945 224.596 200.489 222.147C203.033 219.698 207.632 216.074 210.665 214.017C213.699 212.058 219.08 209.218 222.603 207.945C226.125 206.573 231.8 204.81 235.323 204.027C239.628 203.047 245.205 202.753 252.446 203.047V203.047Z" fill="black"/>
</svg>
