<svg width="500" height="500" viewBox="0 0 500 500" fill="none" xmlns="http://www.w3.org/2000/svg">
<path d="M173.829 7.12891C172.754 5.37109 170.41 3.02734 168.652 1.95312H168.749C166.796 0.78125 163.767 0 161.423 0C159.078 0 156.246 0.488281 155.073 1.07422C153.803 1.66016 151.654 3.32031 150.091 4.78516C148.431 6.34766 147.063 9.08203 146.379 12.207C145.696 15.332 145.5 28.2227 145.695 47.3633C145.989 76.5625 146.086 77.7344 148.138 81.0547C149.31 82.9102 151.264 85.0586 152.533 85.8398C153.803 86.6211 156.343 87.5977 158.199 87.9883C160.055 88.3789 163.181 88.2812 165.037 87.6953C166.893 87.207 169.531 85.7422 170.703 84.668C171.973 83.4961 173.634 81.3477 174.415 79.8828C175.49 77.6367 175.783 70.5078 175.783 43.75C175.783 12.0117 175.685 10.0586 173.829 7.12891Z" fill="black"/>
<path d="M323.678 190.43C230.682 156.934 151.654 128.613 147.845 127.344C143.644 125.977 139.834 125.293 138.076 125.586C136.513 125.879 133.778 126.953 132.215 127.832C130.652 128.711 128.308 131.445 127.038 133.789C125.865 136.23 124.889 139.16 124.889 140.43C124.889 141.602 150.384 212.988 181.448 299.023C212.61 385.156 240.939 463.672 244.553 473.633C248.167 483.594 252.075 492.773 253.149 493.945C254.322 495.215 256.666 496.973 258.229 497.754C260.28 498.828 262.722 499.121 266.044 498.73C268.779 498.438 272.003 497.363 273.37 496.289C274.738 495.312 278.938 488.77 282.748 481.836C286.558 474.902 298.768 452.148 330.321 393.066L382.68 445.508C411.497 474.316 436.212 498.438 437.774 499.023C439.24 499.512 441.975 500 443.831 500C445.687 500 448.715 499.316 450.474 498.438C452.134 497.559 462.782 487.793 474.016 476.66C485.152 465.625 495.604 454.59 497.167 452.148C499.023 449.316 500 446.484 500 444.141C500 442.09 499.316 438.965 498.437 437.305C497.558 435.547 473.625 410.742 393.425 330.566L443.538 304.004C474.211 287.695 494.823 276.27 496.581 274.414C499.219 271.582 499.512 270.801 499.512 264.648C499.512 258.203 499.316 257.715 496.093 254.492C493.064 251.562 475.579 245.02 323.678 190.43Z" fill="black"/>
<path d="M85.8145 153.613C84.7399 151.855 82.3955 149.512 80.6371 148.438H80.7348C77.7066 146.582 75.7529 146.484 43.8098 146.484C11.8667 146.484 9.91299 146.582 6.88477 148.438C5.22412 149.512 2.87964 151.855 1.70743 153.613C0.242157 156.055 -0.14859 158.008 0.0467834 162.305C0.339844 167.285 0.730591 168.359 7.66623 175.293L42.6375 175.586C76.1436 175.781 77.6089 175.781 80.7348 173.828C82.3954 172.754 84.7399 170.41 85.8145 168.75C86.9867 166.797 87.7682 163.77 87.7682 161.133C87.7682 158.496 86.9867 155.469 85.8145 153.613Z" fill="black"/>
<path d="M277.18 50.0977C276.105 48.3398 273.761 45.9961 272.1 44.9219C270.147 43.75 267.118 42.9688 264.774 42.9688C262.429 42.9688 259.401 43.457 257.936 44.043C256.373 44.5312 245.041 55.2734 232.635 67.6758C214.564 85.7422 209.777 91.1133 208.8 94.2383C208.116 96.3867 207.823 99.8047 208.214 101.855C208.507 103.906 210.168 106.934 212.024 108.984C213.684 110.84 216.713 112.891 218.569 113.477C220.425 114.062 223.746 114.16 225.895 113.77C229.314 113.184 232.44 110.547 253.052 90.0391C265.848 77.3438 276.985 65.7227 277.766 64.2578C278.547 62.6953 279.134 59.668 279.134 57.4219C279.134 54.9805 278.352 51.9531 277.18 50.0977Z" fill="black"/>
<path d="M88.9404 68.2617C76.1436 55.5664 64.8121 44.6289 63.7376 44.043C62.663 43.457 59.8302 42.9688 57.388 42.9688C54.3598 42.9688 51.9177 43.6523 49.6709 45.1172C47.8149 46.3867 45.4704 48.4375 44.4936 49.8047C43.3214 51.3672 42.6376 54.0039 42.5399 57.1289C42.4422 60.5469 43.0283 63.0859 44.4936 65.4297C45.5681 67.2852 56.3135 78.6133 68.3288 90.4297C85.6191 107.617 90.8941 112.305 94.02 113.281C96.3644 114.062 99.4904 114.258 101.835 113.77C104.472 113.281 106.914 111.914 109.161 109.57C111.31 107.324 112.971 104.492 113.362 102.344C113.752 100.293 113.655 96.9727 113.069 95.0195C112.287 91.9922 107.696 86.8164 88.9404 68.2617Z" fill="black"/>
<path d="M107.598 211.328C106.035 210.156 103.886 208.984 102.812 208.691C101.737 208.496 99.8811 208.203 98.7089 208.105C97.439 208.105 94.9969 208.594 93.3362 209.375C91.5779 210.059 87.6705 213.086 84.7399 215.918C81.8094 218.848 71.1617 229.59 42.8329 258.301L42.7352 263.965C42.7352 267.285 43.3214 270.605 44.2982 272.266C45.1774 273.73 47.0334 275.781 48.401 276.855C49.8663 277.93 53.1876 278.906 55.9228 279.102C59.1464 279.395 61.7839 279.004 63.7376 278.027C65.3005 277.148 77.0228 266.016 89.7219 253.223C110.822 232.031 112.971 229.59 113.557 225.879C114.045 222.852 113.752 220.703 112.385 217.578C111.31 215.234 109.259 212.402 107.598 211.328Z" fill="black"/>
</svg>
