<svg width="500" height="500" viewBox="0 0 500 500" fill="none" xmlns="http://www.w3.org/2000/svg">
<path fill-rule="evenodd" clip-rule="evenodd" d="M250 41C487.891 41 489.746 41 492.969 42.9533C494.629 44.0276 496.973 46.3715 498.047 48.1294C500 51.2547 500 53.1103 500 250C500 446.89 500 448.745 498.047 451.968C496.973 453.726 494.238 455.972 491.895 457.047C487.891 458.902 484.863 459 250 459C15.1367 459 12.1094 458.902 8.00781 457.047C5.76172 455.972 3.02734 453.726 1.95312 451.871C0 448.745 0 446.89 0 250C0 53.1103 0 51.2547 1.95312 48.0318C3.02734 46.3715 5.37109 44.0276 7.03125 42.9533C10.2539 41 12.1094 41 250 41V41ZM29.2969 95.6916H79.1016V70.2991H29.2969V95.6916ZM109.375 95.6916H157.227V70.2991H109.375V95.6916ZM187.5 95.6916H235.352V70.2991H187.5V95.6916ZM265.625 95.6916H314.453V70.2991H265.625V95.6916ZM344.727 95.6916H392.578V70.2991H344.727V95.6916ZM422.852 95.6916H470.703V70.2991H422.852V95.6916ZM196.875 185.249C195.215 186.128 193.262 187.984 192.383 189.351C191.504 190.718 190.234 193.453 189.648 195.308C188.77 197.75 188.477 213.083 188.477 250.488V302.25C191.895 309.086 194.629 312.309 196.777 313.774C199.316 315.532 202.441 316.802 205.566 317.095C209.473 317.583 211.523 317.193 215.82 315.239C218.75 313.872 238.77 302.543 260.254 290.042C281.738 277.541 301.074 266.114 303.223 264.65C305.469 263.185 308.105 260.255 309.277 257.715C310.547 255.371 311.523 251.856 311.523 250C311.523 248.144 310.645 244.824 309.668 242.675C308.691 240.527 306.836 237.792 305.566 236.62C304.297 235.546 284.082 223.436 260.742 209.763C237.402 196.09 217.383 184.565 216.309 184.175C215.234 183.686 212.988 183.1 211.23 182.71C209.57 182.319 206.25 182.417 203.906 182.807C201.66 183.296 198.438 184.37 196.875 185.249V185.249ZM29.2969 428.724H79.1016V404.308H29.2969V428.724ZM109.375 428.724H157.227V404.308H109.375V428.724ZM187.5 428.724H235.352V404.308H187.5V428.724ZM265.625 428.724H314.453V404.308H265.625V428.724ZM344.727 428.724H392.578V404.308H344.727V428.724ZM422.852 428.724H470.703V404.308H422.852V428.724Z" fill="black"/>
</svg>
